SplineFontDB: 3.0
FontName: OxygenSans-Thin
FullName: OxygenSans Thin
FamilyName: OxygenSans
Weight: Light
ItalicAngle: 0
UnderlinePosition: 0
UnderlineWidth: 0
Ascent: 1638
Descent: 410
UFOAscent: 1706
UFODescent: -442
LayerCount: 2
Layer: 0 0 "Back"  1
Layer: 1 0 "Fore"  0
OS2Version: 0
OS2_WeightWidthSlopeOnly: 0
OS2_UseTypoMetrics: 0
CreationTime: 1363987835
ModificationTime: 1363987891
PfmFamily: 0
TTFWeight: 250
TTFWidth: 5
LineGap: 0
VLineGap: 0
OS2TypoAscent: 1638
OS2TypoAOffset: 0
OS2TypoDescent: 410
OS2TypoDOffset: 0
OS2TypoLinegap: 0
OS2WinAscent: 1600
OS2WinAOffset: 0
OS2WinDescent: 448
OS2WinDOffset: 0
HheadAscent: 0
HheadAOffset: 1
HheadDescent: 0
HheadDOffset: 1
OS2SubXSize: -1002
OS2SubYSize: -925
OS2SubXOff: 0
OS2SubYOff: -115
OS2SupXSize: -1002
OS2SupYSize: -925
OS2SupXOff: 0
OS2SupYOff: -539
OS2StrikeYSize: -38
OS2StrikeYPos: -459
OS2Vendor: 'PfEd'
DEI: 91125
Encoding: UnicodeBmp
Compacted: 1
UnicodeInterp: none
NameList: AGL For New Fonts
DisplaySize: -48
AntiAlias: 1
FitToEm: 1
WinInfo: 0 19 10
BeginPrivate: 7
BlueFuzz 1 0
BlueScale 3 0.0
BlueShift 1 0
BlueValues 13 [0 0 0 0 0 0]
OtherBlues 5 [0 0]
StemSnapH 19 [0 0 0 0 0 0 0 0 0]
StemSnapV 15 [0 0 0 0 0 0 0]
EndPrivate
BeginChars: 65538 614

StartChar: .notdef
Encoding: 65536 -1 0
Width: 856
VWidth: 0
Flags: HW
LayerCount: 2
UndoRedoHistory
Layer: 1
Undoes
EndUndoes
Redoes
EndRedoes
EndUndoRedoHistory
Fore
SplineSet
174.799804688 445 m 1
 673.400390625 445 l 1
 673.400390625 613 l 1
 174.799804688 613 l 1
 174.799804688 445 l 1
82.7998046875 352 m 1
 82.7998046875 706 l 1
 765.400390625 706 l 1
 765.400390625 352 l 1
 82.7998046875 352 l 1
EndSplineSet
EndChar

StartChar: A
Encoding: 65 65 1
Width: 1200
VWidth: 0
Flags: W
LayerCount: 2
UndoRedoHistory
Layer: 1
Undoes
EndUndoes
Redoes
EndRedoes
EndUndoRedoHistory
Fore
SplineSet
44.099609375 0 m 1
 166.099609375 0 l 1
 348.799804688 534 l 1
 298.400390625 493 l 1
 909.5 493 l 1
 857.299804688 532 l 1
 1036.40039062 0 l 1
 1151.40039062 0 l 1
 646.700195312 1449 l 1
 549.5 1449 l 1
 44.099609375 0 l 1
351.5 544 m 1
 619.700195312 1378 l 1
 576.5 1380 l 1
 854.599609375 544 l 1
 887 582 l 1
 323.599609375 582 l 1
 351.5 544 l 1
EndSplineSet
EndChar

StartChar: AE
Encoding: 198 198 2
Width: 1633
VWidth: 0
Flags: W
LayerCount: 2
UndoRedoHistory
Layer: 1
Undoes
EndUndoes
Redoes
EndRedoes
EndUndoRedoHistory
Fore
SplineSet
0.900390625 0 m 1
 123.900390625 0 l 1
 431.375976562 525 l 1
 355.776367188 492 l 1
 900.276367188 492 l 1
 843.576171875 529 l 1
 856.17578125 0 l 1
 1517.95214844 0 l 1
 1516.95214844 94 l 1
 919.17578125 94 l 1
 959.67578125 49 l 1
 937.17578125 733 l 1
 900.276367188 698 l 1
 1453.95214844 698 l 1
 1453.95214844 792 l 1
 895.776367188 792 l 1
 937.17578125 751 l 1
 918.276367188 1393 l 1
 882.276367188 1355 l 1
 1466.95214844 1355 l 1
 1464.95214844 1449 l 1
 814.776367188 1449 l 1
 0.900390625 0 l 1
440.375976562 548 m 1
 403.475585938 582 l 1
 886.776367188 583 l 1
 845.375976562 551 l 1
 826.475585938 1376 l 1
 866.975585938 1376 l 1
 440.375976562 548 l 1
EndSplineSet
EndChar

StartChar: B
Encoding: 66 66 15
Width: 1318
VWidth: 0
Flags: W
HStem: 0 94<707.4 940.647> 715 94<633.4 812.707> 1355 94<633.4 911.769>
VStem: 1021.4 108.699<908.29 1253.36> 1069.1 122<212.229 579.716>
LayerCount: 2
UndoRedoHistory
Layer: 1
Undoes
EndUndoes
Redoes
EndRedoes
EndUndoRedoHistory
Fore
SplineSet
194.400390625 0 m 1xf0
 724.400390625 0 l 2
 1048.40039062 0 1191.09960938 163 1191.09960938 402 c 0xe8
 1191.09960938 622 1050.20019531 743 818 776 c 1
 818 738 l 1
 1070.09960938 797 1130.09960938 919 1130.09960938 1097 c 0
 1130.09960938 1333 979.099609375 1449 633.400390625 1449 c 2
 194.400390625 1449 l 1
 194.400390625 0 l 1xf0
270.400390625 94 m 1
 316.400390625 47 l 1
 316.400390625 752 l 1
 269.400390625 715 l 1
 633.400390625 715 l 2
 930.5 715 1069.09960938 641 1069.09960938 400 c 0
 1069.09960938 181 962 94 707.400390625 94 c 2
 270.400390625 94 l 1
268.400390625 809 m 1
 316.400390625 773 l 1
 316.400390625 1400 l 1
 271.400390625 1355 l 1
 646.400390625 1355 l 2
 902.599609375 1355 1021.40039062 1302 1021.40039062 1085 c 0xf0
 1021.40039062 857 892.700195312 809 707.400390625 809 c 2
 268.400390625 809 l 1
EndSplineSet
EndChar

StartChar: C
Encoding: 67 67 17
Width: 1229
VWidth: 0
Flags: W
HStem: -19 96<564.978 1011.73> 1372 96<563.332 993.061>
VStem: 128.7 122<441.587 1002.06>
LayerCount: 2
UndoRedoHistory
Layer: 1
Undoes
EndUndoes
Redoes
EndRedoes
EndUndoRedoHistory
Fore
SplineSet
765.5 -19 m 0
 975.475585938 -19 1102.47558594 52 1126.47558594 67 c 1
 1091.47558594 157 l 1
 1057.47558594 141 947.475585938 77 778.099609375 77 c 0
 430.700195312 77 250.700195312 364 250.700195312 722 c 0
 250.700195312 1080 421.700195312 1372 764.599609375 1372 c 0
 878 1372 1001.47558594 1336 1088.47558594 1279 c 1
 1137.47558594 1356 l 1
 1054.47558594 1420 916.475585938 1468 752 1468 c 0
 354.200195312 1468 128.700195312 1139 128.700195312 729 c 0
 128.700195312 284 392.900390625 -19 765.5 -19 c 0
EndSplineSet
EndChar

StartChar: D
Encoding: 68 68 24
Width: 1449
VWidth: 0
Flags: W
HStem: 0 94<592.476 859.879> 1355 94<568.176 849.198>
VStem: 1177.25 122<429.467 1017.81>
LayerCount: 2
UndoRedoHistory
Layer: 1
Undoes
EndUndoes
Redoes
EndRedoes
EndUndoRedoHistory
Fore
SplineSet
316.400390625 44 m 1
 316.400390625 1405 l 1
 265.400390625 1355 l 1
 568.17578125 1355 l 2
 943.475585938 1355 1177.25195312 1184 1177.25195312 722 c 0
 1177.25195312 301 977.67578125 94 592.475585938 94 c 2
 265.400390625 94 l 1
 316.400390625 44 l 1
194.400390625 0 m 1
 610.475585938 0 l 2
 1024.47558594 0 1299.25195312 245 1299.25195312 727 c 0
 1299.25195312 1237 995.67578125 1449 582.576171875 1449 c 2
 194.400390625 1449 l 1
 194.400390625 0 l 1
EndSplineSet
EndChar

StartChar: Dcroat
Encoding: 272 272 26
Width: 1454
VWidth: 0
Flags: HW
LayerCount: 2
UndoRedoHistory
Layer: 1
Undoes
EndUndoes
Redoes
EndRedoes
EndUndoRedoHistory
Fore
SplineSet
54.900390625 698 m 1
 54.900390625 789 l 1
 575.900390625 789 l 1
 575.900390625 698 l 1
 54.900390625 698 l 1
EndSplineSet
Refer: 24 68 N 1 0 0 1 0 0 2
EndChar

StartChar: Delta
Encoding: 916 916 27
Width: 1535
VWidth: 0
Flags: HW
LayerCount: 2
UndoRedoHistory
Layer: 1
Undoes
EndUndoes
Redoes
EndRedoes
EndUndoRedoHistory
Fore
SplineSet
163.799804688 0 m 1
 690.576171875 1447 l 1
 814.776367188 1447 l 1
 1343.3515625 0 l 1
 163.799804688 0 l 1
347.799804688 119 m 1
 1161.3515625 119 l 1
 751.776367188 1312 l 1
 347.799804688 119 l 1
EndSplineSet
EndChar

StartChar: E
Encoding: 69 69 28
Width: 1099
VWidth: 0
Flags: W
LayerCount: 2
UndoRedoHistory
Layer: 1
Undoes
EndUndoes
Redoes
EndRedoes
EndUndoRedoHistory
Fore
SplineSet
194.400390625 0 m 1
 1010.3515625 0 l 1
 1019.3515625 94 l 1
 272.400390625 94 l 1
 316.400390625 49 l 1
 316.400390625 733 l 1
 272.400390625 698 l 1
 939.3515625 698 l 1
 939.3515625 792 l 1
 272.400390625 792 l 1
 316.400390625 751 l 1
 316.400390625 1393 l 1
 274.400390625 1355 l 1
 1015.3515625 1355 l 1
 1019.3515625 1449 l 1
 194.400390625 1449 l 1
 194.400390625 0 l 1
EndSplineSet
EndChar

StartChar: Eng
Encoding: 330 330 37
Width: 1308
VWidth: 0
Flags: HW
LayerCount: 2
UndoRedoHistory
Layer: 1
Undoes
EndUndoes
Redoes
EndRedoes
EndUndoRedoHistory
Fore
SplineSet
769.400390625 -314 m 0
 731.599609375 -314 683.900390625 -312 521 -295 c 1
 501.200195312 -215 l 1
 681.200195312 -226 669.5 -227 697.400390625 -227 c 0
 1007.90039062 -227 1024.09960938 -144 1024.09960938 179 c 2
 1024.09960938 1011 l 2
 1024.09960938 1290 953 1379 727.099609375 1379 c 0
 469.700195312 1379 319.400390625 1215 231.200195312 1080 c 1
 231.200195312 0 l 1
 164.200195312 0 l 1
 160.200195312 1470 l 1
 227.200195312 1470 l 1
 239.299804688 1230 l 1
 449.900390625 1474 601.099609375 1494 764.900390625 1494 c 0
 972.799804688 1494 1090.09960938 1335 1090.09960938 1013 c 2
 1090.09960938 166 l 2
 1090.09960938 -126 1081.09960938 -314 769.400390625 -314 c 0
EndSplineSet
EndChar

StartChar: Eth
Encoding: 208 208 41
Width: 1461
VWidth: 0
Flags: HW
LayerCount: 2
UndoRedoHistory
Layer: 1
Undoes
EndUndoes
Redoes
EndRedoes
EndUndoRedoHistory
Fore
SplineSet
647.799804688 791 m 1
 73.7998046875 791 l 1
 73.7998046875 705 l 1
 647.799804688 705 l 1
 647.799804688 791 l 1
EndSplineSet
Refer: 24 68 N 1 0 0 1 0 0 2
EndChar

StartChar: Euro
Encoding: 8364 8364 42
Width: 1232
VWidth: 0
Flags: HW
LayerCount: 2
UndoRedoHistory
Layer: 1
Undoes
EndUndoes
Redoes
EndRedoes
EndUndoRedoHistory
Fore
SplineSet
1134.47558594 67 m 1
 1072.47558594 30 952.475585938 -19 774.799804688 -19 c 0
 458 -19 218 200 156 579 c 1
 207 539 l 1
 27 539 l 1
 38 633 l 1
 197 633 l 1
 155 591 l 1
 152 622 147 697 147 729 c 0
 147 764 151 835 154 869 c 1
 194 832 l 1
 36 832 l 1
 46 923 l 1
 197 923 l 1
 156 881 l 1
 218 1244 431.900390625 1468 764 1468 c 0
 928.475585938 1468 1066.47558594 1420 1149.47558594 1356 c 1
 1100.47558594 1279 l 1
 1013.47558594 1336 890 1372 776.599609375 1372 c 0
 503 1372 332.900390625 1188 280.700195312 881 c 1
 227 923 l 1
 888.200195312 923 l 1
 878.299804688 832 l 1
 218 832 l 1
 276.200195312 869 l 1
 272.599609375 834 269 759 269 722 c 0
 269 692 273.5 620 276.200195312 591 c 1
 222 633 l 1
 878.299804688 633 l 1
 868.400390625 539 l 1
 236 539 l 1
 278 579 l 1
 328.400390625 265 498.5 77 795.5 77 c 0
 915.475585938 77 1015.47558594 112 1100.47558594 154 c 1
 1134.47558594 67 l 1
EndSplineSet
EndChar

StartChar: F
Encoding: 70 70 43
Width: 1031
VWidth: 0
Flags: W
LayerCount: 2
UndoRedoHistory
Layer: 1
Undoes
EndUndoes
Redoes
EndRedoes
EndUndoRedoHistory
Fore
SplineSet
194.400390625 0 m 1
 320.400390625 0 l 1
 320.400390625 717 l 1
 269.400390625 684 l 1
 897.8515625 684 l 1
 897.8515625 773 l 1
 262.400390625 773 l 1
 320.400390625 733 l 1
 320.400390625 1407 l 1
 262.400390625 1355 l 1
 942.8515625 1355 l 1
 951.8515625 1449 l 1
 194.400390625 1449 l 1
 194.400390625 0 l 1
EndSplineSet
EndChar

StartChar: G
Encoding: 71 71 44
Width: 1385
VWidth: 0
Flags: W
HStem: -19 96<559.124 1106.11> 1372 96<573.945 1033.7>
VStem: 127.8 122<421.785 998.411>
LayerCount: 2
UndoRedoHistory
Layer: 1
Undoes
EndUndoes
Redoes
EndRedoes
EndUndoRedoHistory
Fore
SplineSet
758.299804688 -19 m 0
 936.5 -19 1085.37597656 12 1228.37597656 64 c 1
 1228.37597656 723 l 1
 801.5 723 l 1
 792.5 617 l 1
 1158.37597656 617 l 1
 1106.37597656 669 l 1
 1106.37597656 75 l 1
 1147.37597656 133 l 1
 1091.37597656 113 939.200195312 77 793.400390625 77 c 0
 401.900390625 77 249.799804688 335 249.799804688 720 c 0
 249.799804688 1080 439.700195312 1372 779.900390625 1372 c 0
 1014.37597656 1372 1102.37597656 1291 1153.37597656 1259 c 1
 1184.37597656 1354 l 1
 1079.37597656 1439 932 1468 783.5 1468 c 0
 369.5 1468 127.799804688 1134 127.799804688 719 c 0
 127.799804688 306 342.5 -19 758.299804688 -19 c 0
EndSplineSet
EndChar

StartChar: Gamma
Encoding: 915 915 45
Width: 1147
VWidth: 0
Flags: HW
LayerCount: 2
UndoRedoHistory
Layer: 1
Undoes
EndUndoes
Redoes
EndRedoes
EndUndoRedoHistory
Fore
SplineSet
206.099609375 0 m 1
 206.099609375 1449 l 1
 1009.67578125 1448 l 1
 1004.67578125 1354 l 1
 286.099609375 1355 l 1
 328.099609375 1393 l 1
 328.099609375 0 l 1
 206.099609375 0 l 1
EndSplineSet
EndChar

StartChar: H
Encoding: 72 72 51
Width: 1395
VWidth: 0
Flags: W
LayerCount: 2
UndoRedoHistory
Layer: 1
Undoes
EndUndoes
Redoes
EndRedoes
EndUndoRedoHistory
Fore
SplineSet
191.700195312 0 m 1
 313.700195312 0 l 1
 313.700195312 736 l 1
 258.700195312 701 l 1
 1120.70019531 701 l 1
 1060.70019531 736 l 1
 1060.70019531 0 l 1
 1182.70019531 0 l 1
 1182.70019531 1449 l 1
 1060.70019531 1449 l 1
 1060.70019531 752 l 1
 1118.70019531 788 l 1
 258.700195312 788 l 1
 313.700195312 752 l 1
 313.700195312 1449 l 1
 191.700195312 1449 l 1
 191.700195312 0 l 1
EndSplineSet
EndChar

StartChar: Hbar
Encoding: 294 294 52
Width: 1566
VWidth: 0
Flags: HW
LayerCount: 2
UndoRedoHistory
Layer: 1
Undoes
EndUndoes
Redoes
EndRedoes
EndUndoRedoHistory
Fore
SplineSet
260.5 0 m 1
 260.5 1099 l 1
 166.5 1099 l 1
 166.5 1171 l 1
 260.5 1171 l 1
 260.5 1474 l 1
 354.5 1474 l 1
 354.5 1171 l 1
 1178 1171 l 1
 1178 1474 l 1
 1272 1474 l 1
 1272 1171 l 1
 1366 1171 l 1
 1366 1099 l 1
 1272 1099 l 1
 1272 0 l 1
 1178 0 l 1
 1178 704 l 1
 354.5 704 l 1
 354.5 0 l 1
 260.5 0 l 1
354.5 814 m 1
 1178 814 l 1
 1178 1099 l 1
 354.5 1099 l 1
 354.5 814 l 1
EndSplineSet
EndChar

StartChar: I
Encoding: 73 73 54
Width: 744
VWidth: 0
Flags: W
VStem: 102.6 529
LayerCount: 2
UndoRedoHistory
Layer: 1
Undoes
EndUndoes
Redoes
EndRedoes
EndUndoRedoHistory
Fore
SplineSet
102.599609375 1449 m 1
 102.599609375 1372 l 1
 343.599609375 1372 l 1
 306.599609375 1412 l 1
 306.599609375 31 l 1
 348.599609375 77 l 1
 102.599609375 77 l 1
 102.599609375 0 l 1
 631.599609375 0 l 1
 631.599609375 77 l 1
 386.599609375 77 l 1
 428.599609375 33 l 1
 428.599609375 1410 l 1
 390.599609375 1372 l 1
 631.599609375 1372 l 1
 631.599609375 1449 l 1
 102.599609375 1449 l 1
EndSplineSet
EndChar

StartChar: J
Encoding: 74 74 66
Width: 682
VWidth: 0
Flags: W
HStem: -140 100<78.2998 279.81>
VStem: 365.3 122<44.9202 287>
LayerCount: 2
UndoRedoHistory
Layer: 1
Undoes
EndUndoes
Redoes
EndRedoes
EndUndoRedoHistory
Fore
SplineSet
78.2998046875 -140 m 2
 406.299804688 -140 487.299804688 0 487.299804688 287 c 2
 487.299804688 1449 l 1
 365.299804688 1449 l 1
 365.299804688 255 l 2
 365.299804688 26 294.299804688 -40 78.2998046875 -40 c 2
 6.2998046875 -40 l 1
 6.2998046875 -140 l 1
 78.2998046875 -140 l 2
EndSplineSet
EndChar

StartChar: K
Encoding: 75 75 68
Width: 1189
VWidth: 0
Flags: W
LayerCount: 2
UndoRedoHistory
Layer: 1
Undoes
EndUndoes
Redoes
EndRedoes
EndUndoRedoHistory
Fore
SplineSet
194.400390625 0 m 1
 316.400390625 0 l 1
 316.400390625 655 l 1
 270.400390625 559 l 1
 472.099609375 768 l 1
 410.900390625 770 l 1
 973.400390625 0 l 1
 1119.40039062 0 l 1
 486.5 845 l 1
 486.5 780 l 1
 1089.40039062 1449 l 1
 948.200195312 1449 l 1
 274.400390625 690 l 1
 316.400390625 680 l 1
 316.400390625 1449 l 1
 194.400390625 1449 l 1
 194.400390625 0 l 1
EndSplineSet
EndChar

StartChar: L
Encoding: 76 76 70
Width: 1056
VWidth: 0
Flags: W
LayerCount: 2
UndoRedoHistory
Layer: 1
Undoes
EndUndoes
Redoes
EndRedoes
EndUndoRedoHistory
Fore
SplineSet
194.400390625 0 m 1
 975.251953125 0 l 1
 975.251953125 94 l 1
 259.400390625 94 l 1
 316.400390625 35 l 1
 316.400390625 1449 l 1
 194.400390625 1449 l 1
 194.400390625 0 l 1
EndSplineSet
EndChar

StartChar: Lambda
Encoding: 923 923 72
Width: 1519
VWidth: 0
Flags: HW
LayerCount: 2
UndoRedoHistory
Layer: 1
Undoes
EndUndoes
Redoes
EndRedoes
EndUndoRedoHistory
Fore
SplineSet
164.700195312 0 m 1
 667.5 1450 l 1
 824.099609375 1450 l 1
 1327.29980469 0 l 1
 1164.29980469 0 l 1
 744.900390625 1295 l 1
 332.700195312 0 l 1
 164.700195312 0 l 1
EndSplineSet
EndChar

StartChar: Lslash
Encoding: 321 321 76
Width: 1068
VWidth: 0
Flags: HW
LayerCount: 2
UndoRedoHistory
Layer: 1
Undoes
EndUndoes
Redoes
EndRedoes
EndUndoRedoHistory
Fore
SplineSet
42.2998046875 541 m 1
 42.2998046875 640 l 1
 650.299804688 950 l 1
 650.299804688 852 l 1
 42.2998046875 541 l 1
EndSplineSet
Refer: 70 76 N 1 0 0 1 0 0 2
EndChar

StartChar: M
Encoding: 77 77 77
Width: 1652
VWidth: 0
Flags: W
VStem: 174.6 114<0 865.536> 198.6 104.4<583.464 1417> 279.6 23.4004<1379.2 1417> 1330.8 102<650.044 1417> 1330.8 33<1379.87 1417> 1346.8 112<0 798.956>
LayerCount: 2
UndoRedoHistory
Layer: 1
Undoes
EndUndoes
Redoes
EndRedoes
EndUndoRedoHistory
Fore
SplineSet
174.599609375 0 m 1x80
 288.599609375 0 l 1x80
 303 1070 l 1
 303 1417 l 1x40
 279.599609375 1417 l 1
 762 145 l 1
 872.700195312 145 l 1
 1363.79980469 1417 l 1x28
 1330.79980469 1417 l 1
 1330.79980469 1074 l 1x10
 1346.79980469 0 l 1
 1458.79980469 0 l 1x04
 1432.79980469 1449 l 1
 1266.90039062 1449 l 1
 791.700195312 193 l 1
 844.799804688 193 l 1
 370.5 1449 l 1
 198.599609375 1449 l 1x50
 174.599609375 0 l 1x80
EndSplineSet
EndChar

StartChar: N
Encoding: 78 78 79
Width: 1443
VWidth: 0
Flags: W
LayerCount: 2
UndoRedoHistory
Layer: 1
Undoes
EndUndoes
Redoes
EndRedoes
EndUndoRedoHistory
Fore
SplineSet
194.400390625 0 m 1
 299.400390625 0 l 1
 299.400390625 903 l 1
 286.400390625 1372 l 1
 251.400390625 1350 l 1
 1112.09960938 0 l 1
 1227.09960938 0 l 1
 1227.09960938 1449 l 1
 1123.09960938 1449 l 1
 1123.09960938 532 l 1
 1131.09960938 86 l 1
 1171.09960938 91 l 1
 304.799804688 1449 l 1
 194.400390625 1449 l 1
 194.400390625 0 l 1
EndSplineSet
EndChar

StartChar: O
Encoding: 79 79 85
Width: 1546
VWidth: 0
Flags: W
HStem: -19 96<551.262 982.942> 1372 96<557.103 978.762>
VStem: 128.7 122<414.937 1015.65> 1281.65 122<415.992 1013.31>
LayerCount: 2
UndoRedoHistory
Layer: 1
Undoes
EndUndoes
Redoes
EndRedoes
EndUndoRedoHistory
Fore
SplineSet
767.076171875 77 m 0
 409.776367188 77 250.700195312 342 250.700195312 713 c 0
 250.700195312 1104 423.276367188 1372 768.875976562 1372 c 0
 1115.37597656 1372 1281.65234375 1101 1281.65234375 713 c 0
 1281.65234375 342 1124.37597656 77 767.076171875 77 c 0
768.875976562 -19 m 0
 1179.65234375 -19 1403.65234375 286 1403.65234375 710 c 0
 1403.65234375 1158 1163.65234375 1468 769.776367188 1468 c 0
 363.700195312 1468 128.700195312 1163 128.700195312 713 c 0
 128.700195312 278 350.700195312 -19 768.875976562 -19 c 0
EndSplineSet
EndChar

StartChar: OE
Encoding: 338 338 86
Width: 1841
VWidth: 0
Flags: HW
LayerCount: 2
UndoRedoHistory
Layer: 1
Undoes
EndUndoes
Redoes
EndRedoes
EndUndoRedoHistory
Fore
SplineSet
784.299804688 -26 m 0
 337.900390625 -26 143.099609375 290 143.099609375 769 c 1
 158.099609375 1194 406.299804688 1501 752.799804688 1501 c 0
 892.299804688 1501 1012 1448 1065.09960938 1381 c 1
 1065.09960938 1470 l 1
 1619.09960938 1470 l 1
 1605.09960938 1366 l 1
 1167.09960938 1366 l 1
 1167.09960938 802 l 1
 1564.09960938 802 l 1
 1564.09960938 698 l 1
 1167.09960938 698 l 1
 1167.09960938 106 l 1
 1639.09960938 106 l 1
 1627.09960938 -3 l 1
 1065.09960938 -3 l 1
 1065.09960938 86 l 1
 1054.29980469 45 880.599609375 -26 784.299804688 -26 c 0
787.900390625 76 m 1
 885.099609375 76 1035.40039062 146 1065.09960938 155 c 1
 1065.09960938 1296 l 1
 994 1353 888.700195312 1400 777.099609375 1400 c 0
 468.400390625 1400 274.900390625 1157 264.099609375 774 c 1
 264.099609375 382 385.599609375 82 787.900390625 76 c 1
EndSplineSet
EndChar

StartChar: Omega
Encoding: 937 937 95
Width: 1504
VWidth: 0
Flags: HW
LayerCount: 2
UndoRedoHistory
Layer: 1
Undoes
EndUndoes
Redoes
EndRedoes
EndUndoRedoHistory
Fore
SplineSet
744.900390625 126 m 0
 1050.90039062 126 1193.09960938 374 1193.09960938 714 c 0
 1193.09960938 1067 1045.5 1314 745.799804688 1314 c 0
 446.099609375 1314 295.799804688 1068 295.799804688 714 c 0
 295.799804688 374 438.900390625 126 744.900390625 126 c 0
744.900390625 -21 m 0
 345.299804688 -21 109.799804688 269 109.799804688 715 c 0
 109.799804688 1172 352.5 1462 745.799804688 1462 c 0
 1131.90039062 1462 1381.09960938 1169 1381.09960938 714 c 0
 1381.09960938 275 1140 -21 744.900390625 -21 c 0
EndSplineSet
EndChar

StartChar: Oslash
Encoding: 216 216 97
Width: 1519
VWidth: 0
Flags: W
HStem: -19 96<551.262 982.942> 1372 96<557.103 978.762>
VStem: 128.7 122<414.937 1015.65> 1281.65 122<415.992 1013.31>
LayerCount: 2
UndoRedoHistory
Layer: 1
Undoes
EndUndoes
Redoes
EndRedoes
EndUndoRedoHistory
Fore
SplineSet
451.799804688 -223 m 1
 1107 1639 l 1
 1029.59960938 1671 l 1
 378.900390625 -196 l 1
 451.799804688 -223 l 1
EndSplineSet
Refer: 85 79 N 1 0 0 1 0 0 2
EndChar

StartChar: P
Encoding: 80 80 100
Width: 1158
VWidth: 0
Flags: W
HStem: 715 94<639.276 829.822> 1355 94<641.976 830.031>
VStem: 927.276 122<903.424 1261.19>
LayerCount: 2
UndoRedoHistory
Layer: 1
Undoes
EndUndoes
Redoes
EndRedoes
EndUndoRedoHistory
Fore
SplineSet
194.400390625 0 m 1
 316.400390625 0 l 1
 316.400390625 756 l 1
 259.400390625 715 l 1
 639.276367188 715 l 2
 916.475585938 715 1049.27636719 847 1049.27636719 1101 c 0
 1049.27636719 1349 871.475585938 1449 643.776367188 1449 c 2
 194.400390625 1449 l 1
 194.400390625 0 l 1
645.576171875 809 m 2
 258.400390625 809 l 1
 316.400390625 771 l 1
 316.400390625 1409 l 1
 258.400390625 1355 l 1
 641.975585938 1355 l 2
 808.475585938 1355 927.276367188 1296 927.276367188 1102 c 0
 927.276367188 877 839.076171875 809 645.576171875 809 c 2
EndSplineSet
EndChar

StartChar: Phi
Encoding: 934 934 101
Width: 1614
VWidth: 0
Flags: HW
LayerCount: 2
UndoRedoHistory
Layer: 1
Undoes
EndUndoes
Redoes
EndRedoes
EndUndoRedoHistory
Fore
SplineSet
711.099609375 0 m 1
 711.099609375 167 l 1
 332.200195312 194 121.5 438 121.5 750 c 0
 121.5 1069 347.5 1291 711.099609375 1317 c 1
 711.099609375 1450 l 1
 872.099609375 1450 l 1
 872.099609375 1317 l 1
 1242.90039062 1292 1464.29980469 1069 1464.29980469 750 c 0
 1464.29980469 435 1251.90039062 191 872.099609375 167 c 1
 872.099609375 0 l 1
 711.099609375 0 l 1
711.099609375 299 m 1
 711.099609375 1186 l 1
 433.900390625 1160 293.5 991 293.5 750 c 0
 293.5 517 423.099609375 326 711.099609375 299 c 1
872.099609375 299 m 1
 1165.5 325 1293.29980469 517 1293.29980469 750 c 0
 1293.29980469 992 1152.90039062 1161 872.099609375 1186 c 1
 872.099609375 299 l 1
EndSplineSet
EndChar

StartChar: Pi
Encoding: 928 928 102
Width: 1370
VWidth: 0
Flags: HW
LayerCount: 2
UndoRedoHistory
Layer: 1
Undoes
EndUndoes
Redoes
EndRedoes
EndUndoRedoHistory
Fore
SplineSet
138.599609375 0 m 1
 138.599609375 1450 l 1
 1206.59960938 1450 l 1
 1206.59960938 0 l 1
 1047.59960938 0 l 1
 1047.59960938 1314 l 1
 300.599609375 1314 l 1
 300.599609375 0 l 1
 138.599609375 0 l 1
EndSplineSet
EndChar

StartChar: Q
Encoding: 81 81 103
Width: 1513
VWidth: 0
Flags: HW
LayerCount: 2
UndoRedoHistory
Layer: 1
Undoes
EndUndoes
Redoes
EndRedoes
EndUndoRedoHistory
Fore
SplineSet
1141.20019531 -409 m 1
 1206.83496094 -343 l 1
 1129.5 -260 1006.20019531 -91 959.400390625 21 c 1
 872.099609375 9 l 1
 954 -170 1095.29980469 -351 1141.20019531 -409 c 1
EndSplineSet
Refer: 85 79 N 1 0 0 1 0 0 2
EndChar

StartChar: R
Encoding: 82 82 104
Width: 1313
VWidth: 0
Flags: W
HStem: 722 97<709.7 822.079> 1355 94<744.8 924.373>
VStem: 1010.3 111.601<893.821 1270.66>
LayerCount: 2
UndoRedoHistory
Layer: 1
Undoes
EndUndoes
Redoes
EndRedoes
EndUndoRedoHistory
Fore
SplineSet
194.400390625 0 m 1
 316.400390625 0 l 1
 316.400390625 765 l 1
 259.400390625 722 l 1
 827.599609375 722 l 1
 754.700195312 778 l 1
 867.200195312 505 l 1
 1058.90039062 0 l 1
 1182.90039062 0 l 1
 948.200195312 556 l 1
 856.400390625 805 l 1
 851.900390625 734 l 1
 1031 767 1121.90039062 879 1121.90039062 1094 c 0
 1121.90039062 1319 1013 1449 746.599609375 1449 c 2
 194.400390625 1449 l 1
 194.400390625 0 l 1
316.400390625 776 m 1
 316.400390625 1407 l 1
 257.400390625 1355 l 1
 744.799804688 1355 l 2
 950.900390625 1355 1010.29980469 1259 1010.29980469 1092 c 0
 1010.29980469 892 960.799804688 819 709.700195312 819 c 2
 259.400390625 819 l 1
 316.400390625 776 l 1
EndSplineSet
EndChar

StartChar: S
Encoding: 83 83 109
Width: 1129
VWidth: 0
Flags: W
HStem: -19 96<341.095 768.506> 1372 96<382.089 782.565>
VStem: 151.8 110<959.057 1265.01>
LayerCount: 2
UndoRedoHistory
Layer: 1
Undoes
EndUndoes
Redoes
EndRedoes
EndUndoRedoHistory
Fore
SplineSet
554.299804688 -19 m 0
 788.99609375 -19 992.99609375 76 1008.99609375 367 c 0
 1022.99609375 624 849.99609375 693 667.700195312 770 c 2
 458.900390625 863 l 2
 305.900390625 931 261.799804688 970 261.799804688 1118 c 0
 261.799804688 1315 430.099609375 1372 578.599609375 1372 c 0
 739.700195312 1372 860.99609375 1287 889.99609375 1267 c 1
 945.99609375 1343 l 1
 881.99609375 1398 737 1468 590.299804688 1468 c 0
 391.400390625 1468 151.799804688 1393 151.799804688 1107 c 0
 151.799804688 908 265.400390625 841 433.700195312 767 c 2
 647 674 l 2
 849.99609375 589 908.99609375 532 901.99609375 363 c 1
 891.99609375 156 762.200195312 77 558.799804688 77 c 0
 379.700195312 77 279.799804688 145 184.799804688 219 c 1
 136.799804688 134 l 1
 186.799804688 90 306.799804688 -19 554.299804688 -19 c 0
EndSplineSet
EndChar

StartChar: Sigma
Encoding: 931 931 115
Width: 1130
VWidth: 0
Flags: HW
LayerCount: 2
UndoRedoHistory
Layer: 1
Undoes
EndUndoes
Redoes
EndRedoes
EndUndoRedoHistory
Fore
SplineSet
136.799804688 0 m 1
 136.799804688 1443 l 1
 945.875976562 1443 l 1
 941.875976562 1351 l 1
 232.799804688 1351 l 1
 232.799804688 792 l 1
 867.875976562 792 l 1
 867.875976562 697 l 1
 232.799804688 697 l 1
 232.799804688 92 l 1
 938.875976562 92 l 1
 930.875976562 0 l 1
 136.799804688 0 l 1
EndSplineSet
EndChar

StartChar: T
Encoding: 84 84 116
Width: 1077
VWidth: 0
Flags: W
LayerCount: 2
UndoRedoHistory
Layer: 1
Undoes
EndUndoes
Redoes
EndRedoes
EndUndoRedoHistory
Fore
SplineSet
478.17578125 0 m 1
 600.17578125 0 l 1
 587.975585938 1407 l 1
 549.276367188 1361 l 1
 1021.15234375 1361 l 1
 1021.15234375 1449 l 1
 50.400390625 1449 l 1
 50.400390625 1361 l 1
 516.875976562 1361 l 1
 478.17578125 1405 l 1
 478.17578125 0 l 1
EndSplineSet
EndChar

StartChar: Thorn
Encoding: 222 222 121
Width: 1179
VWidth: 0
Flags: HW
LayerCount: 2
UndoRedoHistory
Layer: 1
Undoes
EndUndoes
Redoes
EndRedoes
EndUndoRedoHistory
Fore
SplineSet
206.099609375 0 m 1
 328.099609375 0 l 1
 328.099609375 500 l 1
 271.099609375 458 l 1
 650.975585938 458 l 2
 939.3515625 458 1073.3515625 590 1073.3515625 844 c 0
 1073.3515625 1092 889.3515625 1192 655.475585938 1192 c 2
 328.099609375 1192 l 1
 328.099609375 1449 l 1
 206.099609375 1449 l 1
 206.099609375 0 l 1
328.099609375 515 m 1
 328.099609375 1152 l 1
 270.099609375 1098 l 1
 648.276367188 1098 l 2
 814.776367188 1098 951.3515625 1039 951.3515625 845 c 0
 951.3515625 620 842.3515625 552 652.776367188 552 c 2
 270.099609375 552 l 1
 328.099609375 515 l 1
EndSplineSet
EndChar

StartChar: U
Encoding: 85 85 122
Width: 1360
VWidth: 0
Flags: W
HStem: -19 96<465.739 875.488>
VStem: 153.9 122<278.107 537> 1067.9 122<286.845 534>
LayerCount: 2
UndoRedoHistory
Layer: 1
Undoes
EndUndoes
Redoes
EndRedoes
EndUndoRedoHistory
Fore
SplineSet
672.799804688 -19 m 0
 1026.5 -19 1189.90039062 225 1189.90039062 534 c 2
 1189.90039062 1449 l 1
 1067.90039062 1449 l 1
 1067.90039062 533 l 2
 1067.90039062 238 937.400390625 77 672.799804688 77 c 0
 393.799804688 77 275.900390625 239 275.900390625 534 c 2
 275.900390625 1449 l 1
 153.900390625 1449 l 1
 153.900390625 537 l 2
 153.900390625 216 314.599609375 -19 672.799804688 -19 c 0
EndSplineSet
EndChar

StartChar: V
Encoding: 86 86 135
Width: 1270
VWidth: 0
Flags: HW
LayerCount: 2
UndoRedoHistory
Layer: 1
Undoes
EndUndoes
Redoes
EndRedoes
EndUndoRedoHistory
Fore
SplineSet
598.776367188 0 m 1
 672.776367188 0 l 1
 1198.45214844 1449 l 1
 1077.45214844 1449 l 1
 747.475585938 487 l 1
 605.776367188 96 l 1
 663.776367188 96 l 1
 523.17578125 482 l 1
 186.799804688 1449 l 1
 64.7998046875 1449 l 1
 598.776367188 0 l 1
EndSplineSet
EndChar

StartChar: W
Encoding: 87 87 136
Width: 1994
VWidth: 0
Flags: W
VStem: 55.7998 113<1403.17 1448> 1816 116<1402.38 1448>
LayerCount: 2
UndoRedoHistory
Layer: 1
Undoes
EndUndoes
Redoes
EndRedoes
EndUndoRedoHistory
Fore
SplineSet
518.799804688 0 m 1
 636.799804688 0 l 1
 1019.29980469 1361 l 1
 974.299804688 1361 l 1
 1355 0 l 1
 1477 0 l 1
 1932 1448 l 1
 1816 1448 l 1
 1396 81 l 1
 1439 81 l 1
 1051.70019531 1407 l 1
 938.299804688 1407 l 1
 557.799804688 79 l 1
 599.799804688 79 l 1
 168.799804688 1448 l 1
 55.7998046875 1448 l 1
 518.799804688 0 l 1
EndSplineSet
EndChar

StartChar: X
Encoding: 88 88 141
Width: 1233
VWidth: 0
Flags: W
LayerCount: 2
UndoRedoHistory
Layer: 1
Undoes
EndUndoes
Redoes
EndRedoes
EndUndoRedoHistory
Fore
SplineSet
134.900390625 0 m 1
 247.900390625 0 l 1
 622.299804688 666 l 1
 667.299804688 696 l 1
 1102.79980469 1449 l 1
 984.099609375 1449 l 1
 616.900390625 780 l 1
 565.599609375 737 l 1
 134.900390625 0 l 1
995.799804688 0 m 1
 1102.79980469 0 l 1
 228.900390625 1449 l 1
 117.900390625 1449 l 1
 995.799804688 0 l 1
EndSplineSet
EndChar

StartChar: Y
Encoding: 89 89 142
Width: 1208
VWidth: 0
Flags: W
VStem: 564.8 43<530 576.342> 638.4 38<536 585.799>
LayerCount: 2
UndoRedoHistory
Layer: 1
Undoes
EndUndoes
Redoes
EndRedoes
EndUndoRedoHistory
Fore
SplineSet
564.799804688 0 m 1
 676.400390625 0 l 1
 676.400390625 668 l 1
 638.400390625 536 l 1
 1146.40039062 1449 l 1
 1032.40039062 1449 l 1
 598.799804688 662 l 1
 643.400390625 662 l 1
 168.799804688 1449 l 1
 55.7998046875 1449 l 1
 607.799804688 530 l 1
 564.799804688 669 l 1
 564.799804688 0 l 1
EndSplineSet
EndChar

StartChar: Z
Encoding: 90 90 147
Width: 1154
VWidth: 0
Flags: W
LayerCount: 2
UndoRedoHistory
Layer: 1
Undoes
EndUndoes
Redoes
EndRedoes
EndUndoRedoHistory
Fore
SplineSet
133.200195312 0 m 1
 1020.95214844 0 l 1
 1031.95214844 94 l 1
 203.200195312 94 l 1
 223.200195312 47 l 1
 1025.95214844 1360 l 1
 1015.95214844 1449 l 1
 177.200195312 1449 l 1
 177.200195312 1355 l 1
 948.952148438 1355 l 1
 919.952148438 1388 l 1
 133.200195312 100 l 1
 133.200195312 0 l 1
EndSplineSet
EndChar

StartChar: a
Encoding: 97 97 152
Width: 1081
VWidth: 0
Flags: W
HStem: -15 92<295.306 613.876> 535 82<354.534 614.976> 983 92<303.164 700.145>
VStem: 109.8 120<143.33 436.516> 791.452 32<300.032 352> 824.452 86<1 127.037>
LayerCount: 2
UndoRedoHistory
Layer: 1
Undoes
EndUndoes
Redoes
EndRedoes
EndUndoRedoHistory
Fore
SplineSet
430.475585938 -15 m 0
 546.576171875 -15 703.452148438 17 835.452148438 212 c 1
 800.452148438 212 l 1
 824.452148438 1 l 1
 910.452148438 1 l 1
 910.452148438 702 l 2
 910.452148438 982 743.452148438 1075 520.475585938 1075 c 0
 411.576171875 1075 264.799804688 1036 178.799804688 988 c 1
 217.799804688 901 l 1
 312.799804688 953 443.076171875 983 540.276367188 983 c 0
 709.452148438 983 791.452148438 886 791.452148438 723 c 2
 791.452148438 582 l 1
 823.452148438 617 l 1
 595.17578125 617 l 2
 257.799804688 617 109.799804688 498 109.799804688 274 c 0
 109.799804688 87 245.799804688 -15 430.475585938 -15 c 0
420.576171875 77 m 0
 331.799804688 77 229.799804688 135 229.799804688 275 c 0
 229.799804688 441 297.799804688 535 614.975585938 535 c 2
 823.452148438 535 l 1
 791.452148438 569 l 1
 791.452148438 236 l 1
 823.452148438 352 l 1
 714.452148438 143 576.276367188 77 420.576171875 77 c 0
EndSplineSet
EndChar

StartChar: acute
Encoding: 180 180 156
Width: 631
VWidth: 0
Flags: W
HStem: 1258 372
LayerCount: 2
UndoRedoHistory
Layer: 1
Undoes
EndUndoes
Redoes
EndRedoes
EndUndoRedoHistory
Fore
SplineSet
78.2998046875 1258 m 1
 146.299804688 1258 l 1
 430.299804688 1630 l 1
 267.299804688 1630 l 1
 78.2998046875 1258 l 1
EndSplineSet
EndChar

StartChar: ae
Encoding: 230 230 158
Width: 1652
VWidth: 0
Flags: W
HStem: -14 99<303.243 623.045 1017.3 1426.58> 518 82<333.931 608.676 865.176 1281.03> 983 92<296.613 683.377 1035.4 1341.71>
VStem: 113.4 119<158.084 438.904> 759.876 105.3<265.624 515 600 784.902> 759.876 74.7002<794 888.186> 1424.98 98<679.591 902.373>
LayerCount: 2
UndoRedoHistory
Layer: 1
Undoes
EndUndoes
Redoes
EndRedoes
EndUndoRedoHistory
Fore
SplineSet
427.776367188 -14 m 0xfa
 581.67578125 -14 766.17578125 70 844.475585938 178 c 1
 914.67578125 52 1031.67578125 -19 1184.67578125 -19 c 0
 1323.27636719 -19 1415.07617188 18 1514.97558594 74 c 1
 1477.97558594 153 l 1
 1361.07617188 92 1292.67578125 75 1199.07617188 75 c 0
 1009.17578125 75 870.576171875 198 861.576171875 515 c 1
 1369.17578125 515 1522.97558594 565 1522.97558594 791 c 0
 1522.97558594 937 1401.57617188 1074 1180.17578125 1074 c 0
 1030.77636719 1074 866.076171875 978 834.576171875 794 c 1xf6
 825.576171875 998 690.576171875 1075 515.076171875 1075 c 0
 406.17578125 1075 257.400390625 1036 171.400390625 988 c 1
 211.400390625 901 l 1
 306.400390625 953 436.776367188 983 533.975585938 983 c 0
 698.67578125 983 759.875976562 886 759.875976562 723 c 2
 759.875976562 600 l 1
 588.875976562 600 l 2
 262.400390625 600 113.400390625 506 113.400390625 296 c 0
 113.400390625 71 263.400390625 -14 427.776367188 -14 c 0xfa
442.17578125 85 m 0
 324.400390625 85 232.400390625 151 232.400390625 308 c 0
 232.400390625 454 314.400390625 518 608.67578125 518 c 2
 759.875976562 518 l 1
 759.875976562 436 772.475585938 339 801.276367188 262 c 1
 720.276367188 159 563.67578125 85 442.17578125 85 c 0
865.17578125 595 m 1xfa
 884.975585938 821 995.67578125 982 1184.67578125 982 c 0
 1345.77636719 982 1424.97558594 884 1424.97558594 781 c 0
 1424.97558594 626 1252.17578125 595 865.17578125 595 c 1xfa
EndSplineSet
EndChar

StartChar: ampersand
Encoding: 38 38 162
Width: 1394
VWidth: 0
Flags: HW
LayerCount: 2
UndoRedoHistory
Layer: 1
Undoes
EndUndoes
Redoes
EndRedoes
EndUndoRedoHistory
Fore
SplineSet
647.375976562 -19 m 0
 848.975585938 -19 904.776367188 18 1019.97558594 114 c 1
 1141.15234375 -20 l 1
 1242.15234375 26 l 1
 1086.15234375 187 l 1
 1156.15234375 257 1247.15234375 399 1282.15234375 485 c 1
 1195.15234375 544 l 1
 1160.15234375 457 1080.15234375 320 1023.57617188 263 c 1
 606.875976562 780 l 1
 797.67578125 872 940.776367188 999 940.776367188 1163 c 0
 940.776367188 1351 837.276367188 1468 645.576171875 1468 c 0
 434.076171875 1468 291.799804688 1338 291.799804688 1164 c 0
 291.799804688 1035 353.799804688 929 470.076171875 802 c 1
 321.799804688 709 172.799804688 575 172.799804688 363 c 0
 172.799804688 144 321.799804688 -19 647.375976562 -19 c 0
658.17578125 77 m 0
 425.076171875 77 292.799804688 194 292.799804688 371 c 0
 292.799804688 527 394.799804688 648 528.576171875 733 c 1
 960.576171875 195 l 1
 864.276367188 110 808.475585938 77 658.17578125 77 c 0
552.875976562 849 m 1
 430.475585938 974 396.799804688 1065 396.799804688 1170 c 0
 396.799804688 1294 518.67578125 1372 645.576171875 1372 c 0
 779.67578125 1372 840.875976562 1299 840.875976562 1170 c 0
 840.875976562 1034 699.576171875 924 552.875976562 849 c 1
EndSplineSet
EndChar

StartChar: approxequal
Encoding: 8776 8776 164
Width: 1183
VWidth: 0
Flags: HW
LayerCount: 2
UndoRedoHistory
Layer: 1
Undoes
EndUndoes
Redoes
EndRedoes
EndUndoRedoHistory
Fore
SplineSet
113.799804688 345 m 1
 133.799804688 547 230 655 371.299804688 655 c 0
 455.900390625 655 528.799804688 605 598.099609375 556 c 1
 665.599609375 510 731.299804688 453 789.799804688 453 c 0
 875.299804688 453 921.200195312 534 927.5 655 c 1
 1023.5 687 l 1
 1004.5 490 961.5 379 794.299804688 379 c 0
 730.400390625 379 652.099609375 413 544.099609375 492 c 1
 481.099609375 540 423.5 577 376.700195312 577 c 0
 280.400390625 577 230 503 204.799804688 379 c 1
 113.799804688 345 l 1
109.799804688 732 m 1
 128.799804688 930 231.799804688 1039 372.200195312 1039 c 0
 449.599609375 1039 509.900390625 1000 599.900390625 933 c 1
 686.299804688 870 734.900390625 838 786.200195312 838 c 0
 871.700195312 838 916.700195312 916 923 1039 c 1
 1020.5 1075 l 1
 1000.5 877 952.5 767 792.5 767 c 0
 723.200195312 767 646.700195312 802 541.400390625 883 c 0
 478.400390625 931 419 965 372.200195312 965 c 0
 275 965 226.400390625 894 204.799804688 771 c 1
 109.799804688 732 l 1
EndSplineSet
EndChar

StartChar: asciicircum
Encoding: 94 94 167
Width: 1263
VWidth: 0
Flags: HW
LayerCount: 2
UndoRedoHistory
Layer: 1
Undoes
EndUndoes
Redoes
EndRedoes
EndUndoRedoHistory
Fore
SplineSet
175.5 606 m 1
 578.975585938 1500 l 1
 645.576171875 1500 l 1
 1069.75195312 606 l 1
 981.751953125 606 l 1
 614.076171875 1398 l 1
 260.5 606 l 1
 175.5 606 l 1
EndSplineSet
EndChar

StartChar: asciitilde
Encoding: 126 126 168
Width: 1143
VWidth: 0
Flags: HW
LayerCount: 2
UndoRedoHistory
Layer: 1
Undoes
EndUndoes
Redoes
EndRedoes
EndUndoRedoHistory
Fore
SplineSet
108.299804688 507 m 1
 87.2998046875 579 l 1
 130.299804688 690 219.299804688 773 338.67578125 773 c 0
 408.875976562 773 449.375976562 753 546.576171875 705 c 1
 636.576171875 663 714.875976562 617 773.452148438 617 c 0
 860.452148438 617 946.452148438 704 967.452148438 786 c 1
 1000.45214844 723 l 1
 952.452148438 590 893.452148438 522 777.452148438 522 c 0
 722.076171875 522 655.475585938 549 585.276367188 584 c 1
 477.276367188 636 401.67578125 675 337.776367188 675 c 0
 247.299804688 675 158.299804688 600 108.299804688 507 c 1
EndSplineSet
EndChar

StartChar: asterisk
Encoding: 42 42 169
Width: 1147
VWidth: 0
Flags: HW
LayerCount: 2
UndoRedoHistory
Layer: 1
Undoes
EndUndoes
Redoes
EndRedoes
EndUndoRedoHistory
Fore
SplineSet
374.400390625 586 m 1
 270.400390625 660 l 1
 508.776367188 1009 l 1
 149.400390625 1096 l 1
 182.400390625 1221 l 1
 535.776367188 1065 l 1
 502.475585938 1487 l 1
 627.576171875 1487 l 1
 592.475585938 1065 l 1
 947.452148438 1221 l 1
 982.452148438 1096 l 1
 615.875976562 1009 l 1
 651.875976562 953 723.875976562 839 862.452148438 660 c 1
 776.452148438 606 842.452148438 641 756.452148438 587 c 1
 559.17578125 970 l 1
 374.400390625 586 l 1
EndSplineSet
EndChar

StartChar: at
Encoding: 64 64 170
Width: 1939
VWidth: 0
Flags: HW
LayerCount: 2
UndoRedoHistory
Layer: 1
Undoes
EndUndoes
Redoes
EndRedoes
EndUndoRedoHistory
Fore
SplineSet
937.400390625 -231 m 0
 1120.09960938 -231 1301.09960938 -183 1438.09960938 -91 c 1
 1399.09960938 -7 l 1
 1258.09960938 -88 1099.40039062 -133 941.900390625 -133 c 0
 556.700195312 -133 287.599609375 120 287.599609375 598 c 0
 287.599609375 1072 590.900390625 1398 1000.40039062 1398 c 0
 1361.5 1398 1630.59960938 1142 1630.59960938 753 c 0
 1630.59960938 502 1565.09960938 292 1394.09960938 292 c 0
 1289.09960938 292 1241.09960938 381 1236.40039062 486 c 0
 1236.40039062 617 1271.5 813 1298.5 1026 c 1
 1216.59960938 1057 1109.29980469 1086 1016.59960938 1086 c 0
 753.799804688 1086 595.400390625 851 595.400390625 565 c 0
 595.400390625 333 709.400390625 197 878 197 c 0
 1040 197 1143.09960938 376 1194.09960938 568 c 1
 1138.09960938 568 l 1
 1149.09960938 315 1226.09960938 212 1397.09960938 212 c 0
 1577.09960938 212 1783.09960938 395 1734.59960938 746 c 0
 1734.59960938 1213 1411.90039062 1500 1002.20019531 1500 c 0
 518.900390625 1500 174.599609375 1117 174.599609375 597 c 0
 174.599609375 76 474.799804688 -231 937.400390625 -231 c 0
890.599609375 294 m 0
 781.700195312 294 712.400390625 368 712.400390625 567 c 0
 712.400390625 784 825.799804688 993 1010.29980469 993 c 0
 1057.09960938 993 1199.5 966 1236.40039062 952 c 1
 1177.09960938 1036 l 1
 1171.09960938 973 1133.59960938 749 1125.5 687 c 1
 1101.20019531 477 1036.40039062 294 890.599609375 294 c 0
EndSplineSet
EndChar

StartChar: b
Encoding: 98 98 172
Width: 1190
VWidth: 0
Flags: W
HStem: -19 92<463.301 787.566> 982 92<461.828 787.482>
VStem: 163.8 125<318.692 789.959> 163.8 94<0 250.084> 943.252 122<258.191 797.076>
LayerCount: 2
UndoRedoHistory
Layer: 1
Undoes
EndUndoes
Redoes
EndRedoes
EndUndoRedoHistory
Fore
SplineSet
621.276367188 -19 m 0xd8
 906.251953125 -19 1065.25195312 193 1065.25195312 520 c 0
 1065.25195312 856 919.251953125 1074 629.375976562 1074 c 0
 465.576171875 1074 320.799804688 958 256.799804688 799 c 1
 288.799804688 799 l 1
 288.799804688 1054 l 1
 288.799804688 1489 l 1xe8
 163.799804688 1479 l 1
 163.799804688 0 l 1
 257.799804688 0 l 1
 275.799804688 314 l 1
 227.799804688 311 l 1
 267.799804688 183 396.799804688 -19 621.276367188 -19 c 0xd8
625.776367188 73 m 0
 422.375976562 73 285.799804688 238 285.799804688 541 c 1
 284.799804688 790 390.799804688 982 633.875976562 982 c 0
 864.251953125 982 943.251953125 775 943.251953125 522 c 0
 943.251953125 257 851.251953125 73 625.776367188 73 c 0
EndSplineSet
EndChar

StartChar: backslash
Encoding: 92 92 173
Width: 925
VWidth: 0
Flags: HW
LayerCount: 2
UndoRedoHistory
Layer: 1
Undoes
EndUndoes
Redoes
EndRedoes
EndUndoRedoHistory
Fore
SplineSet
683.3515625 -60 m 1
 122.400390625 1449 l 1
 205.400390625 1449 l 1
 767.3515625 -60 l 1
 683.3515625 -60 l 1
EndSplineSet
EndChar

StartChar: bar
Encoding: 124 124 174
Width: 215
VWidth: 0
Flags: HW
LayerCount: 2
UndoRedoHistory
Layer: 1
Undoes
EndUndoes
Redoes
EndRedoes
EndUndoRedoHistory
Fore
SplineSet
56.7001953125 -408 m 1
 56.7001953125 1559 l 1
 142.700195312 1559 l 1
 142.700195312 -408 l 1
 56.7001953125 -408 l 1
EndSplineSet
EndChar

StartChar: braceleft
Encoding: 123 123 175
Width: 786
VWidth: 0
Flags: HW
LayerCount: 2
UndoRedoHistory
Layer: 1
Undoes
EndUndoes
Redoes
EndRedoes
EndUndoRedoHistory
Fore
SplineSet
612.5 -281 m 1
 393.5 -281 325.5 -139 325.5 77 c 2
 325.5 232 l 2
 325.5 415 312.5 566 112.5 569 c 1
 112.5 653 l 1
 306.5 653 325.5 810 325.5 989 c 2
 325.5 1199 l 2
 325.5 1382 422.5 1509 612.5 1510 c 1
 612.5 1426 l 1
 466.5 1424 410.5 1355 410.5 1162 c 2
 410.5 903 l 2
 410.5 743 367.5 657 230.5 606 c 1
 369.5 567 410.5 490 410.5 323 c 2
 410.5 65 l 2
 410.5 -120 463.5 -199 612.5 -201 c 1
 612.5 -281 l 1
EndSplineSet
EndChar

StartChar: braceright
Encoding: 125 125 176
Width: 786
VWidth: 0
Flags: HW
LayerCount: 2
UndoRedoHistory
Layer: 1
Undoes
EndUndoes
Redoes
EndRedoes
EndUndoRedoHistory
Fore
SplineSet
112.5 -281 m 1
 112.5 -198 l 1
 258.5 -196 314.5 -127 314.5 66 c 2
 314.5 325 l 2
 314.5 445 346.5 553 494.5 623 c 1
 355.5 662 314.5 798 314.5 905 c 2
 314.5 1163 l 2
 314.5 1348 261.5 1428 112.5 1430 c 1
 112.5 1510 l 1
 331.5 1510 399.5 1367 399.5 1151 c 2
 399.5 996 l 2
 399.5 813 412.5 662 612.5 659 c 1
 612.5 576 l 1
 418.5 576 399.5 419 399.5 240 c 2
 399.5 29 l 2
 399.5 -154 302.5 -280 112.5 -281 c 1
EndSplineSet
EndChar

StartChar: bracketleft
Encoding: 91 91 177
Width: 637
VWidth: 0
Flags: HW
LayerCount: 2
UndoRedoHistory
Layer: 1
Undoes
EndUndoes
Redoes
EndRedoes
EndUndoRedoHistory
Fore
SplineSet
165.599609375 -307 m 1
 165.599609375 1449 l 1
 592.599609375 1449 l 1
 592.599609375 1361 l 1
 265.599609375 1361 l 1
 265.599609375 -221 l 1
 592.599609375 -221 l 1
 592.599609375 -307 l 1
 165.599609375 -307 l 1
EndSplineSet
EndChar

StartChar: bracketright
Encoding: 93 93 178
Width: 625
VWidth: 0
Flags: HW
LayerCount: 2
UndoRedoHistory
Layer: 1
Undoes
EndUndoes
Redoes
EndRedoes
EndUndoRedoHistory
Fore
SplineSet
33.2998046875 -307 m 1
 33.2998046875 -221 l 1
 361.299804688 -221 l 1
 361.299804688 1361 l 1
 33.2998046875 1361 l 1
 33.2998046875 1449 l 1
 459.299804688 1449 l 1
 459.299804688 -307 l 1
 33.2998046875 -307 l 1
EndSplineSet
EndChar

StartChar: breve
Encoding: 728 728 179
Width: 766
VWidth: 0
Flags: W
HStem: 1321 69<280.949 463.923>
VStem: 161.1 71<1440.39 1544> 515.1 69<1440.81 1544>
LayerCount: 2
UndoRedoHistory
Layer: 1
Undoes
EndUndoes
Redoes
EndRedoes
EndUndoRedoHistory
Fore
SplineSet
370.099609375 1321 m 0
 480.099609375 1321 584.099609375 1382 584.099609375 1544 c 1
 515.099609375 1544 l 1
 515.099609375 1433 434.099609375 1390 370.099609375 1390 c 0
 306.099609375 1390 232.099609375 1433 232.099609375 1544 c 1
 161.099609375 1544 l 1
 161.099609375 1381 261.099609375 1321 370.099609375 1321 c 0
EndSplineSet
EndChar

StartChar: brokenbar
Encoding: 166 166 180
Width: 165
VWidth: 0
Flags: HW
LayerCount: 2
UndoRedoHistory
Layer: 1
Undoes
EndUndoes
Redoes
EndRedoes
EndUndoRedoHistory
Fore
SplineSet
33.2998046875 -165 m 1
 33.2998046875 509 l 1
 120.299804688 509 l 1
 120.299804688 -165 l 1
 33.2998046875 -165 l 1
33.2998046875 778 m 1
 33.2998046875 1449 l 1
 120.299804688 1449 l 1
 120.299804688 778 l 1
 33.2998046875 778 l 1
EndSplineSet
EndChar

StartChar: bullet
Encoding: 8226 8226 181
Width: 803
VWidth: 0
Flags: HW
LayerCount: 2
UndoRedoHistory
Layer: 1
Undoes
EndUndoes
Redoes
EndRedoes
EndUndoRedoHistory
Fore
SplineSet
392.700195312 444 m 0
 241.700195312 444 92.7001953125 548 92.7001953125 760 c 0
 92.7001953125 975 245.700195312 1083 398.700195312 1083 c 0
 550.700195312 1083 701.700195312 977 701.700195312 764 c 0
 701.700195312 551 545.700195312 444 392.700195312 444 c 0
EndSplineSet
EndChar

StartChar: c
Encoding: 99 99 182
Width: 947
VWidth: 0
Flags: W
HStem: -19 92<421.282 794.814> 982 92<425.671 782.268>
VStem: 108.9 120<293.666 754.25>
LayerCount: 2
UndoRedoHistory
Layer: 1
Undoes
EndUndoes
Redoes
EndRedoes
EndUndoRedoHistory
Fore
SplineSet
576.276367188 -19 m 0
 692.8515625 -19 803.8515625 16 843.8515625 49 c 1
 813.8515625 127 l 1
 768.8515625 101 677.8515625 73 591.576171875 73 c 0
 346.900390625 73 228.900390625 284 228.900390625 517 c 0
 228.900390625 791 377.375976562 982 587.076171875 982 c 0
 719.8515625 982 803.8515625 926 803.8515625 926 c 1
 843.8515625 1008 l 1
 843.8515625 1008 745.8515625 1074 576.276367188 1074 c 0
 313.900390625 1074 108.900390625 839 108.900390625 517 c 0
 108.900390625 218 299.900390625 -19 576.276367188 -19 c 0
EndSplineSet
EndChar

StartChar: caron
Encoding: 711 711 184
Width: 797
VWidth: 0
Flags: HW
LayerCount: 2
UndoRedoHistory
Layer: 1
Undoes
EndUndoes
Redoes
EndRedoes
EndUndoRedoHistory
Fore
SplineSet
276.200195312 1283 m 1
 455.200195312 1283 l 1
 607.200195312 1650 l 1
 529.200195312 1650 l 1
 367.200195312 1346 l 1
 219.200195312 1650 l 1
 142.200195312 1650 l 1
 276.200195312 1283 l 1
EndSplineSet
EndChar

StartChar: cedilla
Encoding: 184 184 189
Width: 570
VWidth: 0
Flags: W
HStem: -377 381
LayerCount: 2
UndoRedoHistory
Layer: 1
Undoes
EndUndoes
Redoes
EndRedoes
EndUndoRedoHistory
Fore
SplineSet
142.200195312 -377 m 1
 237.200195312 -377 l 1
 268.200195312 4 l 1
 215.200195312 4 l 1
 142.200195312 -377 l 1
EndSplineSet
EndChar

StartChar: cent
Encoding: 162 162 190
Width: 964
VWidth: 0
Flags: HW
LayerCount: 2
UndoRedoHistory
Layer: 1
Undoes
EndUndoes
Redoes
EndRedoes
EndUndoRedoHistory
Fore
SplineSet
496.799804688 -156 m 1
 575.799804688 -156 l 1
 575.799804688 1237 l 1
 496.799804688 1237 l 1
 496.799804688 -156 l 1
EndSplineSet
Refer: 182 99 N 1 0 0 1 0 0 2
EndChar

StartChar: chi
Encoding: 967 967 191
Width: 1240
VWidth: 0
Flags: HW
LayerCount: 2
UndoRedoHistory
Layer: 1
Undoes
EndUndoes
Redoes
EndRedoes
EndUndoRedoHistory
Fore
SplineSet
162 0 m 1
 276 0 l 1
 587.400390625 453 l 1
 902.400390625 0 l 1
 1017.40039062 0 l 1
 635.099609375 531 l 1
 1010.40039062 1054 l 1
 880.799804688 1054 l 1
 585.599609375 621 l 1
 286.799804688 1054 l 1
 175 1054 l 1
 535.200195312 535 l 1
 162 0 l 1
EndSplineSet
EndChar

StartChar: circumflex
Encoding: 710 710 192
Width: 797
VWidth: 0
Flags: HW
LayerCount: 2
UndoRedoHistory
Layer: 1
Undoes
EndUndoes
Redoes
EndRedoes
EndUndoRedoHistory
Fore
SplineSet
142.200195312 1283 m 1
 220.200195312 1283 l 1
 382.200195312 1587 l 1
 530.200195312 1283 l 1
 607.200195312 1283 l 1
 473.200195312 1650 l 1
 294.200195312 1650 l 1
 142.200195312 1283 l 1
EndSplineSet
EndChar

StartChar: colon
Encoding: 58 58 193
Width: 474
VWidth: 0
Flags: HW
LayerCount: 2
UndoRedoHistory
Layer: 1
Undoes
EndUndoes
Redoes
EndRedoes
EndUndoRedoHistory
Fore
SplineSet
151.200195312 0 m 1
 295.200195312 0 l 1
 295.200195312 172 l 1
 151.200195312 172 l 1
 151.200195312 0 l 1
151.200195312 878 m 1
 295.200195312 878 l 1
 295.200195312 1055 l 1
 151.200195312 1055 l 1
 151.200195312 878 l 1
EndSplineSet
EndChar

StartChar: comma
Encoding: 44 44 194
Width: 444
VWidth: 0
Flags: HW
LayerCount: 2
UndoRedoHistory
Layer: 1
Undoes
EndUndoes
Redoes
EndRedoes
EndUndoRedoHistory
Fore
SplineSet
133.200195312 -285 m 1
 192.200195312 -285 l 1
 192.200195312 -285 281.200195312 132 281.200195312 173 c 2
 281.200195312 205 l 1
 151.200195312 205 l 1
 151.200195312 101 133.200195312 -285 133.200195312 -285 c 1
EndSplineSet
EndChar

StartChar: copyright
Encoding: 169 169 195
Width: 1755
VWidth: 0
Flags: HW
LayerCount: 2
UndoRedoHistory
Layer: 1
Undoes
EndUndoes
Redoes
EndRedoes
EndUndoRedoHistory
Fore
SplineSet
904.700195312 229 m 0
 991.099609375 229 1080.20019531 257 1164.79980469 317 c 1
 1139.59960938 392 l 1
 1053.20019531 333 981.200195312 315 903.799804688 315 c 0
 708.5 315 544.700195312 482 544.700195312 763 c 0
 544.700195312 1012 708.5 1191 895.700195312 1191 c 0
 964.099609375 1191 1055.90039062 1164 1126.09960938 1100 c 1
 1161.20019531 1180 l 1
 1074.79980469 1247 982.099609375 1278 893.900390625 1278 c 0
 655.400390625 1278 433.700195312 1057 433.700195312 755 c 0
 433.700195312 447 660.799804688 229 904.700195312 229 c 0
874.099609375 36 m 0
 569 36 234.799804688 261 234.799804688 756 c 0
 234.799804688 1251 569 1477 874.099609375 1477 c 0
 1179.20019531 1477 1505.90039062 1250 1505.90039062 756 c 0
 1505.90039062 262 1179.20019531 36 874.099609375 36 c 0
874.099609375 -40 m 0
 1221.5 -40 1603.90039062 210 1603.90039062 756 c 0
 1603.90039062 1302 1221.5 1554 874.099609375 1554 c 0
 524.700195312 1554 136.799804688 1302 136.799804688 756 c 0
 136.799804688 210 524.700195312 -40 874.099609375 -40 c 0
EndSplineSet
EndChar

StartChar: currency
Encoding: 164 164 196
Width: 1307
VWidth: 0
Flags: HW
LayerCount: 2
UndoRedoHistory
Layer: 1
Undoes
EndUndoes
Redoes
EndRedoes
EndUndoRedoHistory
Fore
SplineSet
1059.29980469 227 m 1
 1102.29980469 276 l 1
 923.599609375 453 l 1
 979.299804688 523 1007.29980469 609 1007.29980469 706 c 0
 1007.29980469 795 980.299804688 882 922.700195312 960 c 1
 1103.29980469 1134 l 1
 1059.29980469 1184 l 1
 881.299804688 1011 l 1
 815.599609375 1074 731 1110 638.299804688 1110 c 0
 545.599609375 1110 461 1077 393.5 1012 c 1
 216.299804688 1184 l 1
 168.299804688 1137 l 1
 353 960 l 1
 296.299804688 888 267.299804688 799 267.299804688 706 c 0
 267.299804688 612 295.299804688 527 353 453 c 1
 169.299804688 278 l 1
 216.299804688 228 l 1
 394.400390625 401 l 1
 461 337 544.700195312 304 638.299804688 304 c 0
 731.900390625 304 814.700195312 337 881.299804688 400 c 1
 1059.29980469 227 l 1
638.299804688 367 m 0
 450.200195312 367 341.299804688 524 341.299804688 706 c 0
 341.299804688 888 450.200195312 1046 638.299804688 1046 c 0
 826.400390625 1046 935.299804688 887 935.299804688 706 c 0
 935.299804688 525 827.299804688 367 638.299804688 367 c 0
EndSplineSet
EndChar

StartChar: d
Encoding: 100 100 197
Width: 1153
VWidth: 0
Flags: W
HStem: -19 92<384.07 698.306> 982 92<386.145 694.501>
VStem: 108.9 122<257.221 789.909> 856.4 122<127.645 761> 880.4 98<0 284.032>
LayerCount: 2
UndoRedoHistory
Layer: 1
Undoes
EndUndoes
Redoes
EndRedoes
EndUndoRedoHistory
Fore
SplineSet
536.900390625 -19 m 0xf0
 748.400390625 -19 849.200195312 143 900.400390625 312 c 1
 864.400390625 317 l 1
 880.400390625 0 l 1
 978.400390625 0 l 1
 978.400390625 1489 l 1xe8
 856.400390625 1479 l 1
 856.400390625 1142 l 1
 868.400390625 761 l 1
 899.400390625 766 l 1
 836.599609375 920 762.799804688 1074 533.299804688 1074 c 0
 275 1074 108.900390625 853 108.900390625 534 c 0
 108.900390625 198 260.599609375 -19 536.900390625 -19 c 0xf0
532.400390625 73 m 0
 309.200195312 73 230.900390625 279 230.900390625 532 c 0
 230.900390625 797 320 982 539.599609375 982 c 0
 740.299804688 982 859.400390625 806 859.400390625 516 c 0
 859.400390625 267 770 73 532.400390625 73 c 0
EndSplineSet
EndChar

StartChar: dagger
Encoding: 8224 8224 198
Width: 918
VWidth: 0
Flags: HW
LayerCount: 2
UndoRedoHistory
Layer: 1
Undoes
EndUndoes
Redoes
EndRedoes
EndUndoRedoHistory
Fore
SplineSet
407.299804688 123 m 1
 480.299804688 123 l 1
 480.299804688 995 l 1
 759.299804688 995 l 1
 759.299804688 1055 l 1
 474.299804688 1055 l 1
 474.299804688 1449 l 1
 407.299804688 1449 l 1
 407.299804688 1055 l 1
 123.299804688 1055 l 1
 123.299804688 995 l 1
 407.299804688 995 l 1
 407.299804688 123 l 1
EndSplineSet
EndChar

StartChar: daggerdbl
Encoding: 8225 8225 199
Width: 1000
VWidth: 0
Flags: HW
LayerCount: 2
UndoRedoHistory
Layer: 1
Undoes
EndUndoes
Redoes
EndRedoes
EndUndoRedoHistory
Fore
SplineSet
759.299804688 482 m 1
 759.299804688 541 l 1
 480.299804688 541 l 1
 480.299804688 995 l 1
 759.299804688 995 l 1
 759.299804688 1055 l 1
 474.299804688 1055 l 1
 474.299804688 1449 l 1
 407.299804688 1449 l 1
 407.299804688 1055 l 1
 123.299804688 1055 l 1
 123.299804688 995 l 1
 407.299804688 995 l 1
 407.299804688 541 l 1
 123.299804688 541 l 1
 123.299804688 482 l 1
 407.299804688 482 l 1
 407.299804688 123 l 1
 480.299804688 123 l 1
 480.299804688 482 l 1
 759.299804688 482 l 1
EndSplineSet
EndChar

StartChar: dcroat
Encoding: 273 273 201
Width: 1171
VWidth: 0
Flags: HW
LayerCount: 2
UndoRedoHistory
Layer: 1
Undoes
EndUndoes
Redoes
EndRedoes
EndUndoRedoHistory
Fore
SplineSet
123.299804688 1196 m 1
 123.299804688 1305 l 1
 578.190429688 1305 l 1
 578.190429688 1196 l 1
 123.299804688 1196 l 1
EndSplineSet
Refer: 197 100 N 1 0 0 1 0 0 2
EndChar

StartChar: degree
Encoding: 176 176 202
Width: 823
VWidth: 0
Flags: HW
LayerCount: 2
UndoRedoHistory
Layer: 1
Undoes
EndUndoes
Redoes
EndRedoes
EndUndoRedoHistory
Fore
SplineSet
405 991 m 0
 285 991 193 1079 193 1202 c 0
 193 1325 287 1413 405 1413 c 0
 526 1413 619 1325 619 1202 c 0
 619 1081 526 991 405 991 c 0
404 916 m 0
 554 916 704 1032 704 1202 c 0
 704 1377 551 1488 404 1488 c 0
 262 1488 108 1377 108 1202 c 0
 108 1023 264 916 404 916 c 0
EndSplineSet
EndChar

StartChar: dieresis
Encoding: 168 168 203
Width: 751
VWidth: 0
Flags: W
HStem: 1267 139
LayerCount: 2
UndoRedoHistory
Layer: 1
Undoes
EndUndoes
Redoes
EndRedoes
EndUndoRedoHistory
Fore
SplineSet
135 1267 m 1
 243 1267 l 1
 243 1406 l 1
 135 1406 l 1
 135 1267 l 1
498 1267 m 1
 607 1267 l 1
 607 1406 l 1
 498 1406 l 1
 498 1267 l 1
EndSplineSet
EndChar

StartChar: divide
Encoding: 247 247 204
Width: 1014
VWidth: 0
Flags: HW
LayerCount: 2
UndoRedoHistory
Layer: 1
Undoes
EndUndoes
Redoes
EndRedoes
EndUndoRedoHistory
Fore
SplineSet
425.076171875 37 m 1
 564.576171875 37 l 1
 564.576171875 207 l 1
 425.076171875 207 l 1
 425.076171875 37 l 1
58.5 507 m 1
 929.3515625 507 l 1
 929.3515625 617 l 1
 58.5 617 l 1
 58.5 507 l 1
425.076171875 886 m 1
 564.576171875 886 l 1
 564.576171875 1055 l 1
 425.076171875 1055 l 1
 425.076171875 886 l 1
EndSplineSet
EndChar

StartChar: dollar
Encoding: 36 36 205
Width: 1176
VWidth: 0
Flags: HW
LayerCount: 2
UndoRedoHistory
Layer: 1
Undoes
EndUndoes
Redoes
EndRedoes
EndUndoRedoHistory
Fore
SplineSet
550.17578125 -19 m 1
 308.400390625 -14 189.400390625 91 140.400390625 134 c 1
 188.400390625 219 l 1
 285.400390625 145 395.375976562 77 574.475585938 77 c 0
 777.875976562 77 907.672851562 156 917.672851562 363 c 1
 924.672851562 532 865.672851562 589 662.67578125 674 c 2
 449.375976562 767 l 2
 269.400390625 841 145.400390625 925 155.400390625 1117 c 0
 169.400390625 1376 366.400390625 1454 550.17578125 1466 c 1
 550.17578125 1716 l 1
 620.375976562 1716 l 1
 622.17578125 1468 l 1
 762.576171875 1463 899.672851562 1396 961.672851562 1343 c 1
 905.672851562 1267 l 1
 876.672851562 1287 755.375976562 1372 594.276367188 1372 c 0
 445.776367188 1372 278.400390625 1319 269.400390625 1122 c 0
 263.400390625 980 318.400390625 930 478.17578125 862 c 2
 683.375976562 770 l 2
 865.672851562 692 1038.67285156 624 1024.67285156 367 c 0
 1009.67285156 98 833.672851562 -4 621.276367188 -18 c 1
 622.17578125 -276 l 1
 550.17578125 -276 l 1
 550.17578125 -19 l 1
EndSplineSet
EndChar

StartChar: dotaccent
Encoding: 729 729 206
Width: 309
VWidth: 0
Flags: HW
LayerCount: 2
UndoRedoHistory
Layer: 1
Undoes
EndUndoes
Redoes
EndRedoes
EndUndoRedoHistory
Fore
SplineSet
90 1300 m 1
 217 1300 l 1
 217 1449 l 1
 90 1449 l 1
 90 1300 l 1
EndSplineSet
EndChar

StartChar: dotlessi
Encoding: 305 305 207
Width: 373
VWidth: 0
Flags: W
VStem: 140.4 90
LayerCount: 2
UndoRedoHistory
Layer: 1
Undoes
EndUndoes
Redoes
EndRedoes
EndUndoRedoHistory
Fore
SplineSet
140.400390625 0 m 1
 230.400390625 0 l 1
 230.400390625 1055 l 1
 140.400390625 1055 l 1
 140.400390625 0 l 1
EndSplineSet
EndChar

StartChar: e
Encoding: 101 101 208
Width: 1081
VWidth: 0
Flags: W
HStem: -19 94<417.907 824.346> 982 92<420.116 727.212>
LayerCount: 2
UndoRedoHistory
Layer: 1
Undoes
EndUndoes
Redoes
EndRedoes
EndUndoRedoHistory
Fore
SplineSet
578.076171875 -19 m 0
 716.952148438 -19 834.952148438 18 935.952148438 74 c 1
 899.952148438 153 l 1
 775.952148438 92 686.076171875 75 592.475585938 75 c 0
 397.17578125 75 224.900390625 208 224.900390625 547 c 1
 183.900390625 517 l 1
 953.952148438 517 l 1
 953.952148438 517 959.952148438 557 959.952148438 588 c 0
 959.952148438 884 813.952148438 1074 572.67578125 1074 c 0
 336.900390625 1074 108.900390625 869 108.900390625 519 c 0
 108.900390625 183 314.900390625 -19 578.076171875 -19 c 0
227.900390625 564 m 1
 239.900390625 807 380.076171875 982 578.076171875 982 c 0
 770.952148438 982 857.952148438 832 857.952148438 554 c 1
 908.952148438 597 l 1
 183.900390625 597 l 1
 227.900390625 564 l 1
EndSplineSet
EndChar

StartChar: eight
Encoding: 56 56 216
Width: 1113
VWidth: 0
Flags: HW
LayerCount: 2
UndoRedoHistory
Layer: 1
Undoes
EndUndoes
Redoes
EndRedoes
EndUndoRedoHistory
Fore
SplineSet
549.599609375 -19 m 0
 780.900390625 -19 972.700195312 102 972.700195312 352 c 0
 972.700195312 544 847.5 701 661.200195312 756 c 1
 824.099609375 811 938.700195312 927 938.700195312 1113 c 0
 938.700195312 1333 781.799804688 1468 550.5 1468 c 0
 317.400390625 1468 158.900390625 1333 158.900390625 1113 c 0
 158.900390625 929 283.200195312 799 437.099609375 753 c 1
 242.700195312 687 126.900390625 564 126.900390625 352 c 0
 126.900390625 101 321 -19 549.599609375 -19 c 0
549.599609375 77 m 0
 340.799804688 77 231.900390625 177 231.900390625 365 c 0
 231.900390625 555 370.5 660 549.599609375 700 c 1
 730.5 660 863.700195312 546 863.700195312 365 c 0
 863.700195312 167 765.599609375 77 549.599609375 77 c 0
549.599609375 798 m 1
 366 842 273.299804688 953 273.299804688 1119 c 0
 273.299804688 1276 384 1372 549.599609375 1372 c 0
 717 1372 823.200195312 1276 823.200195312 1119 c 0
 823.200195312 953 735.900390625 842 549.599609375 798 c 1
EndSplineSet
EndChar

StartChar: ellipsis
Encoding: 8230 8230 217
Width: 1392
VWidth: 0
Flags: HW
LayerCount: 2
UndoRedoHistory
Layer: 1
Undoes
EndUndoes
Redoes
EndRedoes
EndUndoRedoHistory
Fore
SplineSet
232.599609375 -12 m 0
 146.599609375 -12 102.599609375 53 102.599609375 117 c 0
 102.599609375 181 145.599609375 245 232.599609375 245 c 0
 319.599609375 245 361.599609375 181 361.599609375 117 c 0
 361.599609375 53 319.599609375 -12 232.599609375 -12 c 0
691.299804688 -12 m 0
 605.299804688 -12 562.299804688 53 562.299804688 117 c 0
 562.299804688 181 604.299804688 245 691.299804688 245 c 0
 778.299804688 245 821.299804688 181 821.299804688 117 c 0
 821.299804688 53 778.299804688 -12 691.299804688 -12 c 0
1150.20019531 -12 m 0
 1064.20019531 -12 1020.20019531 53 1020.20019531 117 c 0
 1020.20019531 181 1063.20019531 245 1150.20019531 245 c 0
 1237.20019531 245 1280.20019531 181 1280.20019531 117 c 0
 1280.20019531 53 1237.20019531 -12 1150.20019531 -12 c 0
EndSplineSet
EndChar

StartChar: emdash
Encoding: 8212 8212 219
Width: 2366
VWidth: 0
Flags: HW
LayerCount: 2
UndoRedoHistory
Layer: 1
Undoes
EndUndoes
Redoes
EndRedoes
EndUndoRedoHistory
Fore
SplineSet
162 556 m 1
 2170.45214844 556 l 1
 2170.45214844 664 l 1
 162 664 l 1
 162 556 l 1
EndSplineSet
EndChar

StartChar: endash
Encoding: 8211 8211 220
Width: 1223
VWidth: 0
Flags: HW
LayerCount: 2
UndoRedoHistory
Layer: 1
Undoes
EndUndoes
Redoes
EndRedoes
EndUndoRedoHistory
Fore
SplineSet
123.299804688 556 m 1
 1062.55175781 556 l 1
 1062.55175781 664 l 1
 123.299804688 664 l 1
 123.299804688 556 l 1
EndSplineSet
EndChar

StartChar: eng
Encoding: 331 331 221
Width: 1136
VWidth: 0
Flags: HW
LayerCount: 2
UndoRedoHistory
Layer: 1
Undoes
EndUndoes
Redoes
EndRedoes
EndUndoRedoHistory
Fore
SplineSet
584.599609375 -254 m 1
 645.799804688 -254 l 2
 880.900390625 -254 910.900390625 -107 910.900390625 184 c 2
 910.900390625 636 l 2
 910.900390625 935 813.900390625 1075 593.599609375 1075 c 0
 455 1075 353.299804688 1019 289.400390625 882 c 1
 273.900390625 1055 l 1
 162.900390625 1055 l 1
 162.900390625 0 l 1
 284.900390625 0 l 1
 284.900390625 620 l 2
 284.900390625 650 287.599609375 679 287.599609375 715 c 1
 312.799804688 866 381.200195312 983 583.700195312 983 c 0
 751.099609375 983 788.900390625 862 788.900390625 674 c 2
 788.900390625 131 l 2
 788.900390625 -100 772.700195312 -127 606.200195312 -127 c 2
 584.599609375 -127 l 1
 584.599609375 -254 l 1
EndSplineSet
EndChar

StartChar: equal
Encoding: 61 61 223
Width: 1183
VWidth: 0
Flags: HW
LayerCount: 2
UndoRedoHistory
Layer: 1
Undoes
EndUndoes
Redoes
EndRedoes
EndUndoRedoHistory
Fore
SplineSet
151.400390625 379 m 1
 151.400390625 473 l 1
 1017.55175781 473 l 1
 1017.55175781 379 l 1
 151.400390625 379 l 1
149.400390625 811 m 1
 149.400390625 902 l 1
 1017.55175781 902 l 1
 1017.55175781 811 l 1
 149.400390625 811 l 1
EndSplineSet
EndChar

StartChar: eth
Encoding: 240 240 224
Width: 1224
VWidth: 0
Flags: HW
LayerCount: 2
UndoRedoHistory
Layer: 1
Undoes
EndUndoes
Redoes
EndRedoes
EndUndoRedoHistory
Fore
SplineSet
592.700195312 -29 m 0
 900.5 -29 1043.90039062 209 1043.90039062 487 c 0
 1043.90039062 619 1012.90039062 763 965.900390625 860 c 0
 906.799804688 987 818.599609375 1122 612.5 1360 c 1
 862.700195312 1461 l 1
 824.900390625 1537 l 1
 554 1423 l 1
 395.599609375 1594 l 1
 274.099609375 1594 l 1
 476.599609375 1391 l 1
 252.200195312 1297 l 1
 289.400390625 1220 l 1
 527 1320 l 1
 748.400390625 1085 837.5 941 890.599609375 822 c 1
 826.700195312 882 764.599609375 963 590 963 c 0
 338.900390625 963 142.200195312 768 142.200195312 479 c 0
 142.200195312 224 293 -29 592.700195312 -29 c 0
598.099609375 59 m 0
 367.700195312 59 264.200195312 273 264.200195312 477 c 0
 264.200195312 697 385.700195312 871 591.799804688 871 c 0
 813.200195312 871 932.900390625 678 932.900390625 492 c 0
 932.900390625 232 822.200195312 59 598.099609375 59 c 0
EndSplineSet
EndChar

StartChar: exclam
Encoding: 33 33 225
Width: 519
VWidth: 0
Flags: W
HStem: -15 195<167.838 340.423>
VStem: 154.8 198<-2.58264 167.795> 172.8 147<1131.03 1392>
LayerCount: 2
UndoRedoHistory
Layer: 1
Undoes
EndUndoes
Redoes
EndRedoes
EndUndoRedoHistory
Fore
SplineSet
252.799804688 -15 m 0xc0
 329.799804688 -15 352.799804688 36 352.799804688 83 c 0
 352.799804688 128 329.799804688 180 252.799804688 180 c 0
 176.799804688 180 154.799804688 128 154.799804688 83 c 0
 154.799804688 38 176.799804688 -15 252.799804688 -15 c 0xc0
226.799804688 409 m 1
 270.799804688 409 l 1
 319.799804688 1392 l 1
 319.799804688 1474 l 1
 172.799804688 1474 l 1
 172.799804688 1392 l 1xa0
 226.799804688 409 l 1
EndSplineSet
EndChar

StartChar: f
Encoding: 102 102 227
Width: 736
VWidth: 0
Flags: W
HStem: 983 55<74.2998 250.633> 1395 87<447.052 690.302>
VStem: 278.3 122<1135 1349.18>
LayerCount: 2
UndoRedoHistory
Layer: 1
Undoes
EndUndoes
Redoes
EndRedoes
EndUndoRedoHistory
Fore
SplineSet
278.299804688 0 m 1
 400.299804688 0 l 1
 400.299804688 1013 l 1
 357.299804688 983 l 1
 652.299804688 983 l 1
 652.299804688 1055 l 1
 359.299804688 1055 l 1
 400.299804688 1030 l 1
 400.299804688 1140 l 2
 400.299804688 1369 467.299804688 1395 574.299804688 1395 c 0
 621.299804688 1395 688.299804688 1385 688.299804688 1385 c 1
 695.299804688 1467 l 1
 695.299804688 1467 630.299804688 1482 551.299804688 1482 c 0
 374.299804688 1482 278.299804688 1388 278.299804688 1135 c 2
 278.299804688 1030 l 1
 320.299804688 1058 l 1
 74.2998046875 1038 l 1
 69.2998046875 983 l 1
 310.299804688 983 l 1
 278.299804688 1015 l 1
 278.299804688 0 l 1
EndSplineSet
EndChar

StartChar: five
Encoding: 53 53 228
Width: 1130
VWidth: 0
Flags: HW
LayerCount: 2
UndoRedoHistory
Layer: 1
Undoes
EndUndoes
Redoes
EndRedoes
EndUndoRedoHistory
Fore
SplineSet
523.17578125 -20 m 0
 767.975585938 -20 997.076171875 139 997.076171875 463 c 0
 997.076171875 696 851.67578125 899 579.875976562 899 c 0
 487.17578125 899 409.776367188 877 314.099609375 812 c 1
 353.099609375 1354 l 1
 921.076171875 1354 l 1
 932.076171875 1449 l 1
 258.099609375 1449 l 1
 208.099609375 702 l 1
 317.099609375 692 l 1
 378.099609375 758 479.076171875 802 578.076171875 802 c 0
 800.375976562 802 875.076171875 639 875.076171875 458 c 0
 875.076171875 205 708.576171875 77 512.375976562 77 c 0
 412.475585938 77 294.099609375 112 184.099609375 180 c 1
 143.099609375 92 l 1
 266.099609375 17 404.375976562 -20 523.17578125 -20 c 0
EndSplineSet
EndChar

StartChar: florin
Encoding: 402 402 229
Width: 711
VWidth: 0
Flags: HW
LayerCount: 2
UndoRedoHistory
Layer: 1
Undoes
EndUndoes
Redoes
EndRedoes
EndUndoRedoHistory
Fore
SplineSet
154 -417 m 0
 105 -417 77 -410 37 -398 c 1
 36 -263 l 1
 58 -274 93 -276 127 -276 c 0
 244 -276 267 -197 267 -49 c 2
 267 1315 l 2
 267 1541 328 1710 522 1710 c 0
 571 1710 600 1699 640 1687 c 1
 641 1553 l 1
 619 1564 582 1568 548 1568 c 0
 431 1568 407 1491 407 1343 c 2
 407 -25 l 2
 407 -251 348 -417 154 -417 c 0
EndSplineSet
EndChar

StartChar: four
Encoding: 52 52 230
Width: 1139
VWidth: 0
Flags: HW
LayerCount: 2
UndoRedoHistory
Layer: 1
Undoes
EndUndoes
Redoes
EndRedoes
EndUndoRedoHistory
Fore
SplineSet
753.576171875 0 m 1
 864.576171875 0 l 1
 864.576171875 392 l 1
 1037.57617188 392 l 1
 1042.75195312 484 l 1
 859.751953125 484 l 1
 859.751953125 1449 l 1
 763.475585938 1449 l 1
 111.599609375 514 l 1
 111.599609375 392 l 1
 753.576171875 392 l 1
 753.576171875 0 l 1
230.599609375 486 m 1
 752.67578125 1281 l 1
 752.67578125 486 l 1
 230.599609375 486 l 1
EndSplineSet
EndChar

StartChar: fraction
Encoding: 8260 8260 231
Width: 1132
VWidth: 0
Flags: HW
LayerCount: 2
UndoRedoHistory
Layer: 1
Undoes
EndUndoes
Redoes
EndRedoes
EndUndoRedoHistory
Fore
SplineSet
153 0 m 1
 258 0 l 1
 962.65234375 1549 l 1
 867.65234375 1549 l 1
 153 0 l 1
EndSplineSet
EndChar

StartChar: g
Encoding: 103 103 232
Width: 1196
VWidth: 0
Flags: W
HStem: -444 94<285.389 718.18> 0 93<408.926 736.018> 982 92<411.173 746.317>
VStem: 105.3 122<309.158 760.105> 909.052 122<-148.319 95 286 471 586 805.34> 909.052 36<152 288>
LayerCount: 2
UndoRedoHistory
Layer: 1
Undoes
EndUndoes
Redoes
EndRedoes
EndUndoRedoHistory
Fore
SplineSet
563.67578125 93 m 0xf8
 318.299804688 93 227.299804688 349 227.299804688 524 c 0
 227.299804688 724 317.299804688 982 566.375976562 982 c 0
 814.051757812 982 909.051757812 800 909.051757812 586 c 2
 909.051757812 471 l 2
 909.051757812 286 803.051757812 93 563.67578125 93 c 0xf8
491.67578125 -444 m 0
 893.051757812 -444 1031.05175781 -198 1031.05175781 95 c 2
 1031.05175781 1055 l 1xf8
 917.051757812 1055 l 1
 903.051757812 816 l 1
 936.051757812 816 l 1
 886.051757812 962 761.67578125 1074 573.576171875 1074 c 0
 226.299804688 1074 105.299804688 783 105.299804688 515 c 0
 105.299804688 292 237.299804688 0 560.076171875 0 c 0
 775.17578125 0 909.051757812 152 945.051757812 288 c 1xf4
 909.051757812 286 l 1
 909.051757812 95 l 2
 909.051757812 -202 792.051757812 -350 479.975585938 -350 c 0
 407.975585938 -350 285.299804688 -338 285.299804688 -337 c 2
 285.299804688 -431 l 1
 285.299804688 -431 392.67578125 -444 491.67578125 -444 c 0
EndSplineSet
EndChar

StartChar: germandbls
Encoding: 223 223 238
Width: 1107
VWidth: 0
Flags: HW
LayerCount: 2
UndoRedoHistory
Layer: 1
Undoes
EndUndoes
Redoes
EndRedoes
EndUndoRedoHistory
Fore
SplineSet
295.700195312 0 m 1
 173.700195312 0 l 1
 173.700195312 1019 l 2
 173.700195312 1308 278.700195312 1485 550.400390625 1485 c 0
 772.5 1485 890.5 1351 890.5 1183 c 0
 890.5 987 665.5 848 665.5 748 c 0
 665.5 624 1056.5 564 1018.20019531 278 c 0
 1018.20019531 101 906.200195312 -19 732.200195312 -19 c 0
 606.200195312 -19 487.400390625 24 432.5 60 c 1
 465.799804688 156 l 1
 521.599609375 123 616.099609375 81 728.599609375 81 c 0
 861.799804688 81 903.200195312 186 903.200195312 269 c 0
 941.5 493 558.5 542 558.5 739 c 0
 558.5 902 766.5 966 767.5 1184 c 0
 768.5 1302 701.5 1392 550.400390625 1392 c 0
 371.299804688 1392 295.700195312 1299 295.700195312 1028 c 2
 295.700195312 0 l 1
EndSplineSet
EndChar

StartChar: grave
Encoding: 96 96 239
Width: 715
VWidth: 0
Flags: W
HStem: 1258 372
LayerCount: 2
UndoRedoHistory
Layer: 1
Undoes
EndUndoes
Redoes
EndRedoes
EndUndoRedoHistory
Fore
SplineSet
439.5 1258 m 1
 498.5 1258 l 1
 326.5 1630 l 1
 193.5 1630 l 1
 439.5 1258 l 1
EndSplineSet
EndChar

StartChar: greater
Encoding: 62 62 240
Width: 1162
VWidth: 0
Flags: HW
LayerCount: 2
UndoRedoHistory
Layer: 1
Undoes
EndUndoes
Redoes
EndRedoes
EndUndoRedoHistory
Fore
SplineSet
132.299804688 124 m 1
 1023.8515625 562 l 1
 1023.8515625 632 l 1
 135.299804688 1122 l 1
 135.299804688 1014 l 1
 897.8515625 602 l 1
 132.299804688 230 l 1
 132.299804688 124 l 1
EndSplineSet
EndChar

StartChar: greaterequal
Encoding: 8805 8805 241
Width: 1159
VWidth: 0
Flags: HW
LayerCount: 2
UndoRedoHistory
Layer: 1
Undoes
EndUndoes
Redoes
EndRedoes
EndUndoRedoHistory
Fore
SplineSet
155.299804688 241 m 1
 992.452148438 721 l 1
 992.452148438 781 l 1
 160.299804688 1294 l 1
 160.299804688 1189 l 1
 925.452148438 751 l 1
 155.299804688 343 l 1
 155.299804688 241 l 1
114.299804688 11 m 1
 1018.45214844 11 l 1
 1018.45214844 116 l 1
 114.299804688 114 l 1
 114.299804688 11 l 1
EndSplineSet
EndChar

StartChar: guillemotleft
Encoding: 171 171 242
Width: 962
VWidth: 0
Flags: HW
LayerCount: 2
UndoRedoHistory
Layer: 1
Undoes
EndUndoes
Redoes
EndRedoes
EndUndoRedoHistory
Fore
SplineSet
697.65234375 157 m 1
 775.65234375 177 l 1
 520.475585938 541 l 1
 782.65234375 900 l 1
 700.65234375 920 l 1
 434.076171875 538 l 1
 697.65234375 157 l 1
386.375976562 157 m 1
 456.576171875 177 l 1
 211.299804688 541 l 1
 463.776367188 900 l 1
 389.975585938 920 l 1
 114.299804688 538 l 1
 386.375976562 157 l 1
EndSplineSet
EndChar

StartChar: guillemotright
Encoding: 187 187 243
Width: 941
VWidth: 0
Flags: HW
LayerCount: 2
UndoRedoHistory
Layer: 1
Undoes
EndUndoes
Redoes
EndRedoes
EndUndoRedoHistory
Fore
SplineSet
537.576171875 920 m 1
 467.375976562 901 l 1
 713.65234375 536 l 1
 461.076171875 178 l 1
 534.875976562 157 l 1
 809.65234375 539 l 1
 537.576171875 920 l 1
227.299804688 920 m 1
 149.299804688 901 l 1
 404.375976562 536 l 1
 141.299804688 178 l 1
 224.299804688 157 l 1
 490.776367188 539 l 1
 227.299804688 920 l 1
EndSplineSet
EndChar

StartChar: guilsinglleft
Encoding: 8249 8249 244
Width: 627
VWidth: 0
Flags: HW
LayerCount: 2
UndoRedoHistory
Layer: 1
Undoes
EndUndoes
Redoes
EndRedoes
EndUndoRedoHistory
Fore
SplineSet
516.299804688 996 m 1
 418.299804688 996 l 1
 105.299804688 564 l 1
 414.299804688 142 l 1
 511.299804688 142 l 1
 209.299804688 563 l 1
 516.299804688 996 l 1
EndSplineSet
EndChar

StartChar: guilsinglright
Encoding: 8250 8250 245
Width: 639
VWidth: 0
Flags: HW
LayerCount: 2
UndoRedoHistory
Layer: 1
Undoes
EndUndoes
Redoes
EndRedoes
EndUndoRedoHistory
Fore
SplineSet
127.799804688 142 m 1
 225.799804688 142 l 1
 538.799804688 575 l 1
 229.799804688 996 l 1
 132.799804688 996 l 1
 433.799804688 576 l 1
 127.799804688 142 l 1
EndSplineSet
EndChar

StartChar: h
Encoding: 104 104 246
Width: 1113
VWidth: 0
Flags: W
HStem: 982 92<430.407 734.965>
VStem: 163.8 122<607 795> 821.3 121<647 886.678>
LayerCount: 2
UndoRedoHistory
Layer: 1
Undoes
EndUndoes
Redoes
EndRedoes
EndUndoRedoHistory
Fore
SplineSet
163.799804688 0 m 1
 285.799804688 0 l 1
 285.799804688 607 l 2
 285.799804688 776 349.700195312 982 599.900390625 982 c 0
 761.900390625 982 821.299804688 868 821.299804688 648 c 2
 821.299804688 0 l 1
 942.299804688 0 l 1
 942.299804688 647 l 2
 942.299804688 910 828.299804688 1074 616.099609375 1074 c 0
 439.700195312 1074 305.599609375 984 243.799804688 806 c 1
 278.799804688 795 l 1
 285.799804688 1101 l 1
 285.799804688 1489 l 1
 163.799804688 1479 l 1
 163.799804688 0 l 1
EndSplineSet
EndChar

StartChar: hbar
Encoding: 295 295 247
Width: 1198
VWidth: 0
Flags: HW
LayerCount: 2
UndoRedoHistory
Layer: 1
Undoes
EndUndoes
Redoes
EndRedoes
EndUndoRedoHistory
Fore
SplineSet
273.200195312 0 m 1
 362.200195312 0 l 1
 362.200195312 725 l 1
 373.900390625 833 515.200195312 989 696.099609375 989 c 0
 895 989 926.5 853 926.5 569 c 2
 926.5 0 l 1
 1015.5 0 l 1
 1015.5 639 l 2
 1015.5 887 956.5 1087 741.099609375 1087 c 0
 574.599609375 1087 448.599609375 1014 362.200195312 886 c 1
 362.200195312 1271 l 1
 597.099609375 1271 l 1
 597.099609375 1358 l 1
 362.200195312 1358 l 1
 362.200195312 1461 l 1
 273.200195312 1441 l 1
 273.200195312 1358 l 1
 187.200195312 1358 l 1
 187.200195312 1271 l 1
 273.200195312 1271 l 1
 273.200195312 0 l 1
EndSplineSet
EndChar

StartChar: hungarumlaut
Encoding: 733 733 249
Width: 686
VWidth: 0
Flags: HW
LayerCount: 2
UndoRedoHistory
Layer: 1
Undoes
EndUndoes
Redoes
EndRedoes
EndUndoRedoHistory
Fore
SplineSet
97.2001953125 1297 m 1
 153.200195312 1297 l 1
 328.200195312 1599 l 1
 206.200195312 1599 l 1
 97.2001953125 1297 l 1
310.200195312 1297 m 1
 369.200195312 1297 l 1
 595.200195312 1599 l 1
 462.200195312 1599 l 1
 310.200195312 1297 l 1
EndSplineSet
EndChar

StartChar: hyphen
Encoding: 45 45 250
Width: 754
VWidth: 0
Flags: HW
LayerCount: 2
UndoRedoHistory
Layer: 1
Undoes
EndUndoes
Redoes
EndRedoes
EndUndoRedoHistory
Fore
SplineSet
133.200195312 516 m 1
 586.200195312 516 l 1
 586.200195312 608 l 1
 133.200195312 608 l 1
 133.200195312 516 l 1
EndSplineSet
EndChar

StartChar: i
Encoding: 105 105 251
Width: 464
VWidth: 0
Flags: W
VStem: 164.7 122
LayerCount: 2
UndoRedoHistory
Layer: 1
Undoes
EndUndoes
Redoes
EndRedoes
EndUndoRedoHistory
Fore
SplineSet
164.700195312 0 m 1
 286.700195312 0 l 1
 286.700195312 1055 l 1
 164.700195312 1055 l 1
 164.700195312 0 l 1
164.700195312 1294 m 1
 286.700195312 1294 l 1
 286.700195312 1449 l 1
 164.700195312 1449 l 1
 164.700195312 1294 l 1
EndSplineSet
EndChar

StartChar: infinity
Encoding: 8734 8734 259
Width: 1595
VWidth: 0
Flags: HW
LayerCount: 2
UndoRedoHistory
Layer: 1
Undoes
EndUndoes
Redoes
EndRedoes
EndUndoRedoHistory
Fore
SplineSet
426.900390625 247 m 0
 228 247 101.700195312 429 101.700195312 642 c 0
 101.700195312 836 250.5 990 423.299804688 990 c 0
 573.599609375 990 684.299804688 884 792.299804688 725 c 1
 893.099609375 879 1003.79980469 990 1156.79980469 990 c 0
 1355.70019531 990 1478.40039062 837 1478.40039062 625 c 0
 1478.40039062 402 1329.59960938 247 1155 247 c 0
 1021.79980469 247 912 334 792.299804688 511 c 1
 687 357 573.599609375 247 426.900390625 247 c 0
428.700195312 371 m 0
 544.799804688 371 646.5 485 729.299804688 620 c 1
 647.400390625 763 548.400390625 870 422.400390625 870 c 0
 292.799804688 870 212.700195312 756 212.700195312 622 c 0
 212.700195312 496 299.099609375 371 428.700195312 371 c 0
1156.79980469 371 m 0
 1293.59960938 371 1358.40039062 493 1358.40039062 647 c 0
 1358.40039062 768 1272.90039062 870 1153.20019531 870 c 0
 1031.70019531 870 933.599609375 750 855.299804688 622 c 1
 963.299804688 458 1045.20019531 371 1156.79980469 371 c 0
EndSplineSet
EndChar

StartChar: integral
Encoding: 8747 8747 260
Width: 712
VWidth: 0
Flags: HW
LayerCount: 2
UndoRedoHistory
Layer: 1
Undoes
EndUndoes
Redoes
EndRedoes
EndUndoRedoHistory
Fore
SplineSet
156.900390625 -411 m 0
 123.900390625 -411 86.900390625 -407 45.900390625 -398 c 1
 45.900390625 -306 l 1
 81.900390625 -315 114.900390625 -319 141.900390625 -319 c 0
 278.900390625 -319 297.900390625 -209 297.900390625 -49 c 2
 297.900390625 1115 l 2
 297.900390625 1350 359.900390625 1470 530.900390625 1470 c 0
 564.900390625 1470 603.900390625 1465 647.900390625 1455 c 1
 647.900390625 1363 l 1
 611.900390625 1373 581.900390625 1378 554.900390625 1378 c 0
 437.900390625 1378 413.900390625 1280 413.900390625 1124 c 2
 413.900390625 -41 l 2
 413.900390625 -281 337.900390625 -411 156.900390625 -411 c 0
EndSplineSet
EndChar

StartChar: j
Encoding: 106 106 263
Width: 493
VWidth: 0
Flags: W
HStem: -323 106<59.7998 183.121>
VStem: 213.8 124<-186.727 49>
LayerCount: 2
UndoRedoHistory
Layer: 1
Undoes
EndUndoes
Redoes
EndRedoes
EndUndoRedoHistory
Fore
SplineSet
19.7998046875 -323 m 1
 75.7998046875 -323 l 2
 247.799804688 -323 337.799804688 -245 337.799804688 -10 c 2
 337.799804688 1055 l 1
 213.799804688 1055 l 1
 213.799804688 49 l 2
 213.799804688 -150 212.799804688 -217 59.7998046875 -217 c 2
 19.7998046875 -217 l 1
 19.7998046875 -323 l 1
213.799804688 1294 m 1
 337.799804688 1294 l 1
 337.799804688 1449 l 1
 213.799804688 1449 l 1
 213.799804688 1294 l 1
EndSplineSet
EndChar

StartChar: k
Encoding: 107 107 265
Width: 1012
VWidth: 0
Flags: W
LayerCount: 2
UndoRedoHistory
Layer: 1
Undoes
EndUndoes
Redoes
EndRedoes
EndUndoRedoHistory
Fore
SplineSet
163.799804688 0 m 1
 285.799804688 0 l 1
 285.799804688 421 l 1
 250.799804688 351 l 1
 434.299804688 531 l 1
 379.400390625 531 l 1
 819.5 0 l 1
 963.5 0 l 1
 452.299804688 594 l 1
 452.299804688 538 l 1
 956.5 1055 l 1
 815 1055 l 1
 245.799804688 465 l 1
 278.799804688 465 l 1
 285.799804688 703 l 1
 285.799804688 1489 l 1
 163.799804688 1479 l 1
 163.799804688 0 l 1
EndSplineSet
EndChar

StartChar: kgreenlandic
Encoding: 312 312 267
Width: 1029
VWidth: 0
Flags: HW
LayerCount: 2
UndoRedoHistory
Layer: 1
Undoes
EndUndoes
Redoes
EndRedoes
EndUndoRedoHistory
Fore
SplineSet
173.700195312 0 m 1
 173.700195312 1055 l 1
 295.700195312 1055 l 1
 295.700195312 703 l 1
 288.700195312 465 l 1
 249.700195312 465 l 1
 822.599609375 1055 l 1
 967.599609375 1055 l 1
 460.400390625 537 l 1
 475.700195312 598 l 1
 974.599609375 0 l 1
 818.599609375 0 l 1
 387.5 537 l 1
 440.599609375 537 l 1
 260.700195312 367 l 1
 295.700195312 426 l 1
 295.700195312 0 l 1
 173.700195312 0 l 1
EndSplineSet
EndChar

StartChar: l
Encoding: 108 108 268
Width: 613
VWidth: 0
Flags: W
HStem: -11 87<322.129 576.8>
VStem: 163.8 122<113.555 259>
LayerCount: 2
UndoRedoHistory
Layer: 1
Undoes
EndUndoes
Redoes
EndRedoes
EndUndoRedoHistory
Fore
SplineSet
432.799804688 -11 m 0
 500.799804688 -11 555.799804688 -3 576.799804688 0 c 1
 576.799804688 83 l 1
 566.799804688 82 511.799804688 76 454.799804688 76 c 0
 321.799804688 76 285.799804688 128 285.799804688 251 c 2
 285.799804688 1489 l 1
 163.799804688 1479 l 1
 163.799804688 259 l 2
 163.799804688 30 301.799804688 -11 432.799804688 -11 c 0
EndSplineSet
EndChar

StartChar: less
Encoding: 60 60 273
Width: 1147
VWidth: 0
Flags: HW
LayerCount: 2
UndoRedoHistory
Layer: 1
Undoes
EndUndoes
Redoes
EndRedoes
EndUndoRedoHistory
Fore
SplineSet
990.15234375 117 m 1
 992.15234375 221 l 1
 217.599609375 602 l 1
 994.15234375 1005 l 1
 994.15234375 1114 l 1
 102.599609375 633 l 1
 102.599609375 564 l 1
 990.15234375 117 l 1
EndSplineSet
EndChar

StartChar: lessequal
Encoding: 8804 8804 274
Width: 1163
VWidth: 0
Flags: HW
LayerCount: 2
UndoRedoHistory
Layer: 1
Undoes
EndUndoes
Redoes
EndRedoes
EndUndoRedoHistory
Fore
SplineSet
983.051757812 238 m 1
 983.051757812 341 l 1
 301.700195312 751 l 1
 983.051757812 1183 l 1
 983.051757812 1290 l 1
 158.700195312 781 l 1
 158.700195312 718 l 1
 983.051757812 238 l 1
110.700195312 0 m 1
 1022.05175781 0 l 1
 1022.05175781 97 l 1
 110.700195312 97 l 1
 110.700195312 0 l 1
EndSplineSet
EndChar

StartChar: logicalnot
Encoding: 172 172 275
Width: 1144
VWidth: 0
Flags: HW
LayerCount: 2
UndoRedoHistory
Layer: 1
Undoes
EndUndoes
Redoes
EndRedoes
EndUndoRedoHistory
Fore
SplineSet
915.15234375 259 m 1
 1003.15234375 259 l 1
 1003.15234375 783 l 1
 97.2001953125 783 l 1
 97.2001953125 691 l 1
 915.15234375 691 l 1
 915.15234375 259 l 1
EndSplineSet
EndChar

StartChar: lozenge
Encoding: 9674 9674 276
Width: 1116
VWidth: 0
Flags: HW
LayerCount: 2
UndoRedoHistory
Layer: 1
Undoes
EndUndoes
Redoes
EndRedoes
EndUndoRedoHistory
Fore
SplineSet
497.975585938 -49 m 1
 576.276367188 -49 l 1
 968.051757812 770 l 1
 583.475585938 1587 l 1
 503.375976562 1587 l 1
 111.599609375 767 l 1
 497.975585938 -49 l 1
534.875976562 52 m 1
 416.975585938 283 305.599609375 530 176.599609375 769 c 1
 307.599609375 1007 427.776367188 1246 546.576171875 1479 c 1
 658.17578125 1240 777.051757812 1003 904.051757812 767 c 1
 773.051757812 528 650.975585938 287 534.875976562 52 c 1
EndSplineSet
EndChar

StartChar: lslash
Encoding: 322 322 277
Width: 950
VWidth: 0
Flags: HW
LayerCount: 2
UndoRedoHistory
Layer: 1
Undoes
EndUndoes
Redoes
EndRedoes
EndUndoRedoHistory
Fore
SplineSet
42.2998046875 606 m 1
 42.2998046875 704 l 1
 547.299804688 965 l 1
 547.299804688 866 l 1
 42.2998046875 606 l 1
EndSplineSet
Refer: 268 108 N 1 0 0 1 0 0 2
EndChar

StartChar: m
Encoding: 109 109 278
Width: 1642
VWidth: 0
Flags: W
HStem: 982 92<431.814 688.12 1034.15 1285.21>
VStem: 163.8 122<699 822.871> 163.8 98<898.551 1055> 762.8 122<508 780.656> 1349.2 122<600 910.651>
LayerCount: 2
UndoRedoHistory
Layer: 1
Undoes
EndUndoes
Redoes
EndRedoes
EndUndoRedoHistory
Fore
SplineSet
163.799804688 0 m 1xb8
 285.799804688 0 l 1
 285.799804688 699 l 1xd8
 319.099609375 858 425.299804688 982 569.299804688 982 c 0
 717.799804688 982 762.799804688 865 762.799804688 583 c 2
 762.799804688 0 l 1
 884.799804688 0 l 1
 884.799804688 508 l 2
 884.799804688 605 882.799804688 662 887.5 686 c 0
 926.200195312 888 1050.40039062 982 1169.20019531 982 c 0
 1369.20019531 982 1349.20019531 742 1349.20019531 600 c 2
 1349.20019531 0 l 1
 1471.20019531 0 l 1
 1471.20019531 684 l 2
 1471.20019531 941 1369.20019531 1074 1179.09960938 1074 c 0
 996.400390625 1074 888.400390625 949 825.799804688 785 c 1
 858.799804688 785 l 1
 826.799804688 925 764.799804688 1074 573.799804688 1074 c 0
 423.5 1074 314.599609375 969 242.799804688 815 c 1
 284.799804688 804 l 1
 261.799804688 1055 l 1
 163.799804688 1055 l 1
 163.799804688 0 l 1xb8
EndSplineSet
EndChar

StartChar: macron
Encoding: 175 175 279
Width: 1133
VWidth: 0
Flags: W
HStem: 1280 99
VStem: 264.6 544
LayerCount: 2
UndoRedoHistory
Layer: 1
Undoes
EndUndoes
Redoes
EndRedoes
EndUndoRedoHistory
Fore
SplineSet
264.599609375 1280 m 1
 808.599609375 1280 l 1
 808.599609375 1379 l 1
 264.599609375 1379 l 1
 264.599609375 1280 l 1
EndSplineSet
EndChar

StartChar: middot
Encoding: 65537 -1 280
Width: 386
VWidth: 0
Flags: HW
LayerCount: 2
UndoRedoHistory
Layer: 1
Undoes
EndUndoes
Redoes
EndRedoes
EndUndoRedoHistory
Fore
SplineSet
102.599609375 547 m 1
 102.599609375 739 l 1
 266.599609375 739 l 1
 266.599609375 547 l 1
 102.599609375 547 l 1
EndSplineSet
EndChar

StartChar: minus
Encoding: 8722 8722 281
Width: 1054
VWidth: 0
Flags: HW
LayerCount: 2
UndoRedoHistory
Layer: 1
Undoes
EndUndoes
Redoes
EndRedoes
EndUndoRedoHistory
Fore
SplineSet
65.7001953125 563 m 1
 959.952148438 563 l 1
 959.952148438 673 l 1
 65.7001953125 673 l 1
 65.7001953125 563 l 1
EndSplineSet
EndChar

StartChar: multiply
Encoding: 215 215 282
Width: 731
VWidth: 0
Flags: HW
LayerCount: 2
UndoRedoHistory
Layer: 1
Undoes
EndUndoes
Redoes
EndRedoes
EndUndoRedoHistory
Fore
SplineSet
632.5 231 m 1
 686.5 289 l 1
 424.5 576 l 1
 682.5 849 l 1
 619.5 910 l 1
 367.5 638 l 1
 113.5 916 l 1
 53.5 854 l 1
 311.5 577 l 1
 40.5 286 l 1
 99.5 230 l 1
 367.5 515 l 1
 632.5 231 l 1
EndSplineSet
EndChar

StartChar: n
Encoding: 110 110 283
Width: 1108
VWidth: 0
Flags: W
HStem: 982 92<424.228 738.07>
VStem: 163.8 122<620 834.219 951.9 1055> 815 122<636 897.342>
LayerCount: 2
UndoRedoHistory
Layer: 1
Undoes
EndUndoes
Redoes
EndRedoes
EndUndoRedoHistory
Fore
SplineSet
163.799804688 0 m 1
 285.799804688 0 l 1
 285.799804688 620 l 2
 285.799804688 798 349.700195312 982 599.900390625 982 c 0
 767.299804688 982 816 862 815 674 c 1
 815 0 l 1
 937 0 l 1
 937 636 l 2
 937 935 830 1074 610.700195312 1074 c 0
 422.599609375 1074 314.599609375 978 259.799804688 841 c 1
 294.799804688 841 l 1
 275.799804688 1055 l 1
 163.799804688 1055 l 1
 163.799804688 0 l 1
EndSplineSet
EndChar

StartChar: nine
Encoding: 57 57 288
Width: 1150
VWidth: 0
Flags: HW
LayerCount: 2
UndoRedoHistory
Layer: 1
Undoes
EndUndoes
Redoes
EndRedoes
EndUndoRedoHistory
Fore
SplineSet
317.799804688 0 m 1
 456.799804688 0 l 1
 761.771484375 453 l 1
 911.975585938 658 1015.97558594 796 1015.97558594 1021 c 0
 1015.97558594 1241 871.975585938 1468 587.215820312 1468 c 0
 319.799804688 1468 154.799804688 1264 154.799804688 1024 c 0
 154.799804688 766 362.799804688 599 563.454101562 599 c 0
 842.975585938 599 977.975585938 852 986.975585938 877 c 1
 969.975585938 888 l 1
 969.975585938 888 799.975585938 686 677.692382812 511 c 2
 317.799804688 0 l 1
580.818359375 698 m 0
 389.799804688 698 266.799804688 837 266.799804688 1024 c 0
 266.799804688 1204 385.799804688 1372 589.043945312 1372 c 0
 795.975585938 1372 905.975585938 1208 905.975585938 1031 c 0
 905.975585938 756 683.17578125 698 580.818359375 698 c 0
EndSplineSet
EndChar

StartChar: notequal
Encoding: 8800 8800 289
Width: 1107
VWidth: 0
Flags: HW
LayerCount: 2
UndoRedoHistory
Layer: 1
Undoes
EndUndoes
Redoes
EndRedoes
EndUndoRedoHistory
Fore
SplineSet
315.099609375 51 m 1
 452.975585938 365 l 1
 968.051757812 365 l 1
 966.051757812 453 l 1
 486.276367188 453 l 1
 654.576171875 807 l 1
 968.051757812 807 l 1
 962.051757812 892 l 1
 687.875976562 892 l 1
 800.051757812 1189 l 1
 737.051757812 1198 l 1
 605.975585938 892 l 1
 107.099609375 892 l 1
 112.099609375 806 l 1
 571.776367188 806 l 1
 408.875976562 453 l 1
 107.099609375 453 l 1
 112.099609375 365 l 1
 368.375976562 365 l 1
 254.099609375 65 l 1
 315.099609375 51 l 1
EndSplineSet
EndChar

StartChar: numbersign
Encoding: 35 35 291
Width: 1133
VWidth: 0
Flags: HW
LayerCount: 2
UndoRedoHistory
Layer: 1
Undoes
EndUndoes
Redoes
EndRedoes
EndUndoRedoHistory
Fore
SplineSet
648.276367188 482 m 1
 422.5 482 l 1
 504.276367188 932 l 1
 729.276367188 932 l 1
 648.276367188 482 l 1
557.375976562 -28 m 1
 645.576171875 -28 l 1
 723.875976562 408 l 1
 879.65234375 408 l 1
 892.65234375 482 l 1
 737.65234375 482 l 1
 827.65234375 932 l 1
 967.65234375 932 l 1
 980.65234375 1006 l 1
 842.65234375 1006 l 1
 924.65234375 1419 l 1
 826.65234375 1419 l 1
 743.65234375 1006 l 1
 517.776367188 1006 l 1
 591.576171875 1419 l 1
 503.375976562 1419 l 1
 428.5 1006 l 1
 282.5 1006 l 1
 272.5 932 l 1
 413.5 932 l 1
 324.5 482 l 1
 194.5 482 l 1
 184.5 408 l 1
 309.5 408 l 1
 222.5 -28 l 1
 320.5 -28 l 1
 407.5 408 l 1
 634.776367188 408 l 1
 557.375976562 -28 l 1
EndSplineSet
EndChar

StartChar: o
Encoding: 111 111 292
Width: 1155
VWidth: 0
Flags: W
HStem: -19 92<411.036 736.61> 982 92<414.911 731.887>
VStem: 108.9 120<287.34 764.366> 914.652 120<287.852 769.807>
LayerCount: 2
UndoRedoHistory
Layer: 1
Undoes
EndUndoes
Redoes
EndRedoes
EndUndoRedoHistory
Fore
SplineSet
571.776367188 73 m 0
 348.900390625 73 228.900390625 277 228.900390625 522 c 0
 228.900390625 777 348.900390625 982 571.776367188 982 c 0
 801.65234375 982 914.65234375 776 914.65234375 521 c 0
 914.65234375 277 804.65234375 73 571.776367188 73 c 0
571.776367188 -19 m 0
 834.65234375 -19 1034.65234375 217 1034.65234375 524 c 0
 1034.65234375 845 861.65234375 1074 571.776367188 1074 c 0
 290.900390625 1074 108.900390625 840 108.900390625 524 c 0
 108.900390625 214 290.900390625 -19 571.776367188 -19 c 0
EndSplineSet
EndChar

StartChar: oe
Encoding: 339 339 297
Width: 1897
VWidth: 0
Flags: HW
LayerCount: 2
UndoRedoHistory
Layer: 1
Undoes
EndUndoes
Redoes
EndRedoes
EndUndoRedoHistory
Fore
SplineSet
1394.70019531 -19 m 0
 1194.70019531 -19 1034.70019531 72 955.700195312 282 c 1
 877.799804688 87 739.200195312 -19 566.400390625 -19 c 0
 291.900390625 -19 116.099609375 214 116.099609375 524 c 0
 116.099609375 840 291.900390625 1074 566.400390625 1074 c 0
 756.299804688 1074 889.5 970 962.700195312 761 c 1
 1044.70019531 977 1192.29980469 1074 1352.5 1074 c 0
 1583.79980469 1074 1724.29980469 884 1724.29980469 588 c 0
 1724.29980469 557 1718.29980469 521 1718.29980469 521 c 1
 1017.70019531 521 l 1
 1025.70019531 201 1192.70019531 75 1404.70019531 75 c 0
 1508.70019531 75 1607.70019531 92 1731.70019531 153 c 1
 1767.70019531 74 l 1
 1666.70019531 18 1548.70019531 -19 1394.70019531 -19 c 0
566.400390625 73 m 0
 797.700195312 73 896.700195312 277 896.700195312 521 c 0
 896.700195312 776 795 982 566.400390625 982 c 0
 344.099609375 982 236.099609375 777 236.099609375 522 c 0
 236.099609375 277 344.099609375 73 566.400390625 73 c 0
1624.29980469 597 m 1
 1616.20019531 848 1534.29980469 982 1357 982 c 0
 1168 982 1042.90039062 823 1022.20019531 597 c 1
 1624.29980469 597 l 1
EndSplineSet
EndChar

StartChar: ogonek
Encoding: 731 731 298
Width: 582
VWidth: 0
Flags: HW
LayerCount: 2
UndoRedoHistory
Layer: 1
Undoes
EndUndoes
Redoes
EndRedoes
EndUndoRedoHistory
Fore
SplineSet
418.799804688 -383 m 1
 418.799804688 -383 417.799804688 -302 418.799804688 -302 c 1
 396.799804688 -312 357.799804688 -322 320.799804688 -322 c 0
 273.799804688 -322 230.799804688 -304 230.799804688 -240 c 0
 230.799804688 -157 340.799804688 -35 391.799804688 0 c 1
 325.799804688 0 l 1
 209.799804688 -40 109.799804688 -172 109.799804688 -276 c 0
 109.799804688 -350 159.799804688 -409 291.799804688 -409 c 0
 335.799804688 -409 397.799804688 -395 418.799804688 -383 c 1
EndSplineSet
EndChar

StartChar: one
Encoding: 49 49 304
Width: 1151
VWidth: 0
Flags: HW
LayerCount: 2
UndoRedoHistory
Layer: 1
Undoes
EndUndoes
Redoes
EndRedoes
EndUndoRedoHistory
Fore
SplineSet
214.200195312 0 m 1
 1000.45214844 0 l 1
 1000.45214844 94 l 1
 638.375976562 94 l 1
 680.67578125 47 l 1
 680.67578125 1449 l 1
 572.67578125 1449 l 1
 506.975585938 1398 320.200195312 1343 254.200195312 1333 c 1
 254.200195312 1234 l 1
 331.200195312 1243 531.276367188 1300 605.076171875 1363 c 1
 570.875976562 1380 l 1
 570.875976562 49 l 1
 611.375976562 94 l 1
 214.200195312 94 l 1
 214.200195312 0 l 1
EndSplineSet
EndChar

StartChar: onehalf
Encoding: 189 189 305
Width: 1556
VWidth: 0
Flags: HW
LayerCount: 2
UndoRedoHistory
Layer: 1
Undoes
EndUndoes
Redoes
EndRedoes
EndUndoRedoHistory
Fore
SplineSet
129.099609375 633 m 1
 465.576171875 633 l 1
 465.576171875 727 l 1
 356.099609375 727 l 1
 356.099609375 1498 l 1
 262.099609375 1498 l 1
 223.099609375 1459 176.099609375 1428 116.099609375 1398 c 1
 116.099609375 1299 l 1
 159.099609375 1321 207.099609375 1347 244.099609375 1372 c 1
 244.099609375 727 l 1
 129.099609375 727 l 1
 129.099609375 633 l 1
946.5 -1 m 1
 1432.47558594 -1 l 1
 1432.47558594 95 l 1
 1075.20019531 95 l 1
 1273.47558594 289 1426.27636719 423 1426.27636719 612 c 0
 1426.27636719 772 1294.47558594 854 1172.07617188 854 c 0
 1070.37597656 854 962.375976562 788 916.475585938 692 c 1
 979.475585938 633 l 1
 1037.07617188 719 1108.17578125 756 1182.87597656 756 c 0
 1252.17578125 756 1314.27636719 709 1314.27636719 603 c 0
 1314.27636719 481 1162.5 330 946.5 89 c 1
 946.5 -1 l 1
310.099609375 0 m 1
 410.099609375 0 l 1
 1201.77636719 1507 l 1
 1112.67578125 1507 l 1
 310.099609375 0 l 1
EndSplineSet
EndChar

StartChar: onequarter
Encoding: 188 188 306
Width: 1519
VWidth: 0
Flags: HW
LayerCount: 2
UndoRedoHistory
Layer: 1
Undoes
EndUndoes
Redoes
EndRedoes
EndUndoRedoHistory
Fore
SplineSet
84.2998046875 633 m 1
 497.700195312 633 l 1
 497.700195312 720 l 1
 360.299804688 720 l 1
 360.299804688 1498 l 1
 266.299804688 1498 l 1
 227.299804688 1459 129.299804688 1416 78.2998046875 1398 c 1
 78.2998046875 1310 l 1
 127.299804688 1327 211.299804688 1357 248.299804688 1382 c 1
 248.299804688 720 l 1
 84.2998046875 720 l 1
 84.2998046875 633 l 1
1245.59960938 1 m 1
 1350.59960938 1 l 1
 1350.59960938 196 l 1
 1478.59960938 196 l 1
 1468.59960938 281 l 1
 1352.59960938 281 l 1
 1352.59960938 838 l 1
 1236.59960938 838 l 1
 904.5 262 l 1
 904.5 196 l 1
 1245.59960938 196 l 1
 1245.59960938 1 l 1
357.299804688 0 m 1
 456.299804688 0 l 1
 1253.59960938 1507 l 1
 1164.59960938 1507 l 1
 357.299804688 0 l 1
1016.09960938 281 m 1
 1245.59960938 681 l 1
 1245.59960938 281 l 1
 1016.09960938 281 l 1
EndSplineSet
EndChar

StartChar: ordfeminine
Encoding: 170 170 307
Width: 858
VWidth: 0
Flags: HW
LayerCount: 2
UndoRedoHistory
Layer: 1
Undoes
EndUndoes
Redoes
EndRedoes
EndUndoRedoHistory
Fore
SplineSet
170.200195312 492 m 1
 170.200195312 574 l 1
 683.200195312 574 l 1
 683.200195312 492 l 1
 170.200195312 492 l 1
357.200195312 731 m 0
 446.200195312 731 563.200195312 753 653.200195312 887 c 1
 622.200195312 887 l 1
 645.200195312 743 l 1
 704.200195312 743 l 1
 704.200195312 1222 l 2
 704.200195312 1414 590.200195312 1478 426.200195312 1478 c 0
 344.200195312 1478 238.200195312 1451 180.200195312 1418 c 1
 206.200195312 1343 l 1
 271.200195312 1379 354.200195312 1402 428.200195312 1402 c 0
 553.200195312 1402 616.200195312 1348 616.200195312 1237 c 2
 616.200195312 1140 l 1
 644.200195312 1164 l 1
 483.200195312 1164 l 2
 234.200195312 1164 133.200195312 1082 133.200195312 929 c 0
 133.200195312 801 225.200195312 731 357.200195312 731 c 0
368.200195312 805 m 0
 280.200195312 805 220.200195312 844 220.200195312 930 c 0
 220.200195312 1043 294.200195312 1101 530.200195312 1101 c 2
 644.200195312 1101 l 1
 616.200195312 1131 l 1
 616.200195312 903 l 1
 644.200195312 982 l 1
 569.200195312 840 455.200195312 805 368.200195312 805 c 0
EndSplineSet
EndChar

StartChar: ordmasculine
Encoding: 186 186 308
Width: 817
VWidth: 0
Flags: HW
LayerCount: 2
UndoRedoHistory
Layer: 1
Undoes
EndUndoes
Redoes
EndRedoes
EndUndoRedoHistory
Fore
SplineSet
180 1175 m 0
 180 1338 259 1478 404.375976562 1478 c 0
 554.751953125 1478 636.751953125 1336 636.751953125 1172 c 0
 636.751953125 1013 558.751953125 874 404.375976562 874 c 0
 258 874 180 1015 180 1175 c 0
727.751953125 1174 m 0
 727.751953125 1393 609.751953125 1549 404.375976562 1549 c 0
 205 1549 81 1390 81 1174 c 0
 81 962 205 804 404.375976562 804 c 0
 591.751953125 804 727.751953125 965 727.751953125 1174 c 0
EndSplineSet
EndChar

StartChar: oslash
Encoding: 248 248 309
Width: 1140
VWidth: 0
Flags: W
HStem: -19 92<411.036 736.61> 982 92<414.911 731.887>
VStem: 108.9 120<287.34 764.366> 914.652 120<287.852 769.807>
LayerCount: 2
UndoRedoHistory
Layer: 1
Undoes
EndUndoes
Redoes
EndRedoes
EndUndoRedoHistory
Fore
SplineSet
264.599609375 -151 m 1
 931.53515625 1186 l 1
 864.53515625 1218 l 1
 209.700195312 -118 l 1
 264.599609375 -151 l 1
EndSplineSet
Refer: 292 111 N 1 0 0 1 0 0 2
EndChar

StartChar: p
Encoding: 112 112 312
Width: 1184
VWidth: 0
Flags: W
HStem: -19 92<463.582 775.548> 982 92<454.427 777.543>
VStem: 163.8 122<347 788.396> 163.8 97<818.034 1055> 935.152 122<264.356 791.104>
LayerCount: 2
UndoRedoHistory
Layer: 1
Undoes
EndUndoes
Redoes
EndRedoes
EndUndoRedoHistory
Fore
SplineSet
163.799804688 -480 m 1xd8
 285.799804688 -472 l 1
 285.799804688 -87 l 1xe8
 272.799804688 347 l 1
 236.799804688 315 l 1
 290.799804688 149 420.576171875 -19 628.475585938 -19 c 0
 895.15234375 -19 1057.15234375 201 1057.15234375 520 c 0
 1057.15234375 856 906.15234375 1074 620.375976562 1074 c 0
 440.375976562 1074 310.799804688 948 254.799804688 779 c 1
 277.799804688 774 l 1
 260.799804688 1055 l 1
 163.799804688 1055 l 1
 163.799804688 -480 l 1xd8
614.975585938 73 m 0
 414.276367188 73 281.799804688 259 281.799804688 540 c 0
 281.799804688 787 386.799804688 982 625.776367188 982 c 0
 853.15234375 982 935.15234375 775 935.15234375 522 c 0
 935.15234375 257 837.15234375 73 614.975585938 73 c 0
EndSplineSet
EndChar

StartChar: paragraph
Encoding: 182 182 313
Width: 1057
VWidth: 0
Flags: HW
LayerCount: 2
UndoRedoHistory
Layer: 1
Undoes
EndUndoes
Redoes
EndRedoes
EndUndoRedoHistory
Fore
SplineSet
495.276367188 -162 m 1
 574.475585938 -162 l 1
 574.475585938 1482 l 1
 780.15234375 1482 l 1
 780.15234375 -162 l 1
 868.15234375 -162 l 1
 868.15234375 1482 l 1
 940.15234375 1482 l 1
 940.15234375 1563 l 1
 474.576171875 1563 l 2
 149.099609375 1563 107.099609375 1341 107.099609375 1227 c 0
 107.099609375 1061 192.099609375 871 495.276367188 871 c 1
 495.276367188 -162 l 1
EndSplineSet
EndChar

StartChar: parenleft
Encoding: 40 40 314
Width: 682
VWidth: 0
Flags: HW
LayerCount: 2
UndoRedoHistory
Layer: 1
Undoes
EndUndoes
Redoes
EndRedoes
EndUndoRedoHistory
Fore
SplineSet
436.900390625 -264 m 1
 551.900390625 -264 l 1
 351.900390625 43 303.900390625 381 303.900390625 701 c 0
 303.900390625 990 346.900390625 1244 553.900390625 1566 c 1
 434.900390625 1566 l 1
 263.900390625 1310 180.900390625 1012 180.900390625 696 c 0
 180.900390625 335 271.900390625 -35 436.900390625 -264 c 1
EndSplineSet
EndChar

StartChar: parenright
Encoding: 41 41 315
Width: 674
VWidth: 0
Flags: HW
LayerCount: 2
UndoRedoHistory
Layer: 1
Undoes
EndUndoes
Redoes
EndRedoes
EndUndoRedoHistory
Fore
SplineSet
110.799804688 -264 m 1
 226.799804688 -264 l 1
 391.799804688 -35 481.799804688 335 481.799804688 696 c 0
 481.799804688 1012 399.799804688 1310 228.799804688 1566 c 1
 109.799804688 1566 l 1
 316.799804688 1244 358.799804688 990 358.799804688 701 c 0
 358.799804688 381 310.799804688 43 110.799804688 -264 c 1
EndSplineSet
EndChar

StartChar: partialdiff
Encoding: 8706 8706 316
Width: 1114
VWidth: 0
Flags: HW
LayerCount: 2
UndoRedoHistory
Layer: 1
Undoes
EndUndoes
Redoes
EndRedoes
EndUndoRedoHistory
Fore
SplineSet
472.400390625 -27 m 0
 227.700195312 -27 110.700195312 177 110.700195312 440 c 0
 110.700195312 785 303.200195312 1049 556.099609375 1049 c 0
 676.700195312 1049 772.475585938 987 838.475585938 877 c 1
 838.475585938 895 839.475585938 927 839.475585938 954 c 0
 839.475585938 1271 728 1467 538.099609375 1467 c 0
 448.099609375 1467 359.900390625 1424 289.700195312 1369 c 1
 278 1512 l 1
 350.900390625 1568 451.700195312 1608 559.700195312 1608 c 0
 829.475585938 1608 987.475585938 1383 987.475585938 892 c 0
 987.475585938 440 826.475585938 -27 472.400390625 -27 c 0
473.299804688 116 m 0
 663.200195312 116 794.475585938 373 825.475585938 687 c 1
 791.475585938 805 704.599609375 911 578.599609375 911 c 0
 396.799804688 911 253.700195312 694 253.700195312 439 c 0
 253.700195312 244 339.200195312 116 473.299804688 116 c 0
EndSplineSet
EndChar

StartChar: percent
Encoding: 37 37 317
Width: 1755
VWidth: 0
Flags: HW
LayerCount: 2
UndoRedoHistory
Layer: 1
Undoes
EndUndoes
Redoes
EndRedoes
EndUndoRedoHistory
Fore
SplineSet
1386.45605469 -13 m 0
 1207.921875 -13 1101.40039062 151 1101.40039062 362 c 0
 1050.70019531 574 1162.09960938 736 1361 736 c 0
 1564.40039062 736 1672.09960938 577 1672.09960938 362 c 0
 1672.09960938 151 1563.40429688 -13 1386.45605469 -13 c 0
1388.04394531 64 m 0
 1519.76269531 64 1576.09960938 195 1576.09960938 363 c 0
 1576.09960938 537 1511.29980469 659 1362.79980469 659 c 0
 1212.5 659 1147.70019531 531 1198.40039062 363 c 0
 1198.40039062 190 1256.32421875 64 1388.04394531 64 c 0
410.700195312 786 m 0
 576.700195312 786 647.700195312 917 647.700195312 1085 c 0
 647.700195312 1259 575.700195312 1381 410.700195312 1381 c 0
 243.700195312 1381 171.700195312 1253 171.700195312 1085 c 0
 171.700195312 912 244.700195312 786 410.700195312 786 c 0
408.700195312 709 m 0
 183.700195312 709 74.7001953125 873 74.7001953125 1084 c 0
 74.7001953125 1296 187.700195312 1458 408.700195312 1458 c 0
 634.700195312 1458 743.700195312 1299 743.700195312 1084 c 0
 743.700195312 873 631.700195312 709 408.700195312 709 c 0
433.700195312 0 m 1
 1253 1449 l 1
 1343.90039062 1449 l 1
 543.700195312 0 l 1
 433.700195312 0 l 1
EndSplineSet
EndChar

StartChar: period
Encoding: 46 46 318
Width: 449
VWidth: 0
Flags: HW
LayerCount: 2
UndoRedoHistory
Layer: 1
Undoes
EndUndoes
Redoes
EndRedoes
EndUndoRedoHistory
Fore
SplineSet
224 -17 m 0
 292 -17 312 31 312 73 c 0
 312 115 292 163 224 163 c 0
 154 163 135 115 135 73 c 0
 135 32 156 -17 224 -17 c 0
EndSplineSet
EndChar

StartChar: periodcentered
Encoding: 183 183 319
Width: 386
VWidth: 0
Flags: W
HStem: 547 160<102.6 266.6>
VStem: 102.6 164<547 707>
LayerCount: 2
UndoRedoHistory
Layer: 1
Undoes
EndUndoes
Redoes
EndRedoes
EndUndoRedoHistory
Fore
SplineSet
102.599609375 547 m 1
 102.599609375 707 l 1
 266.599609375 707 l 1
 266.599609375 547 l 1
 102.599609375 547 l 1
EndSplineSet
EndChar

StartChar: perthousand
Encoding: 8240 8240 320
Width: 2176
VWidth: 0
Flags: HW
LayerCount: 2
UndoRedoHistory
Layer: 1
Undoes
EndUndoes
Redoes
EndRedoes
EndUndoRedoHistory
Fore
SplineSet
396.400390625 895 m 0
 504.400390625 895 557.400390625 1012 557.400390625 1147 c 0
 557.400390625 1290 504.400390625 1401 392.400390625 1401 c 0
 282.400390625 1401 230.400390625 1284 230.400390625 1149 c 0
 230.400390625 1006 283.400390625 895 396.400390625 895 c 0
392.400390625 775 m 0
 207.400390625 775 104.400390625 925 104.400390625 1149 c 0
 104.400390625 1362 207.400390625 1518 394.400390625 1518 c 0
 583.400390625 1518 682.400390625 1373 682.400390625 1145 c 0
 682.400390625 934 576.400390625 775 392.400390625 775 c 0
251.400390625 -21 m 1
 1065.20019531 1507 l 1
 1202.90039062 1507 l 1
 383.400390625 -21 l 1
 251.400390625 -21 l 1
1057.09960938 91 m 0
 1173.20019531 91 1231.70019531 211 1231.70019531 345 c 0
 1231.70019531 487 1176.79980469 594 1056.20019531 594 c 0
 940.099609375 594 883.400390625 480 883.400390625 345 c 0
 883.400390625 202 941 91 1057.09960938 91 c 0
1055.29980469 -29 m 0
 860.400390625 -29 755.400390625 121 755.400390625 345 c 0
 755.400390625 557 858.400390625 716 1057.09960938 716 c 0
 1255.70019531 716 1356.70019531 568 1356.70019531 342 c 0
 1356.70019531 131 1250.70019531 -29 1055.29980469 -29 c 0
1761.5 91 m 0
 1877.59960938 91 1936.09960938 209 1936.09960938 345 c 0
 1936.09960938 484 1874 594 1758.79980469 594 c 0
 1639.09960938 594 1582.40039062 480 1582.40039062 345 c 0
 1582.40039062 202 1640.90039062 91 1761.5 91 c 0
1756.09960938 -29 m 0
 1563.40039062 -29 1458.40039062 121 1458.40039062 345 c 0
 1458.40039062 557 1564.40039062 716 1761.5 716 c 0
 1956.09960938 716 2058.09960938 572 2058.09960938 342 c 0
 2058.09960938 131 1951.09960938 -29 1756.09960938 -29 c 0
EndSplineSet
EndChar

StartChar: plus
Encoding: 43 43 321
Width: 1083
VWidth: 0
Flags: HW
LayerCount: 2
UndoRedoHistory
Layer: 1
Undoes
EndUndoes
Redoes
EndRedoes
EndUndoRedoHistory
Fore
SplineSet
497.076171875 187 m 1
 579.875976562 187 l 1
 579.875976562 591 l 1
 938.3515625 591 l 1
 938.3515625 667 l 1
 579.875976562 667 l 1
 579.875976562 1061 l 1
 497.076171875 1061 l 1
 497.076171875 667 l 1
 131.400390625 667 l 1
 131.400390625 591 l 1
 497.076171875 591 l 1
 497.076171875 187 l 1
EndSplineSet
EndChar

StartChar: plusminus
Encoding: 177 177 322
Width: 1108
VWidth: 0
Flags: HW
LayerCount: 2
UndoRedoHistory
Layer: 1
Undoes
EndUndoes
Redoes
EndRedoes
EndUndoRedoHistory
Fore
SplineSet
101.700195312 0 m 1
 101.700195312 85 l 1
 995.952148438 85 l 1
 995.952148438 0 l 1
 101.700195312 0 l 1
496.17578125 187 m 1
 578.975585938 187 l 1
 578.975585938 591 l 1
 930.952148438 591 l 1
 930.952148438 667 l 1
 578.975585938 667 l 1
 578.975585938 1061 l 1
 496.17578125 1061 l 1
 496.17578125 667 l 1
 132.700195312 667 l 1
 132.700195312 591 l 1
 496.17578125 591 l 1
 496.17578125 187 l 1
EndSplineSet
EndChar

StartChar: product
Encoding: 8719 8719 323
Width: 1334
VWidth: 0
Flags: HW
LayerCount: 2
UndoRedoHistory
Layer: 1
Undoes
EndUndoes
Redoes
EndRedoes
EndUndoRedoHistory
Fore
SplineSet
131.400390625 0 m 1
 131.400390625 1456 l 1
 1190.09960938 1456 l 1
 1190.09960938 0 l 1
 1018.09960938 0 l 1
 1018.09960938 1306 l 1
 304.400390625 1306 l 1
 304.400390625 0 l 1
 131.400390625 0 l 1
EndSplineSet
EndChar

StartChar: q
Encoding: 113 113 324
Width: 1194
VWidth: 0
Flags: HW
LayerCount: 2
UndoRedoHistory
Layer: 1
Undoes
EndUndoes
Redoes
EndRedoes
EndUndoRedoHistory
Fore
SplineSet
899.400390625 -480 m 1
 1019.40039062 -474 l 1
 1019.40039062 1055 l 1
 905.400390625 1055 l 1
 884.099609375 797 l 1
 909.400390625 800 l 1
 850.799804688 963 737.400390625 1074 551.099609375 1074 c 0
 277.5 1074 108.900390625 845 108.900390625 515 c 0
 108.900390625 206 294.599609375 -19 545.700195312 -19 c 0
 789.599609375 -19 893.400390625 149 937.400390625 308 c 1
 906.400390625 326 l 1
 899.400390625 -109 l 1
 899.400390625 -480 l 1
560.099609375 73 m 0
 334.200195312 73 228.900390625 265 228.900390625 528 c 0
 228.900390625 778 326.099609375 982 561.900390625 982 c 0
 804.900390625 982 890.400390625 798 890.400390625 567 c 1
 893.400390625 271 822 73 560.099609375 73 c 0
EndSplineSet
EndChar

StartChar: question
Encoding: 63 63 325
Width: 896
VWidth: 0
Flags: W
HStem: -15 195<285.377 457.985> 1398 103<214.051 554.284>
VStem: 272.7 198<-1.73706 166.566> 622.7 116<999.558 1328.23>
LayerCount: 2
UndoRedoHistory
Layer: 1
Undoes
EndUndoes
Redoes
EndRedoes
EndUndoRedoHistory
Fore
SplineSet
393.700195312 400 m 1
 500.700195312 764 738.700195312 915 738.700195312 1201 c 0
 738.700195312 1385 595.700195312 1501 410.700195312 1501 c 0
 285.700195312 1501 183.700195312 1462 110.700195312 1412 c 1
 129.700195312 1310 l 1
 170.700195312 1336 283.700195312 1398 394.700195312 1398 c 0
 535.700195312 1398 622.700195312 1335 622.700195312 1189 c 0
 622.700195312 934 335.700195312 636 335.700195312 400 c 1
 393.700195312 400 l 1
369.700195312 -15 m 0
 446.700195312 -15 470.700195312 36 470.700195312 83 c 0
 470.700195312 128 446.700195312 180 369.700195312 180 c 0
 293.700195312 180 272.700195312 128 272.700195312 83 c 0
 272.700195312 38 293.700195312 -15 369.700195312 -15 c 0
EndSplineSet
EndChar

StartChar: quotedbl
Encoding: 34 34 327
Width: 577
VWidth: 0
Flags: HW
LayerCount: 2
UndoRedoHistory
Layer: 1
Undoes
EndUndoes
Redoes
EndRedoes
EndUndoRedoHistory
Fore
SplineSet
375.799804688 1044 m 1
 427.799804688 1044 l 1
 456.799804688 1489 l 1
 342.799804688 1489 l 1
 375.799804688 1044 l 1
142.799804688 1044 m 1
 194.799804688 1044 l 1
 222.799804688 1489 l 1
 109.799804688 1489 l 1
 142.799804688 1044 l 1
EndSplineSet
EndChar

StartChar: quotedblbase
Encoding: 8222 8222 328
Width: 623
VWidth: 0
Flags: HW
LayerCount: 2
UndoRedoHistory
Layer: 1
Undoes
EndUndoes
Redoes
EndRedoes
EndUndoRedoHistory
Fore
SplineSet
106.200195312 -251 m 1
 168.200195312 -251 l 1
 270.200195312 189 l 1
 177.200195312 189 l 1
 106.200195312 -251 l 1
341.200195312 -251 m 1
 399.200195312 -251 l 1
 508.200195312 189 l 1
 409.200195312 189 l 1
 341.200195312 -251 l 1
EndSplineSet
EndChar

StartChar: quotedblleft
Encoding: 8220 8220 329
Width: 795
VWidth: 0
Flags: HW
LayerCount: 2
UndoRedoHistory
Layer: 1
Undoes
EndUndoes
Redoes
EndRedoes
EndUndoRedoHistory
Fore
SplineSet
291.799804688 1148 m 1
 329.799804688 1831 l 1
 206.799804688 1569 l 1
 145.799804688 884 l 1
 291.799804688 1148 l 1
610.799804688 1148 m 1
 635.799804688 1831 l 1
 521.799804688 1569 l 1
 452.799804688 884 l 1
 610.799804688 1148 l 1
EndSplineSet
EndChar

StartChar: quotedblright
Encoding: 8221 8221 330
Width: 607
VWidth: 0
Flags: HW
LayerCount: 2
UndoRedoHistory
Layer: 1
Undoes
EndUndoes
Redoes
EndRedoes
EndUndoRedoHistory
Fore
SplineSet
72 1141 m 1
 135 1141 l 1
 255 1571 l 1
 150 1571 l 1
 72 1141 l 1
347 1146 m 1
 417 1146 l 1
 532 1571 l 1
 427 1571 l 1
 347 1146 l 1
EndSplineSet
EndChar

StartChar: quoteleft
Encoding: 8216 8216 331
Width: 481
VWidth: 0
Flags: HW
LayerCount: 2
UndoRedoHistory
Layer: 1
Undoes
EndUndoes
Redoes
EndRedoes
EndUndoRedoHistory
Fore
SplineSet
180 1010 m 1
 289 1010 l 1
 316 1449 l 1
 249 1449 l 1
 180 1010 l 1
EndSplineSet
EndChar

StartChar: quoteright
Encoding: 8217 8217 332
Width: 472
VWidth: 0
Flags: HW
LayerCount: 2
UndoRedoHistory
Layer: 1
Undoes
EndUndoes
Redoes
EndRedoes
EndUndoRedoHistory
Fore
SplineSet
147.599609375 1010 m 1
 210.599609375 1010 l 1
 320.599609375 1449 l 1
 226.599609375 1449 l 1
 147.599609375 1010 l 1
EndSplineSet
EndChar

StartChar: quotesinglbase
Encoding: 8218 8218 333
Width: 400
VWidth: 0
Flags: HW
LayerCount: 2
UndoRedoHistory
Layer: 1
Undoes
EndUndoes
Redoes
EndRedoes
EndUndoRedoHistory
Fore
SplineSet
85.5 -251 m 1
 150.5 -251 l 1
 261.5 189 l 1
 162.5 189 l 1
 85.5 -251 l 1
EndSplineSet
EndChar

StartChar: quotesingle
Encoding: 39 39 334
Width: 259
VWidth: 0
Flags: HW
LayerCount: 2
UndoRedoHistory
Layer: 1
Undoes
EndUndoes
Redoes
EndRedoes
EndUndoRedoHistory
Fore
SplineSet
85.7001953125 982 m 1
 158.700195312 982 l 1
 172.700195312 1449 l 1
 74.7001953125 1449 l 1
 85.7001953125 982 l 1
EndSplineSet
EndChar

StartChar: r
Encoding: 114 114 335
Width: 779
VWidth: 0
Flags: W
HStem: 974 94<462.664 686.369>
VStem: 163.8 122<608 786.119> 163.8 92<794.422 1055>
LayerCount: 2
UndoRedoHistory
Layer: 1
Undoes
EndUndoes
Redoes
EndRedoes
EndUndoRedoHistory
Fore
SplineSet
163.799804688 0 m 1xa0
 285.799804688 0 l 1
 285.799804688 608 l 2xc0
 285.799804688 801 430.799804688 974 617.799804688 974 c 0
 637.799804688 974 664.799804688 971 685.799804688 966 c 1
 693.799804688 1063 l 1
 672.799804688 1066 642.799804688 1068 610.799804688 1068 c 0
 472.799804688 1068 318.799804688 990 244.799804688 750 c 1
 272.799804688 746 l 1
 255.799804688 1055 l 1
 163.799804688 1055 l 1
 163.799804688 0 l 1xa0
EndSplineSet
EndChar

StartChar: radical
Encoding: 8730 8730 337
Width: 1176
VWidth: 0
Flags: HW
LayerCount: 2
UndoRedoHistory
Layer: 1
Undoes
EndUndoes
Redoes
EndRedoes
EndUndoRedoHistory
Fore
SplineSet
561.875976562 -162 m 1
 262.099609375 723 l 1
 113.099609375 693 l 1
 98.099609375 811 l 1
 351.276367188 866 l 1
 561.875976562 224 l 1
 614.076171875 43 l 1
 732.875976562 587 851.051757812 1128 984.051757812 1672 c 1
 1094.05175781 1672 l 1
 683.375976562 -162 l 1
 561.875976562 -162 l 1
EndSplineSet
EndChar

StartChar: registered
Encoding: 174 174 340
Width: 1744
VWidth: 0
Flags: HW
LayerCount: 2
UndoRedoHistory
Layer: 1
Undoes
EndUndoes
Redoes
EndRedoes
EndUndoRedoHistory
Fore
SplineSet
587.599609375 309 m 1
 674.900390625 309 l 1
 674.900390625 776 l 1
 912.5 776 l 1
 1113.20019531 309 l 1
 1208.59960938 309 l 1
 1000.70019531 789 l 1
 1119.5 794 1181.59960938 890 1181.59960938 1031 c 0
 1181.59960938 1193 1125.79980469 1273 891.799804688 1273 c 2
 587.599609375 1273 l 1
 587.599609375 309 l 1
675.799804688 860 m 1
 675.799804688 1189 l 1
 885.5 1189 l 2
 1044.79980469 1189 1099.70019531 1163 1099.70019531 1026 c 0
 1099.70019531 917 1069.09960938 860 931.400390625 860 c 2
 675.799804688 860 l 1
863 36 m 0
 557.900390625 36 234.799804688 261 234.799804688 756 c 0
 234.799804688 1251 557.900390625 1477 863 1477 c 0
 1168.09960938 1477 1494.79980469 1250 1494.79980469 756 c 0
 1494.79980469 262 1168.09960938 36 863 36 c 0
863 -40 m 0
 1210.40039062 -40 1592.79980469 210 1592.79980469 756 c 0
 1592.79980469 1302 1210.40039062 1554 863 1554 c 0
 515.599609375 1554 136.799804688 1302 136.799804688 756 c 0
 136.799804688 210 515.599609375 -40 863 -40 c 0
EndSplineSet
EndChar

StartChar: rho
Encoding: 961 961 341
Width: 1222
VWidth: 0
Flags: HW
LayerCount: 2
UndoRedoHistory
Layer: 1
Undoes
EndUndoes
Redoes
EndRedoes
EndUndoRedoHistory
Fore
SplineSet
125.099609375 -480 m 1
 249.099609375 -472 l 1
 249.099609375 -87 l 2
 249.099609375 3 248.099609375 86 244.099609375 171 c 1
 307.599609375 57 451.599609375 -25 591.099609375 -25 c 0
 841.299804688 -25 1041.79980469 203 1041.79980469 515 c 0
 1041.79980469 852 864.700195312 1075 574 1075 c 0
 435.400390625 1075 308.5 1003 258.099609375 843 c 1
 245.099609375 1054 l 1
 125.099609375 1054 l 1
 125.099609375 -480 l 1
578.5 64 m 0
 319.299804688 64 250 261 250 542 c 1
 249.099609375 791 333.700195312 984 582.099609375 984 c 0
 817.900390625 984 917.799804688 777 917.799804688 524 c 0
 917.799804688 258 809.799804688 64 578.5 64 c 0
EndSplineSet
EndChar

StartChar: ring
Encoding: 730 730 342
Width: 598
VWidth: 0
Flags: HW
LayerCount: 2
UndoRedoHistory
Layer: 1
Undoes
EndUndoes
Redoes
EndRedoes
EndUndoRedoHistory
Fore
SplineSet
292.400390625 1349 m 0
 237.400390625 1349 193.400390625 1394 193.400390625 1449 c 0
 193.400390625 1504 237.400390625 1548 292.400390625 1548 c 0
 347.400390625 1548 392.400390625 1504 392.400390625 1449 c 0
 392.400390625 1394 347.400390625 1349 292.400390625 1349 c 0
292.400390625 1286 m 0
 386.400390625 1286 462.400390625 1356 462.400390625 1450 c 0
 462.400390625 1544 386.400390625 1614 292.400390625 1614 c 0
 198.400390625 1614 122.400390625 1544 122.400390625 1450 c 0
 122.400390625 1356 198.400390625 1286 292.400390625 1286 c 0
EndSplineSet
EndChar

StartChar: s
Encoding: 115 115 343
Width: 910
VWidth: 0
Flags: W
HStem: -19 92<192.842 630.129> 982 92<301.484 694.668>
VStem: 118.8 107<680.921 911.777> 693.952 104<136.625 399.169>
LayerCount: 2
UndoRedoHistory
Layer: 1
Undoes
EndUndoes
Redoes
EndRedoes
EndUndoRedoHistory
Fore
SplineSet
449.375976562 -19 m 0
 661.952148438 -19 797.952148438 76 797.952148438 261 c 0
 797.952148438 416 743.952148438 503 499.776367188 580 c 2
 399.875976562 614 l 1
 261.799804688 659 225.799804688 703 225.799804688 810 c 0
 225.799804688 907 317.799804688 982 478.17578125 982 c 0
 581.952148438 982 646.952148438 959 709.952148438 931 c 1
 741.952148438 1022 l 1
 654.952148438 1059 582.952148438 1074 466.475585938 1074 c 0
 244.799804688 1074 118.799804688 949 118.799804688 795 c 0
 118.799804688 683 167.799804688 587 368.375976562 526 c 2
 466.475585938 493 l 2
 659.952148438 431 693.952148438 373 693.952148438 262 c 0
 693.952148438 139 618.952148438 73 455.67578125 73 c 0
 315.799804688 73 228.799804688 105 173.799804688 124 c 1
 141.799804688 39 l 1
 183.799804688 19 315.799804688 -19 449.375976562 -19 c 0
EndSplineSet
EndChar

StartChar: section
Encoding: 167 167 349
Width: 1027
VWidth: 0
Flags: HW
LayerCount: 2
UndoRedoHistory
Layer: 1
Undoes
EndUndoes
Redoes
EndRedoes
EndUndoRedoHistory
Fore
SplineSet
888.200195312 271 m 0
 888.200195312 69 698.200195312 -18 476 -18 c 0
 359.400390625 -18 236.700195312 5 143.700195312 48 c 1
 177.700195312 135 l 1
 258.200195312 93 374.799804688 67 481.5 67 c 0
 644.299804688 67 786.200195312 126 786.200195312 278 c 0
 786.200195312 389 707 435 489.200195312 503 c 0
 268.099609375 573 137.700195312 632 137.700195312 792 c 0
 137.700195312 908 207.700195312 986 308.799804688 1035 c 1
 199.700195312 1093 148.700195312 1158 148.700195312 1274 c 0
 148.700195312 1462 334.099609375 1545 550.799804688 1545 c 0
 656.400390625 1545 768.599609375 1524 857.200195312 1487 c 1
 826.200195312 1405 l 1
 753.200195312 1438 650.900390625 1458 553 1458 c 0
 397.900390625 1458 256 1408 256 1282 c 0
 256 1139 373.700195312 1109 579.400390625 1034 c 1
 808.200195312 951 896.200195312 904 896.200195312 746 c 0
 896.200195312 630 854.200195312 554 737.799804688 507 c 1
 833.200195312 456 888.200195312 380 888.200195312 271 c 0
649.799804688 547 m 1
 720.200195312 581 793.200195312 616 793.200195312 758 c 0
 793.200195312 859 687.200195312 898 537.599609375 952 c 1
 392.400390625 1003 l 1
 320.900390625 979 241.700195312 902 241.700195312 797 c 0
 241.700195312 683 344 658 520 594 c 2
 649.799804688 547 l 1
EndSplineSet
EndChar

StartChar: semicolon
Encoding: 59 59 350
Width: 463
VWidth: 0
Flags: HW
LayerCount: 2
UndoRedoHistory
Layer: 1
Undoes
EndUndoes
Redoes
EndRedoes
EndUndoRedoHistory
Fore
SplineSet
154.900390625 878 m 1
 298.900390625 878 l 1
 298.900390625 1055 l 1
 154.900390625 1055 l 1
 154.900390625 878 l 1
117.900390625 -299 m 1
 182.900390625 -299 l 1
 303.900390625 143 l 1
 172.900390625 143 l 1
 117.900390625 -299 l 1
EndSplineSet
EndChar

StartChar: seven
Encoding: 55 55 351
Width: 1151
VWidth: 0
Flags: HW
LayerCount: 2
UndoRedoHistory
Layer: 1
Undoes
EndUndoes
Redoes
EndRedoes
EndUndoRedoHistory
Fore
SplineSet
357.900390625 1 m 1
 467.900390625 1 l 1
 980.276367188 1359 l 1
 980.276367188 1449 l 1
 180.900390625 1449 l 1
 208.900390625 1355 l 1
 866.276367188 1355 l 1
 357.900390625 1 l 1
EndSplineSet
EndChar

StartChar: six
Encoding: 54 54 352
Width: 1118
VWidth: 0
Flags: HW
LayerCount: 2
UndoRedoHistory
Layer: 1
Undoes
EndUndoes
Redoes
EndRedoes
EndUndoRedoHistory
Fore
SplineSet
573.5 -19 m 0
 830 -19 988.700195312 185 988.700195312 425 c 0
 988.700195312 683 791.299804688 850 596.900390625 850 c 0
 327.799804688 850 199.099609375 596 190.099609375 571 c 1
 207.099609375 561 l 1
 207.099609375 561 350.299804688 756 461 937 c 2
 775.099609375 1449 l 1
 656.299804688 1449 l 1
 380 996 l 2
 249.099609375 785 161.099609375 653 161.099609375 428 c 0
 161.099609375 208 301.700195312 -19 573.5 -19 c 0
571.700195312 77 m 0
 370.099609375 77 271.099609375 240 271.099609375 417 c 0
 271.099609375 692 478.099609375 751 578.900390625 751 c 0
 766.099609375 751 877.700195312 612 877.700195312 425 c 0
 877.700195312 245 770.599609375 77 571.700195312 77 c 0
EndSplineSet
EndChar

StartChar: slash
Encoding: 47 47 353
Width: 959
VWidth: 0
Flags: W
LayerCount: 2
UndoRedoHistory
Layer: 1
Undoes
EndUndoes
Redoes
EndRedoes
EndUndoRedoHistory
Fore
SplineSet
105.299804688 -233 m 1
 180.299804688 -233 l 1
 860.051757812 1406 l 1
 783.051757812 1406 l 1
 105.299804688 -233 l 1
EndSplineSet
EndChar

StartChar: sterling
Encoding: 163 163 355
Width: 1146
VWidth: 0
Flags: HW
LayerCount: 2
UndoRedoHistory
Layer: 1
Undoes
EndUndoes
Redoes
EndRedoes
EndUndoRedoHistory
Fore
SplineSet
132.599609375 -14 m 1
 120.599609375 77 l 1
 309.599609375 91 l 1
 309.599609375 674 l 1
 123.599609375 674 l 1
 123.599609375 764 l 1
 309.599609375 764 l 1
 309.599609375 873 l 2
 309.599609375 1167 338.599609375 1469 680.599609375 1469 c 0
 812.975585938 1469 920.975585938 1415 1000.97558594 1347 c 1
 951.975585938 1270 l 1
 863.975585938 1341 771.975585938 1378 676.099609375 1378 c 0
 468.200195312 1378 410.599609375 1202 410.599609375 946 c 2
 410.599609375 764 l 1
 792.975585938 764 l 1
 792.975585938 673 l 1
 410.599609375 673 l 1
 410.599609375 93 l 1
 1012.97558594 93 l 1
 996.975585938 -14 l 1
 132.599609375 -14 l 1
EndSplineSet
EndChar

StartChar: summation
Encoding: 8721 8721 356
Width: 1250
VWidth: 0
Flags: HW
LayerCount: 2
UndoRedoHistory
Layer: 1
Undoes
EndUndoes
Redoes
EndRedoes
EndUndoRedoHistory
Fore
SplineSet
106.200195312 -365 m 1
 1117.45214844 -365 l 1
 1117.45214844 -240 l 1
 230.200195312 -240 l 1
 839.975585938 602 l 1
 253.200195312 1419 l 1
 1080.45214844 1419 l 1
 1080.45214844 1533 l 1
 129.200195312 1533 l 1
 129.200195312 1458 l 1
 693.276367188 594 l 1
 106.200195312 -292 l 1
 106.200195312 -365 l 1
EndSplineSet
EndChar

StartChar: t
Encoding: 116 116 357
Width: 769
VWidth: 0
Flags: W
HStem: -11 84<396.951 669.249>
VStem: 226.3 122<120.014 284> 268.3 80<1221.35 1321>
LayerCount: 2
UndoRedoHistory
Layer: 1
Undoes
EndUndoes
Redoes
EndRedoes
EndUndoRedoHistory
Fore
SplineSet
502.299804688 -11 m 0xc0
 606.299804688 -11 669.299804688 5 669.299804688 5 c 1
 669.299804688 83 l 1
 669.299804688 83 593.299804688 73 522.299804688 73 c 0
 417.299804688 73 348.299804688 114 348.299804688 284 c 2xc0
 348.299804688 1012 l 1
 316.299804688 983 l 1
 672.299804688 983 l 1
 672.299804688 1055 l 1
 316.299804688 1055 l 1
 348.299804688 1024 l 1
 348.299804688 1327 l 1
 268.299804688 1321 l 1xa0
 227.299804688 1036 l 1
 256.299804688 1058 l 1
 78.2998046875 1045 l 1
 78.2998046875 983 l 1
 258.299804688 983 l 1
 226.299804688 1013 l 1
 226.299804688 279 l 2
 226.299804688 72 342.299804688 -11 502.299804688 -11 c 0xc0
EndSplineSet
EndChar

StartChar: tbar
Encoding: 359 359 358
Width: 859
VWidth: 0
Flags: HW
LayerCount: 2
UndoRedoHistory
Layer: 1
Undoes
EndUndoes
Redoes
EndRedoes
EndUndoRedoHistory
Fore
SplineSet
552.799804688 -19 m 0
 292.799804688 -19 272.799804688 108 272.799804688 433 c 2
 272.799804688 622 l 1
 121.799804688 622 l 1
 121.799804688 744 l 1
 272.799804688 744 l 1
 272.799804688 954 l 1
 109.799804688 954 l 1
 122.799804688 1069 l 1
 272.799804688 1069 l 1
 314.799804688 1311 l 1
 435.799804688 1319 l 1
 435.799804688 1069 l 1
 718.799804688 1069 l 1
 718.799804688 954 l 1
 435.799804688 954 l 1
 435.799804688 744 l 1
 639.799804688 744 l 1
 639.799804688 622 l 1
 435.799804688 622 l 1
 435.799804688 357 l 2
 435.799804688 157 458.799804688 114 589.799804688 114 c 0
 607.799804688 114 647.799804688 120 722.799804688 125 c 1
 737.799804688 -6 l 1
 615.799804688 -17 585.799804688 -19 552.799804688 -19 c 0
EndSplineSet
EndChar

StartChar: thorn
Encoding: 254 254 361
Width: 1189
VWidth: 0
Flags: HW
LayerCount: 2
UndoRedoHistory
Layer: 1
Undoes
EndUndoes
Redoes
EndRedoes
EndUndoRedoHistory
Fore
SplineSet
173.700195312 -480 m 1
 173.700195312 1478 l 1
 295.700195312 1489 l 1
 295.700195312 1111 l 1
 285.700195312 774 l 1
 264.700195312 779 l 1
 320.700195312 948 450.276367188 1074 630.276367188 1074 c 0
 906.576171875 1074 1054.67578125 856 1054.67578125 520 c 0
 1054.67578125 201 896.67578125 -19 638.375976562 -19 c 0
 430.475585938 -19 300.700195312 149 246.700195312 315 c 1
 282.700195312 347 l 1
 295.700195312 -87 l 1
 295.700195312 -472 l 1
 173.700195312 -480 l 1
624.875976562 73 m 0
 844.475585938 73 932.67578125 257 932.67578125 522 c 0
 932.67578125 775 858.875976562 982 635.67578125 982 c 0
 396.700195312 982 291.700195312 787 291.700195312 540 c 0
 291.700195312 259 424.17578125 73 624.875976562 73 c 0
EndSplineSet
EndChar

StartChar: three
Encoding: 51 51 362
Width: 1129
VWidth: 0
Flags: HW
LayerCount: 2
UndoRedoHistory
Layer: 1
Undoes
EndUndoes
Redoes
EndRedoes
EndUndoRedoHistory
Fore
SplineSet
532.17578125 -19 m 0
 812.076171875 -19 985.17578125 138 985.17578125 392 c 0
 985.17578125 622 844.475585938 738 668.975585938 771 c 1
 834.576171875 807 948.17578125 901 948.17578125 1115 c 0
 948.17578125 1346 752.67578125 1468 531.276367188 1468 c 0
 402.576171875 1468 263.099609375 1429 143.099609375 1355 c 1
 185.099609375 1269 l 1
 288.099609375 1334 422.375976562 1372 532.17578125 1372 c 0
 695.975585938 1372 839.975585938 1296 839.975585938 1109 c 0
 839.975585938 860 623.975585938 829 436.776367188 820 c 1
 404.375976562 820 l 1
 404.375976562 719 l 1
 434.975585938 719 l 1
 669.875976562 714 874.17578125 671 874.17578125 387 c 0
 874.17578125 171 740.076171875 77 533.076171875 77 c 0
 394.475585938 77 264.099609375 128 198.099609375 169 c 1
 154.099609375 87 l 1
 212.099609375 51 350.099609375 -19 532.17578125 -19 c 0
EndSplineSet
EndChar

StartChar: threequarters
Encoding: 190 190 363
Width: 1579
VWidth: 0
Flags: HW
LayerCount: 2
UndoRedoHistory
Layer: 1
Undoes
EndUndoes
Redoes
EndRedoes
EndUndoRedoHistory
Fore
SplineSet
360.599609375 626 m 0
 501.200195312 626 595.700195312 724 595.700195312 875 c 0
 595.700195312 977 542.599609375 1059 423.599609375 1089 c 1
 533.599609375 1107 578.599609375 1190 578.599609375 1271 c 0
 578.599609375 1423 470.599609375 1501 349.599609375 1501 c 0
 267.599609375 1501 145.599609375 1466 93.599609375 1404 c 1
 140.599609375 1329 l 1
 181.599609375 1374 280.599609375 1406 347.599609375 1406 c 0
 418.599609375 1406 478.599609375 1365 478.599609375 1271 c 0
 478.599609375 1177 381.599609375 1134 283.599609375 1134 c 2
 218.599609375 1134 l 1
 218.599609375 1035 l 1
 288.599609375 1035 l 2
 401.599609375 1035 495.599609375 983 495.599609375 880 c 0
 495.599609375 774 426.599609375 723 347.599609375 723 c 0
 284.599609375 723 191.599609375 751 138.599609375 798 c 1
 93.599609375 716 l 1
 149.599609375 650 279.599609375 626 360.599609375 626 c 0
1248.20019531 1 m 1
 1353.20019531 1 l 1
 1353.20019531 196 l 1
 1481.20019531 196 l 1
 1471.20019531 281 l 1
 1355.20019531 281 l 1
 1355.20019531 838 l 1
 1239.20019531 838 l 1
 907.099609375 262 l 1
 907.099609375 196 l 1
 1248.20019531 196 l 1
 1248.20019531 1 l 1
398.599609375 0 m 1
 497.599609375 0 l 1
 1299.20019531 1507 l 1
 1205.90039062 1507 l 1
 398.599609375 0 l 1
1018.70019531 281 m 1
 1248.20019531 681 l 1
 1248.20019531 281 l 1
 1018.70019531 281 l 1
EndSplineSet
EndChar

StartChar: tilde
Encoding: 732 732 364
Width: 931
VWidth: 0
Flags: W
HStem: 1301 88<458.454 631.397> 1400 79<227.907 398.766>
VStem: 152.1 63<1301 1386.34> 640.1 67<1396.21 1478>
LayerCount: 2
UndoRedoHistory
Layer: 1
Undoes
EndUndoes
Redoes
EndRedoes
EndUndoRedoHistory
Fore
SplineSet
215.099609375 1301 m 1
 219.099609375 1370 244.099609375 1400 280.099609375 1400 c 0
 356.099609375 1400 485.099609375 1301 586.099609375 1301 c 0
 641.099609375 1301 707.099609375 1328 707.099609375 1478 c 1
 640.099609375 1478 l 1
 635.099609375 1411 613.099609375 1389 580.099609375 1389 c 0
 514.099609375 1389 402.099609375 1479 291.099609375 1479 c 0
 223.099609375 1479 152.099609375 1448 152.099609375 1301 c 1
 215.099609375 1301 l 1
EndSplineSet
EndChar

StartChar: trademark
Encoding: 8482 8482 365
Width: 1716
VWidth: 0
Flags: HW
LayerCount: 2
UndoRedoHistory
Layer: 1
Undoes
EndUndoes
Redoes
EndRedoes
EndUndoRedoHistory
Fore
SplineSet
807.576171875 564 m 1
 858.875976562 564 l 1
 858.875976562 1449 l 1
 1141.47558594 669 l 1
 1197.27636719 669 l 1
 1517.15234375 1442 l 1
 1517.15234375 564 l 1
 1579.15234375 564 l 1
 1579.15234375 1467 l 1
 1483.15234375 1467 l 1
 1176.57617188 723 l 1
 897.576171875 1467 l 1
 807.576171875 1467 l 1
 807.576171875 564 l 1
345.875976562 564 m 1
 400.776367188 564 l 1
 400.776367188 1415 l 1
 647.375976562 1415 l 1
 647.375976562 1467 l 1
 87.400390625 1467 l 1
 86.400390625 1415 l 1
 345.875976562 1415 l 1
 345.875976562 564 l 1
EndSplineSet
EndChar

StartChar: two
Encoding: 50 50 366
Width: 1139
VWidth: 0
Flags: HW
LayerCount: 2
UndoRedoHistory
Layer: 1
Undoes
EndUndoes
Redoes
EndRedoes
EndUndoRedoHistory
Fore
SplineSet
138.299804688 0 m 1
 958.551757812 0 l 1
 963.551757812 94 l 1
 193.299804688 94 l 1
 203.299804688 49 l 1
 699.576171875 595 l 2
 887.551757812 790 951.551757812 863 951.551757812 1083 c 0
 951.551757812 1390 651.875976562 1468 517.776367188 1468 c 0
 375.576171875 1468 220.299804688 1413 134.299804688 1358 c 1
 171.299804688 1271 l 1
 279.299804688 1334 404.375976562 1372 517.776367188 1372 c 0
 632.975585938 1372 835.551757812 1324 835.551757812 1065 c 0
 835.551757812 869 753.551757812 804 624.875976562 661 c 2
 105.299804688 94 l 1
 138.299804688 0 l 1
EndSplineSet
EndChar

StartChar: u
Encoding: 117 117 367
Width: 1106
VWidth: 0
Flags: W
HStem: -19 92<352.513 666.771>
VStem: 153.9 122<157.658 419> 805.1 122<220.781 435> 826.1 101<0 167.936>
LayerCount: 2
UndoRedoHistory
Layer: 1
Undoes
EndUndoes
Redoes
EndRedoes
EndUndoRedoHistory
Fore
SplineSet
927.099609375 1055 m 1xd0
 805.099609375 1055 l 1
 805.099609375 435 l 2
 805.099609375 257 740.299804688 73 490.099609375 73 c 0
 322.700195312 73 274.900390625 193 275.900390625 381 c 1
 275.900390625 1055 l 1
 153.900390625 1055 l 1
 153.900390625 419 l 2
 153.900390625 120 260.900390625 -19 480.200195312 -19 c 0
 668.299804688 -19 777.200195312 63 842.099609375 246 c 1
 805.099609375 246 l 1xe0
 826.099609375 0 l 1
 927.099609375 0 l 1
 927.099609375 1055 l 1xd0
EndSplineSet
EndChar

StartChar: underscore
Encoding: 95 95 376
Width: 1028
VWidth: 0
Flags: HW
LayerCount: 2
UndoRedoHistory
Layer: 1
Undoes
EndUndoes
Redoes
EndRedoes
EndUndoRedoHistory
Fore
SplineSet
88.2001953125 -292 m 1
 918.551757812 -292 l 1
 918.551757812 -202 l 1
 88.2001953125 -202 l 1
 88.2001953125 -292 l 1
EndSplineSet
EndChar

StartChar: uni00AD
Encoding: 173 173 379
Width: 1041
VWidth: 0
Flags: HW
LayerCount: 2
UndoRedoHistory
Layer: 1
Undoes
EndUndoes
Redoes
EndRedoes
EndUndoRedoHistory
Fore
SplineSet
121.5 136 m 1
 903.251953125 136 l 1
 903.251953125 234 l 1
 121.5 234 l 1
 121.5 136 l 1
EndSplineSet
EndChar

StartChar: uni00B2
Encoding: 178 178 380
Width: 720
VWidth: 0
Flags: HW
LayerCount: 2
UndoRedoHistory
Layer: 1
Undoes
EndUndoes
Redoes
EndRedoes
EndUndoRedoHistory
Fore
SplineSet
614.099609375 649 m 1
 99.099609375 649 l 1
 99.099609375 739 l 1
 339.099609375 980 513.099609375 1132 513.099609375 1254 c 0
 513.099609375 1360 445.099609375 1406 368.099609375 1406 c 0
 286.099609375 1406 206.099609375 1370 142.099609375 1284 c 1
 71.099609375 1343 l 1
 122.099609375 1439 243.099609375 1504 356.099609375 1504 c 0
 511.099609375 1504 625.099609375 1422 625.099609375 1263 c 0
 625.099609375 1074 454.099609375 940 242.099609375 746 c 1
 614.099609375 746 l 1
 614.099609375 649 l 1
EndSplineSet
EndChar

StartChar: uni00B3
Encoding: 179 179 381
Width: 826
VWidth: 0
Flags: HW
LayerCount: 2
UndoRedoHistory
Layer: 1
Undoes
EndUndoes
Redoes
EndRedoes
EndUndoRedoHistory
Fore
SplineSet
426.299804688 626 m 0
 567.299804688 626 672.299804688 724 672.299804688 875 c 0
 672.299804688 977 613.299804688 1059 489.299804688 1089 c 1
 603.299804688 1107 653.299804688 1190 653.299804688 1271 c 0
 653.299804688 1423 535.299804688 1501 414.299804688 1501 c 0
 332.299804688 1501 211.299804688 1466 159.299804688 1404 c 1
 206.299804688 1329 l 1
 247.299804688 1374 345.299804688 1406 412.299804688 1406 c 0
 483.299804688 1406 544.299804688 1365 544.299804688 1271 c 0
 544.299804688 1177 447.299804688 1134 349.299804688 1134 c 2
 284.299804688 1134 l 1
 284.299804688 1035 l 1
 353.299804688 1035 l 2
 466.299804688 1035 561.299804688 983 561.299804688 880 c 0
 561.299804688 774 492.299804688 723 413.299804688 723 c 0
 350.299804688 723 256.299804688 751 203.299804688 798 c 1
 159.299804688 716 l 1
 215.299804688 650 345.299804688 626 426.299804688 626 c 0
EndSplineSet
EndChar

StartChar: uni00B9
Encoding: 185 185 383
Width: 852
VWidth: 0
Flags: HW
LayerCount: 2
UndoRedoHistory
Layer: 1
Undoes
EndUndoes
Redoes
EndRedoes
EndUndoRedoHistory
Fore
SplineSet
200.700195312 701 m 1
 712.700195312 701 l 1
 712.700195312 808 l 1
 531.700195312 808 l 1
 531.700195312 1487 l 1
 410.700195312 1487 l 1
 371.700195312 1448 249.700195312 1399 200.700195312 1388 c 1
 200.700195312 1271 l 1
 255.700195312 1283 356.700195312 1319 393.700195312 1344 c 1
 393.700195312 808 l 1
 200.700195312 808 l 1
 200.700195312 701 l 1
EndSplineSet
EndChar

StartChar: uni0237
Encoding: 567 567 469
Width: 394
VWidth: 0
Flags: HW
LayerCount: 2
UndoRedoHistory
Layer: 1
Undoes
EndUndoes
Redoes
EndRedoes
EndUndoRedoHistory
Fore
SplineSet
-57.7998046875 -479 m 1
 -3.7998046875 -479 l 2
 216.200195312 -479 264.200195312 -424 264.200195312 -190 c 2
 264.200195312 1075 l 1
 121.200195312 1075 l 1
 121.200195312 -135 l 2
 121.200195312 -303 162.200195312 -367 -34.7998046875 -367 c 2
 -91.7998046875 -367 l 1
 -57.7998046875 -479 l 1
EndSplineSet
EndChar

StartChar: uni02BC
Encoding: 700 700 471
Width: 572
VWidth: 0
Flags: HW
LayerCount: 2
UndoRedoHistory
Layer: 1
Undoes
EndUndoes
Redoes
EndRedoes
EndUndoRedoHistory
Fore
SplineSet
138.599609375 1162 m 1
 219.599609375 1162 l 1
 408.599609375 1585 l 1
 302.599609375 1585 l 1
 138.599609375 1162 l 1
EndSplineSet
EndChar

StartChar: uni0307
Encoding: 775 775 472
Width: 281
VWidth: 0
Flags: W
HStem: 1325 170
VStem: 65.7002 127
LayerCount: 2
UndoRedoHistory
Layer: 1
Undoes
EndUndoes
Redoes
EndRedoes
EndUndoRedoHistory
Fore
SplineSet
65.7001953125 1325 m 1
 192.700195312 1325 l 1
 192.700195312 1495 l 1
 65.7001953125 1495 l 1
 65.7001953125 1325 l 1
EndSplineSet
EndChar

StartChar: uni030F
Encoding: 783 783 473
Width: 683
VWidth: 0
Flags: HW
LayerCount: 2
UndoRedoHistory
Layer: 1
Undoes
EndUndoes
Redoes
EndRedoes
EndUndoRedoHistory
Fore
SplineSet
571.200195312 1297 m 1
 515.200195312 1297 l 1
 340.200195312 1599 l 1
 462.200195312 1599 l 1
 571.200195312 1297 l 1
382.200195312 1297 m 1
 323.200195312 1297 l 1
 97.2001953125 1599 l 1
 230.200195312 1599 l 1
 382.200195312 1297 l 1
EndSplineSet
EndChar

StartChar: uni0311
Encoding: 785 785 474
Width: 696
VWidth: 0
Flags: HW
LayerCount: 2
UndoRedoHistory
Layer: 1
Undoes
EndUndoes
Redoes
EndRedoes
EndUndoRedoHistory
Fore
SplineSet
125.099609375 1308 m 1
 193.099609375 1308 l 1
 193.099609375 1421 251.099609375 1474 334.099609375 1474 c 0
 415.099609375 1474 477.099609375 1420 477.099609375 1308 c 1
 547.099609375 1308 l 1
 547.099609375 1479 436.099609375 1546 331.099609375 1546 c 0
 228.099609375 1546 125.099609375 1480 125.099609375 1308 c 1
EndSplineSet
EndChar

StartChar: uni031B
Encoding: 795 795 475
Width: 452
VWidth: 0
Flags: HW
LayerCount: 2
UndoRedoHistory
Layer: 1
Undoes
EndUndoes
Redoes
EndRedoes
EndUndoRedoHistory
Fore
SplineSet
222 488 m 1
 226 477 230 452 230 422 c 0
 230 344 203 230 82 230 c 0
 73 230 64 231 54 232 c 1
 54 162 l 1
 76 159 98 156 117 156 c 0
 283 156 320 281 320 379 c 0
 320 428 310 472 303 488 c 1
 222 488 l 1
EndSplineSet
EndChar

StartChar: uni0326
Encoding: 806 806 476
Width: 290
VWidth: 0
Flags: HW
LayerCount: 2
UndoRedoHistory
Layer: 1
Undoes
EndUndoes
Redoes
EndRedoes
EndUndoRedoHistory
Fore
SplineSet
45.900390625 -664 m 1
 126.900390625 -196 l 1
 229.900390625 -196 l 1
 111.900390625 -664 l 1
 45.900390625 -664 l 1
EndSplineSet
EndChar

StartChar: uni0409
Encoding: 1033 1033 484
Width: 2052
VWidth: 0
Flags: HW
LayerCount: 2
UndoRedoHistory
Layer: 1
Undoes
EndUndoes
Redoes
EndRedoes
EndUndoRedoHistory
Fore
SplineSet
1168.09960938 30 m 1
 1117.09960938 86 l 1
 1459.5 86 l 2
 1694.40039062 86 1784.40039062 179 1784.40039062 402 c 0
 1784.40039062 629 1698.90039062 707 1446.09960938 707 c 2
 1129.09960938 707 l 1
 1168.09960938 747 l 1
 1168.09960938 30 l 1
353.700195312 372 m 2
 353.700195312 1449 l 1
 1170.09960938 1449 l 1
 1168.09960938 765 l 1
 1129.09960938 794 l 1
 1447.09960938 794 l 2
 1804.40039062 794 1898.40039062 617 1898.40039062 404 c 0
 1898.40039062 181 1813.40039062 0 1454.09960938 0 c 2
 1048.09960938 0 l 1
 1048.09960938 1397 l 1
 1108.09960938 1362 l 1
 421.700195312 1362 l 1
 475.700195312 1397 l 1
 475.700195312 404 l 2
 475.700195312 117 427.700195312 -22 99.7001953125 -22 c 2
 38.7001953125 -22 l 1
 38.7001953125 78 l 1
 99.7001953125 78 l 2
 315.700195312 78 353.700195312 143 353.700195312 372 c 2
EndSplineSet
EndChar

StartChar: uni040A
Encoding: 1034 1034 485
Width: 2041
VWidth: 0
Flags: HW
LayerCount: 2
UndoRedoHistory
Layer: 1
Undoes
EndUndoes
Redoes
EndRedoes
EndUndoRedoHistory
Fore
SplineSet
989.599609375 0 m 1
 1425.59960938 0 l 2
 1784.90039062 0 1869.90039062 181 1869.90039062 404 c 0
 1869.90039062 617 1775.90039062 794 1418.59960938 794 c 2
 1070.59960938 794 l 1
 1109.59960938 765 l 1
 1111.59960938 1449 l 1
 989.599609375 1449 l 1
 989.599609375 759 l 1
 1047.59960938 794 l 1
 269.5 794 l 1
 324.5 759 l 1
 324.5 1449 l 1
 202.5 1449 l 1
 202.5 0 l 1
 324.5 0 l 1
 324.5 743 l 1
 269.5 707 l 1
 1049.59960938 707 l 1
 989.599609375 743 l 1
 989.599609375 0 l 1
1109.59960938 31 m 1
 1109.59960938 748 l 1
 1069.59960938 707 l 1
 1417.59960938 707 l 2
 1670.40039062 707 1755.90039062 629 1755.90039062 402 c 0
 1755.90039062 179 1665.90039062 86 1431 86 c 2
 1059.59960938 86 l 1
 1109.59960938 31 l 1
EndSplineSet
EndChar

StartChar: uni040B
Encoding: 1035 1035 486
Width: 1464
VWidth: 0
Flags: HW
LayerCount: 2
UndoRedoHistory
Layer: 1
Undoes
EndUndoes
Redoes
EndRedoes
EndUndoRedoHistory
Fore
SplineSet
1186.5 0 m 1
 1186.5 403 l 2
 1186.5 628 1087.5 697 899.400390625 697 c 2
 622.200195312 697 l 1
 622.200195312 0 l 1
 500.200195312 0 l 1
 500.200195312 1361 l 1
 52.2001953125 1361 l 1
 52.2001953125 1449 l 1
 1030.79980469 1449 l 1
 1030.79980469 1361 l 1
 622.200195312 1361 l 1
 622.200195312 791 l 1
 897.599609375 791 l 2
 1174.79980469 791 1308.5 658 1308.5 404 c 2
 1308.5 0 l 1
 1186.5 0 l 1
EndSplineSet
EndChar

StartChar: uni040F
Encoding: 1039 1039 489
Width: 1417
VWidth: 0
Flags: HW
LayerCount: 2
UndoRedoHistory
Layer: 1
Undoes
EndUndoes
Redoes
EndRedoes
EndUndoRedoHistory
Fore
SplineSet
1193.5 1449 m 1
 1193.5 0 l 1
 202.5 0 l 1
 202.5 1449 l 1
 324.5 1449 l 1
 324.5 51 l 1
 264.5 87 l 1
 1126.5 87 l 1
 1071.5 51 l 1
 1071.5 1449 l 1
 1193.5 1449 l 1
659.299804688 -294 m 1
 659.299804688 32 l 1
 769.099609375 32 l 1
 769.099609375 -294 l 1
 659.299804688 -294 l 1
EndSplineSet
EndChar

StartChar: uni0411
Encoding: 1041 1041 491
Width: 1233
VWidth: 0
Flags: HW
LayerCount: 2
UndoRedoHistory
Layer: 1
Undoes
EndUndoes
Redoes
EndRedoes
EndUndoRedoHistory
Fore
SplineSet
190.799804688 0 m 1
 664.799804688 0 l 2
 1025.90039062 0 1100.90039062 193 1100.90039062 416 c 0
 1100.90039062 629 1016.90039062 820 657.799804688 820 c 2
 267.799804688 820 l 1
 312.799804688 777 l 1
 312.799804688 1407 l 1
 260.799804688 1354 l 1
 963.599609375 1354 l 1
 963.599609375 1448 l 1
 190.799804688 1448 l 1
 190.799804688 0 l 1
312.799804688 41 m 1
 312.799804688 758 l 1
 265.799804688 725 l 1
 656.799804688 725 l 2
 902.400390625 725 978.900390625 639 978.900390625 412 c 0
 978.900390625 189 895.200195312 94 670.200195312 94 c 2
 265.799804688 94 l 1
 312.799804688 41 l 1
EndSplineSet
EndChar

StartChar: uni0413
Encoding: 1043 1043 493
Width: 1057
VWidth: 0
Flags: HW
LayerCount: 2
UndoRedoHistory
Layer: 1
Undoes
EndUndoes
Redoes
EndRedoes
EndUndoRedoHistory
Fore
SplineSet
202.5 0 m 1
 202.5 1448 l 1
 1029.47558594 1448 l 1
 1029.47558594 1354 l 1
 324.5 1354 l 1
 324.5 0 l 1
 202.5 0 l 1
EndSplineSet
EndChar

StartChar: uni0414
Encoding: 1044 1044 494
Width: 1369
VWidth: 0
Flags: HW
LayerCount: 2
UndoRedoHistory
Layer: 1
Undoes
EndUndoes
Redoes
EndRedoes
EndUndoRedoHistory
Fore
SplineSet
24.2998046875 -294 m 1
 24.2998046875 88 l 1
 184.299804688 88 l 1
 275.67578125 153 313.475585938 376 363.875976562 1090 c 1
 388.17578125 1448 l 1
 1146.37597656 1448 l 1
 1146.37597656 88 l 1
 1279.37597656 88 l 1
 1279.37597656 -294 l 1
 1170.37597656 -294 l 1
 1170.37597656 0 l 1
 135.299804688 0 l 1
 135.299804688 -294 l 1
 24.2998046875 -294 l 1
290.975585938 33 m 1
 258.299804688 88 l 1
 1064.37597656 88 l 1
 1025.37597656 88 l 1
 1024.47558594 1419 l 1
 1085.37597656 1361 l 1
 434.975585938 1360 l 1
 492.576171875 1404 l 1
 466.475585938 1079 l 1
 430.475585938 578 404.375976562 158 290.975585938 33 c 1
EndSplineSet
EndChar

StartChar: uni0416
Encoding: 1046 1046 496
Width: 1864
VWidth: 0
Flags: HW
LayerCount: 2
UndoRedoHistory
Layer: 1
Undoes
EndUndoes
Redoes
EndRedoes
EndUndoRedoHistory
Fore
SplineSet
1268.63671875 823 m 1
 1732.59960938 0 l 1
 1585.59960938 0 l 1
 1216.85839844 752 l 1
 1120.29980469 614 l 1
 1120.29980469 0 l 1
 998.299804688 0 l 1
 998.299804688 614 l 1
 846.5 752 l 1
 265.700195312 0 l 1
 119.700195312 0 l 1
 765.099609375 823 l 1
 127.700195312 1449 l 1
 273.400390625 1449 l 1
 998.299804688 743 l 1
 998.299804688 1449 l 1
 1120.29980469 1449 l 1
 1120.29980469 743 l 1
 1581.40136719 1449 l 1
 1723.59960938 1449 l 1
 1268.63671875 823 l 1
EndSplineSet
EndChar

StartChar: uni041B
Encoding: 1051 1051 499
Width: 1501
VWidth: 0
Flags: HW
LayerCount: 2
UndoRedoHistory
Layer: 1
Undoes
EndUndoes
Redoes
EndRedoes
EndUndoRedoHistory
Fore
SplineSet
38.7001953125 -22 m 1
 99.7001953125 -22 l 2
 420.776367188 -22 468.776367188 117 468.776367188 404 c 2
 456.576171875 1397 l 1
 407.975585938 1362 l 1
 1223.75195312 1361 l 1
 1163.75195312 1396 l 1
 1175.95214844 -1 l 1
 1295.95214844 -2 l 1
 1285.75195312 1448 l 1
 346.776367188 1449 l 1
 346.776367188 372 l 2
 346.776367188 143 312.576171875 78 99.7001953125 78 c 2
 38.7001953125 78 l 1
 38.7001953125 -22 l 1
EndSplineSet
EndChar

StartChar: uni041F
Encoding: 1055 1055 503
Width: 1417
VWidth: 0
Flags: HW
LayerCount: 2
UndoRedoHistory
Layer: 1
Undoes
EndUndoes
Redoes
EndRedoes
EndUndoRedoHistory
Fore
SplineSet
202.5 0 m 1
 324.5 0 l 1
 324.5 1397 l 1
 269.5 1362 l 1
 1131.5 1362 l 1
 1071.5 1397 l 1
 1071.5 0 l 1
 1193.5 0 l 1
 1193.5 1449 l 1
 202.5 1449 l 1
 202.5 0 l 1
EndSplineSet
EndChar

StartChar: uni0423
Encoding: 1059 1059 507
Width: 1266
VWidth: 0
Flags: HW
LayerCount: 2
UndoRedoHistory
Layer: 1
Undoes
EndUndoes
Redoes
EndRedoes
EndUndoRedoHistory
Fore
SplineSet
399.875976562 0 m 1
 648.076171875 535 l 1
 663.375976562 454 l 1
 142.200195312 1440 l 1
 257.200195312 1440 l 1
 710.17578125 552 l 1
 671.475585938 583 l 1
 1028.45214844 1440 l 1
 1144.45214844 1440 l 1
 514.875976562 0 l 1
 399.875976562 0 l 1
EndSplineSet
EndChar

StartChar: uni0424
Encoding: 1060 1060 508
Width: 1521
VWidth: 0
Flags: HW
LayerCount: 2
UndoRedoHistory
Layer: 1
Undoes
EndUndoes
Redoes
EndRedoes
EndUndoRedoHistory
Fore
SplineSet
700.299804688 0 m 1
 779.299804688 0 l 1
 779.299804688 102 l 1
 1175.29980469 141 1399.5 335 1391.59960938 717 c 0
 1391.59960938 1104 1170.09960938 1304 771.400390625 1343 c 1
 771.400390625 1474 l 1
 700.299804688 1474 l 1
 701.200195312 1340 l 1
 298.900390625 1289 102.599609375 1074 102.599609375 717 c 0
 102.599609375 366 296.200195312 155 701.299804688 104 c 1
 700.299804688 0 l 1
701.299804688 208 m 1
 370 256 220.599609375 426 220.599609375 719 c 0
 220.599609375 1015 368.200195312 1190 701.200195312 1238 c 1
 701.299804688 208 l 1
779.299804688 205 m 1
 771.400390625 1240 l 1
 1123.29980469 1196 1273.59960938 1018 1273.59960938 719 c 0
 1281.5 426 1133.90039062 249 779.299804688 205 c 1
EndSplineSet
EndChar

StartChar: uni0426
Encoding: 1062 1062 510
Width: 1427
VWidth: 0
Flags: HW
LayerCount: 2
UndoRedoHistory
Layer: 1
Undoes
EndUndoes
Redoes
EndRedoes
EndUndoRedoHistory
Fore
SplineSet
1211.45214844 1449 m 1
 1089.45214844 1449 l 1
 1089.45214844 51 l 1
 1144.45214844 87 l 1
 264.5 87 l 1
 324.5 51 l 1
 324.5 1449 l 1
 202.5 1449 l 1
 202.5 0 l 1
 1211.45214844 0 l 1
 1211.45214844 1449 l 1
1164.45214844 -275 m 1
 1279.45214844 -275 l 1
 1279.45214844 139 l 1
 1164.45214844 139 l 1
 1164.45214844 -275 l 1
EndSplineSet
EndChar

StartChar: uni0427
Encoding: 1063 1063 511
Width: 810
VWidth: 0
Flags: HW
LayerCount: 2
UndoRedoHistory
Layer: 1
Undoes
EndUndoes
Redoes
EndRedoes
EndUndoRedoHistory
Fore
SplineSet
765.576171875 -12 m 1
 902.576171875 -12 l 1
 902.576171875 1454 l 1
 765.576171875 1454 l 1
 765.576171875 560 l 1
 793.576171875 570 407.299804688 585 426.200195312 585 c 1
 293.900390625 585 222.799804688 627 222.799804688 889 c 2
 222.799804688 1454 l 1
 73.7998046875 1454 l 1
 73.7998046875 846 l 2
 73.7998046875 656 141.799804688 461 350.599609375 461 c 1
 330.799804688 461 807.576171875 454 765.576171875 440 c 1
 765.576171875 -12 l 1
EndSplineSet
EndChar

StartChar: uni0428
Encoding: 1064 1064 512
Width: 1467
VWidth: 0
Flags: HW
LayerCount: 2
UndoRedoHistory
Layer: 1
Undoes
EndUndoes
Redoes
EndRedoes
EndUndoRedoHistory
Fore
SplineSet
150.299804688 0 m 1
 1286.65234375 0 l 1
 1286.65234375 1448 l 1
 1191.65234375 1448 l 1
 1191.65234375 113 l 1
 749.076171875 113 l 1
 749.076171875 1448 l 1
 662.67578125 1448 l 1
 662.67578125 113 l 1
 245.299804688 113 l 1
 245.299804688 1448 l 1
 150.299804688 1448 l 1
 150.299804688 0 l 1
EndSplineSet
EndChar

StartChar: uni0429
Encoding: 1065 1065 513
Width: 1545
VWidth: 0
Flags: HW
LayerCount: 2
UndoRedoHistory
Layer: 1
Undoes
EndUndoes
Redoes
EndRedoes
EndUndoRedoHistory
Fore
SplineSet
1290.65234375 -275 m 1
 1403.65234375 -275 l 1
 1403.65234375 171 l 1
 1318.65234375 171 l 1
 1318.65234375 1448 l 1
 1222.65234375 1448 l 1
 1222.65234375 113 l 1
 789.576171875 113 l 1
 789.576171875 1448 l 1
 703.17578125 1448 l 1
 703.17578125 113 l 1
 285.799804688 113 l 1
 285.799804688 1448 l 1
 190.799804688 1448 l 1
 190.799804688 0 l 1
 1291.65234375 0 l 1
 1290.65234375 -275 l 1
EndSplineSet
EndChar

StartChar: uni042A
Encoding: 1066 1066 514
Width: 1235
VWidth: 0
Flags: HW
LayerCount: 2
UndoRedoHistory
Layer: 1
Undoes
EndUndoes
Redoes
EndRedoes
EndUndoRedoHistory
Fore
SplineSet
255 0 m 1
 703 0 l 2
 1064.1 0 1139.1 193 1139.1 416 c 0
 1139.1 629 1056.1 820 697 820 c 2
 332 820 l 1
 377 777 l 1
 377 1449 l 1
 0 1449 l 1
 0 1354 l 1
 309 1356 l 1
 255 1407 l 1
 255 0 l 1
377 41 m 1
 377 758 l 1
 330 725 l 1
 696 725 l 2
 941.5 725 1017.1 639 1017.1 412 c 0
 1017.1 189 933.4 94 708.4 94 c 2
 330 94 l 1
 377 41 l 1
EndSplineSet
EndChar

StartChar: uni042B
Encoding: 1067 1067 515
Width: 1651
VWidth: 0
Flags: HW
LayerCount: 2
UndoRedoHistory
Layer: 1
Undoes
EndUndoes
Redoes
EndRedoes
EndUndoRedoHistory
Fore
SplineSet
1305.09960938 0 m 1
 1292.90039062 1449 l 1
 1414.90039062 1449 l 1
 1427.09960938 0 l 1
 1305.09960938 0 l 1
202.5 0 m 1
 202.5 1448 l 1
 324.5 1448 l 1
 324.5 777 l 1
 279.5 820 l 1
 635 820 l 2
 989.599609375 820 1077.40039062 629 1077.40039062 416 c 0
 1077.40039062 193 1002.40039062 0 641.299804688 0 c 2
 202.5 0 l 1
324.5 41 m 1
 277.5 94 l 1
 646.700195312 94 l 2
 871.700195312 94 955.400390625 189 955.400390625 412 c 0
 955.400390625 639 878.900390625 725 634.099609375 725 c 2
 277.5 725 l 1
 324.5 758 l 1
 324.5 41 l 1
EndSplineSet
EndChar

StartChar: uni042C
Encoding: 1068 1068 516
Width: 1233
VWidth: 0
Flags: HW
LayerCount: 2
UndoRedoHistory
Layer: 1
Undoes
EndUndoes
Redoes
EndRedoes
EndUndoRedoHistory
Fore
SplineSet
190.799804688 0 m 1
 664.799804688 0 l 2
 1025.90039062 0 1100.90039062 193 1100.90039062 416 c 0
 1100.90039062 629 1016.90039062 820 657.799804688 820 c 2
 267.799804688 820 l 1
 312.799804688 777 l 1
 312.799804688 1448 l 1
 190.799804688 1448 l 1
 190.799804688 0 l 1
312.799804688 41 m 1
 312.799804688 758 l 1
 265.799804688 725 l 1
 656.799804688 725 l 2
 902.400390625 725 978.900390625 639 978.900390625 412 c 0
 978.900390625 189 895.200195312 94 670.200195312 94 c 2
 265.799804688 94 l 1
 312.799804688 41 l 1
EndSplineSet
EndChar

StartChar: uni042E
Encoding: 1070 1070 517
Width: 1996
VWidth: 0
Flags: HW
LayerCount: 2
UndoRedoHistory
Layer: 1
Undoes
EndUndoes
Redoes
EndRedoes
EndUndoRedoHistory
Fore
SplineSet
1225.20019531 77 m 0
 1582.5 77 1717.5 342 1717.5 713 c 0
 1717.5 1101 1572.59960938 1372 1226.09960938 1372 c 0
 880.5 1372 727.5 1104 727.5 713 c 0
 727.5 342 867.900390625 77 1225.20019531 77 c 0
1226.09960938 -19 m 0
 815.700195312 -19 596.5 274 605.5 736 c 1
 661.5 693 l 1
 261.5 693 l 1
 324.5 736 l 1
 324.5 0 l 1
 202.5 0 l 1
 202.5 1476 l 1
 324.5 1476 l 1
 324.5 754 l 1
 261.5 795 l 1
 663.5 795 l 1
 607.5 752 l 1
 621.5 1198 846.299804688 1468 1227 1468 c 0
 1620.29980469 1468 1839.5 1158 1839.5 710 c 0
 1839.5 286 1634.70019531 -19 1226.09960938 -19 c 0
EndSplineSet
EndChar

StartChar: uni0431
Encoding: 1073 1073 519
Width: 1012
VWidth: 0
Flags: HW
LayerCount: 2
UndoRedoHistory
Layer: 1
Undoes
EndUndoes
Redoes
EndRedoes
EndUndoRedoHistory
Fore
SplineSet
533.1953125 -20 m 0
 50.6875 -20 104.6875 531 104.6875 521 c 1
 104.6875 916 273.6875 1175 830.294921875 1210 c 1
 827.294921875 1133 l 1
 584.495117188 1117 298.6875 1078 218.6875 685 c 1
 363.094726562 755 401.794921875 819 570.995117188 819 c 0
 788.794921875 819 895.294921875 573 895.294921875 419 c 0
 895.294921875 193 757.294921875 -20 533.1953125 -20 c 0
529.594726562 72 m 0
 748.294921875 72 811.294921875 194 811.294921875 434 c 0
 811.294921875 598 714.094726562 746 570.995117188 746 c 0
 524.1953125 746 380.1953125 732 236.6875 588 c 1
 184.6875 192 395.495117188 72 529.594726562 72 c 0
EndSplineSet
EndChar

StartChar: uni0432
Encoding: 1074 1074 520
Width: 1085
VWidth: 0
Flags: HW
LayerCount: 2
UndoRedoHistory
Layer: 1
Undoes
EndUndoes
Redoes
EndRedoes
EndUndoRedoHistory
Fore
SplineSet
173.700195312 0 m 1
 173.700195312 1055 l 1
 620.5 1055 l 2
 868.5 1055 938.5 912 938.5 789 c 0
 938.5 666 874.5 594 778 562 c 1
 934.5 517 974.5 390 974.5 301 c 0
 974.5 175 918.5 0 618.700195312 0 c 2
 173.700195312 0 l 1
295.700195312 85 m 1
 613.700195312 85 l 2
 824.799804688 85 854.5 183 854.5 301 c 0
 854.5 393 853.599609375 506 658.299804688 506 c 2
 295.700195312 506 l 1
 295.700195312 85 l 1
295.700195312 596 m 1
 653.799804688 596 l 2
 800.5 596 823 696 823 784 c 0
 823 892 778.900390625 970 618.700195312 970 c 2
 295.700195312 970 l 1
 295.700195312 596 l 1
EndSplineSet
EndChar

StartChar: uni0433
Encoding: 1075 1075 521
Width: 891
VWidth: 0
Flags: W
HStem: 0 21G<173.7 295.7> 0 21G<173.7 295.7> 0 21G<173.7 295.7> 0 21G<173.7 295.7> 961 94<295.7 822.252>
VStem: 173.7 122<0 961>
LayerCount: 2
UndoRedoHistory
Layer: 1
Undoes
EndUndoes
Redoes
EndRedoes
EndUndoRedoHistory
Fore
SplineSet
173.700195312 0 m 1x8c
 173.700195312 1055 l 1
 822.251953125 1055 l 1
 822.251953125 961 l 1
 295.700195312 961 l 1
 295.700195312 0 l 1
 173.700195312 0 l 1x8c
EndSplineSet
EndChar

StartChar: uni0434
Encoding: 1076 1076 522
Width: 1166
VWidth: 0
Flags: HW
LayerCount: 2
UndoRedoHistory
Layer: 1
Undoes
EndUndoes
Redoes
EndRedoes
EndUndoRedoHistory
Fore
SplineSet
54.900390625 -275 m 1
 54.900390625 76 l 1
 157.900390625 76 l 1
 239.900390625 100 260.900390625 175 297.900390625 278 c 1
 424.17578125 1057 l 1
 982.776367188 1057 l 1
 982.776367188 76 l 1
 1043.77636719 76 l 1
 1043.77636719 -275 l 1
 939.776367188 -275 l 1
 951.776367188 0 l 1
 141.900390625 0 l 1
 147.900390625 -275 l 1
 54.900390625 -275 l 1
290.900390625 74 m 1
 850.776367188 74 l 1
 850.776367188 988 l 1
 506.076171875 988 l 1
 506.975585938 1015 416.076171875 373 417.875976562 393 c 1
 384.576171875 219 329.67578125 80 290.900390625 74 c 1
EndSplineSet
EndChar

StartChar: uni0436
Encoding: 1078 1078 524
Width: 1427
VWidth: 0
Flags: HW
LayerCount: 2
UndoRedoHistory
Layer: 1
Undoes
EndUndoes
Redoes
EndRedoes
EndUndoRedoHistory
Fore
SplineSet
54.900390625 0 m 1
 639.200195312 546 l 1
 57.900390625 1057 l 1
 163.900390625 1057 l 1
 736 551 l 1
 736 1057 l 1
 866 1057 l 1
 866 551 l 1
 1237.40039062 1057 l 1
 1341.40039062 1057 l 1
 929.806640625 546 l 1
 1344.40039062 0 l 1
 1226.40039062 0 l 1
 866 524 l 1
 866 0 l 1
 736 0 l 1
 736 524 l 1
 173.900390625 0 l 1
 54.900390625 0 l 1
EndSplineSet
EndChar

StartChar: uni0437
Encoding: 1079 1079 525
Width: 876
VWidth: 0
Flags: HW
LayerCount: 2
UndoRedoHistory
Layer: 1
Undoes
EndUndoes
Redoes
EndRedoes
EndUndoRedoHistory
Fore
SplineSet
394.475585938 -19 m 0
 318.400390625 -19 210.400390625 -7 117.400390625 68 c 1
 142.400390625 171 l 1
 197.400390625 123 307.400390625 79 388.17578125 79 c 0
 503.375976562 79 605.975585938 170 605.975585938 288 c 0
 605.975585938 400 552.875976562 516 359.375976562 516 c 2
 287.400390625 516 l 1
 287.400390625 602 l 1
 359.375976562 602 l 2
 516.875976562 602 591.576171875 695 591.576171875 791 c 0
 591.576171875 913 518.67578125 992 380.076171875 992 c 0
 306.400390625 992 210.400390625 949 139.400390625 898 c 1
 139.400390625 898 128.400390625 931 104.400390625 988 c 1
 195.400390625 1070 307.400390625 1100 406.17578125 1100 c 0
 675.576171875 1100 709.576171875 923 709.576171875 804 c 0
 709.576171875 716 693.576171875 609 533.975585938 560 c 1
 690.576171875 513 748.975585938 400 747.975585938 277 c 1
 747.975585938 151 606.975585938 -19 394.475585938 -19 c 0
EndSplineSet
EndChar

StartChar: uni0438
Encoding: 1080 1080 526
Width: 1085
VWidth: 0
Flags: W
HStem: 0 21G<154.8 267.191 797.5 899.5> 0 21G<154.8 267.191 797.5 899.5> 0 21G<154.8 267.191 797.5 899.5> 0 21G<154.8 267.191 797.5 899.5>
VStem: 154.8 100<157 1055> 797.5 102<0 812 967 1055>
LayerCount: 2
UndoRedoHistory
Layer: 1
Undoes
EndUndoes
Redoes
EndRedoes
EndUndoRedoHistory
Fore
SplineSet
154.799804688 0 m 1x8c
 154.799804688 1055 l 1
 254.799804688 1055 l 1
 254.799804688 157 l 1
 797.5 967 l 1
 797.5 1055 l 1
 899.5 1055 l 1
 899.5 0 l 1
 797.5 0 l 1
 797.5 812 l 1
 253.799804688 0 l 1
 154.799804688 0 l 1x8c
EndSplineSet
EndChar

StartChar: uni043A
Encoding: 1082 1082 528
Width: 1128
VWidth: 0
Flags: W
HStem: 0 21G<187.2 316.2 783.363 949.2> 0 21G<187.2 316.2 783.363 949.2> 0 21G<187.2 316.2 783.363 949.2> 0 21G<187.2 316.2 783.363 949.2>
VStem: 187.2 129<0 516 547 1055>
LayerCount: 2
UndoRedoHistory
Layer: 1
Undoes
EndUndoes
Redoes
EndRedoes
EndUndoRedoHistory
Fore
SplineSet
187.200195312 0 m 1x88
 187.200195312 1055 l 1
 316.200195312 1055 l 1
 316.200195312 547 l 1
 736.5 1054 l 1
 892.200195312 1056 l 1
 440.400390625 528 l 1
 949.200195312 0 l 1
 802.200195312 0 l 1
 316.200195312 516 l 1
 316.200195312 0 l 1
 187.200195312 0 l 1x88
EndSplineSet
EndChar

StartChar: uni043B
Encoding: 1083 1083 529
Width: 1137
VWidth: 0
Flags: HW
LayerCount: 2
UndoRedoHistory
Layer: 1
Undoes
EndUndoes
Redoes
EndRedoes
EndUndoRedoHistory
Fore
SplineSet
40.5 -7 m 1
 22.5 93 l 1
 198.5 93 264.5 135 307.17578125 489 c 1
 365.67578125 1055 l 1
 961.776367188 1055 l 1
 961.776367188 -1 l 1
 832.776367188 -1 l 1
 832.776367188 962 l 1
 465.576171875 962 l 1
 409.776367188 477 l 1
 365.67578125 63 286.475585938 -7 40.5 -7 c 1
EndSplineSet
EndChar

StartChar: uni043C
Encoding: 1084 1084 530
Width: 1265
VWidth: 0
Flags: HW
LayerCount: 2
UndoRedoHistory
Layer: 1
Undoes
EndUndoes
Redoes
EndRedoes
EndUndoRedoHistory
Fore
SplineSet
173.700195312 0 m 1
 173.700195312 1055 l 1
 282.700195312 1055 l 1
 626 291 l 1
 966.900390625 1055 l 1
 1072.90039062 1055 l 1
 1072.90039062 0 l 1
 959.900390625 0 l 1
 959.900390625 819 l 1
 665.599609375 162 l 1
 583.700195312 162 l 1
 286.700195312 819 l 1
 286.700195312 0 l 1
 173.700195312 0 l 1
EndSplineSet
EndChar

StartChar: uni043D
Encoding: 1085 1085 531
Width: 1165
VWidth: 0
Flags: HW
LayerCount: 2
UndoRedoHistory
Layer: 1
Undoes
EndUndoes
Redoes
EndRedoes
EndUndoRedoHistory
Fore
SplineSet
173.700195312 0 m 1
 173.700195312 1055 l 1
 295.700195312 1055 l 1
 295.700195312 608 l 1
 851 608 l 1
 851 1055 l 1
 973 1055 l 1
 973 0 l 1
 851 0 l 1
 851 513 l 1
 295.700195312 513 l 1
 295.700195312 0 l 1
 173.700195312 0 l 1
EndSplineSet
EndChar

StartChar: uni043F
Encoding: 1087 1087 533
Width: 1139
VWidth: 0
Flags: HW
LayerCount: 2
UndoRedoHistory
Layer: 1
Undoes
EndUndoes
Redoes
EndRedoes
EndUndoRedoHistory
Fore
SplineSet
173.700195312 0 m 1
 173.700195312 1055 l 1
 947.799804688 1055 l 1
 947.799804688 0 l 1
 825.799804688 0 l 1
 825.799804688 963 l 1
 295.700195312 963 l 1
 295.700195312 0 l 1
 173.700195312 0 l 1
EndSplineSet
EndChar

StartChar: uni0442
Encoding: 1090 1090 536
Width: 998
VWidth: 0
Flags: HW
LayerCount: 2
UndoRedoHistory
Layer: 1
Undoes
EndUndoes
Redoes
EndRedoes
EndUndoRedoHistory
Fore
SplineSet
416.076171875 0 m 1
 416.076171875 954 l 1
 122.400390625 954 l 1
 122.400390625 1055 l 1
 850.251953125 1055 l 1
 850.251953125 954 l 1
 552.076171875 954 l 1
 552.076171875 0 l 1
 416.076171875 0 l 1
EndSplineSet
EndChar

StartChar: uni0443
Encoding: 1091 1091 537
Width: 1107
VWidth: 0
Flags: W
HStem: -304 101<239.2 520.933>
VStem: 570.2 33<84 140.475> 654.5 22<92 176.061>
LayerCount: 2
UndoRedoHistory
Layer: 1
Undoes
EndUndoes
Redoes
EndRedoes
EndUndoRedoHistory
Fore
SplineSet
239.200195312 -304 m 1
 239.200195312 -203 l 1
 536.200195312 -203 574.200195312 -184 572.200195312 28 c 2
 570.200195312 214 l 1
 603.200195312 84 l 1
 106.200195312 1055 l 1
 230.200195312 1055 l 1
 641.900390625 229 l 1
 596.200195312 229 l 1
 928.5 1055 l 1
 1048.5 1055 l 1
 654.5 92 l 1
 676.5 221 l 1
 678.5 26 l 2
 681.5 -246 643.700195312 -304 239.200195312 -304 c 1
EndSplineSet
EndChar

StartChar: uni0444
Encoding: 1092 1092 538
Width: 1365
VWidth: 0
Flags: HW
LayerCount: 2
UndoRedoHistory
Layer: 1
Undoes
EndUndoes
Redoes
EndRedoes
EndUndoRedoHistory
Fore
SplineSet
592.299804688 -381 m 1
 592.299804688 80 l 1
 537.400390625 52 460.900390625 43 397 43 c 0
 215.200195312 43 56.7001953125 249 56.7001953125 541 c 0
 56.7001953125 833 198.099609375 1019 388 1019 c 0
 447.400390625 1019 537.400390625 998 592.299804688 970 c 1
 592.299804688 1304 l 1
 695.299804688 1304 l 1
 695.299804688 970 l 1
 752.900390625 999 833.900390625 1019 897.799804688 1019 c 0
 1086.79980469 1019 1230.79980469 834 1230.79980469 542 c 0
 1230.79980469 252 1072.40039062 43 888.799804688 43 c 0
 824.900390625 43 748.400390625 52 695.299804688 80 c 1
 695.299804688 -381 l 1
 592.299804688 -381 l 1
402.400390625 134 m 0
 460.900390625 134 534.700195312 142 592.299804688 175 c 1
 592.299804688 885 l 1
 526.599609375 924 447.400390625 929 387.099609375 929 c 0
 244 929 174.700195312 754 174.700195312 542 c 0
 174.700195312 332 259.299804688 134 402.400390625 134 c 0
885.200195312 134 m 0
 1025.59960938 134 1113.79980469 331 1113.79980469 541 c 0
 1113.79980469 754 1040.90039062 928 899.599609375 928 c 0
 835.700195312 928 759.200195312 917 695.299804688 878 c 1
 695.299804688 179 l 1
 755.599609375 140 824.900390625 134 885.200195312 134 c 0
EndSplineSet
EndChar

StartChar: uni0446
Encoding: 1094 1094 540
Width: 1134
VWidth: 0
Flags: HW
LayerCount: 2
UndoRedoHistory
Layer: 1
Undoes
EndUndoes
Redoes
EndRedoes
EndUndoRedoHistory
Fore
SplineSet
876.700195312 -275 m 1
 891.700195312 0 l 1
 187.200195312 0 l 1
 187.200195312 1057 l 1
 314.200195312 1057 l 1
 314.200195312 77 l 1
 813.700195312 77 l 1
 813.700195312 1057 l 1
 942.700195312 1057 l 1
 942.700195312 135 l 1
 1037.70019531 135 l 1
 1037.70019531 -275 l 1
 876.700195312 -275 l 1
EndSplineSet
EndChar

StartChar: uni0447
Encoding: 1095 1095 541
Width: 1019
VWidth: 0
Flags: HW
LayerCount: 2
UndoRedoHistory
Layer: 1
Undoes
EndUndoes
Redoes
EndRedoes
EndUndoRedoHistory
Fore
SplineSet
671.875976562 0 m 1
 799.875976562 0 l 1
 799.875976562 1055 l 1
 671.875976562 1055 l 1
 671.875976562 488 l 1
 496.299804688 488 l 2
 367.599609375 488 283 503 283 794 c 2
 283 1055 l 1
 153 1055 l 1
 153 797 l 2
 153 420 308.200195312 396 498.099609375 396 c 2
 671.875976562 396 l 1
 671.875976562 0 l 1
EndSplineSet
EndChar

StartChar: uni0448
Encoding: 1096 1096 542
Width: 1406
VWidth: 0
Flags: HW
LayerCount: 2
UndoRedoHistory
Layer: 1
Undoes
EndUndoes
Redoes
EndRedoes
EndUndoRedoHistory
Fore
SplineSet
260.099609375 0 m 1
 260.099609375 1055 l 1
 383.099609375 1055 l 1
 383.099609375 76 l 1
 673.799804688 76 l 1
 673.799804688 1055 l 1
 778.799804688 1055 l 1
 778.799804688 76 l 1
 1068.59960938 76 l 1
 1068.59960938 1055 l 1
 1193.59960938 1055 l 1
 1193.59960938 0 l 1
 260.099609375 0 l 1
EndSplineSet
EndChar

StartChar: uni0449
Encoding: 1097 1097 543
Width: 1374
VWidth: 0
Flags: HW
LayerCount: 2
UndoRedoHistory
Layer: 1
Undoes
EndUndoes
Redoes
EndRedoes
EndUndoRedoHistory
Fore
SplineSet
1118.59960938 -280 m 1
 1129.59960938 0 l 1
 189 0 l 1
 189 1057 l 1
 328 1057 l 1
 328 77 l 1
 640.299804688 77 l 1
 640.299804688 1057 l 1
 781.299804688 1057 l 1
 781.299804688 77 l 1
 1039.59960938 77 l 1
 1039.59960938 1057 l 1
 1180.59960938 1057 l 1
 1180.59960938 134 l 1
 1276.59960938 134 l 1
 1276.59960938 -280 l 1
 1118.59960938 -280 l 1
EndSplineSet
EndChar

StartChar: uni044A
Encoding: 1098 1098 544
Width: 975
VWidth: 0
Flags: HW
LayerCount: 2
UndoRedoHistory
Layer: 1
Undoes
EndUndoes
Redoes
EndRedoes
EndUndoRedoHistory
Fore
SplineSet
219.799804688 0 m 1
 219.799804688 978 l 1
 73.7998046875 978 l 1
 73.7998046875 1055 l 1
 348.700195312 1055 l 1
 348.700195312 671 l 1
 528.700195312 671 l 2
 809.299804688 671 866.299804688 490 866.299804688 347 c 0
 866.299804688 194 798.299804688 0 530.5 0 c 2
 219.799804688 0 l 1
347.799804688 85 m 1
 544 85 l 2
 683.5 85 721.299804688 242 721.299804688 349 c 0
 721.299804688 462 671.799804688 578 537.700195312 578 c 2
 347.799804688 578 l 1
 347.799804688 85 l 1
EndSplineSet
EndChar

StartChar: uni044B
Encoding: 1099 1099 545
Width: 1424
VWidth: 0
Flags: HW
LayerCount: 2
UndoRedoHistory
Layer: 1
Undoes
EndUndoes
Redoes
EndRedoes
EndUndoRedoHistory
Fore
SplineSet
173.700195312 0 m 1
 173.700195312 1055 l 1
 295.700195312 1055 l 1
 295.700195312 668 l 1
 548.700195312 668 l 2
 821.599609375 668 879.200195312 487 879.200195312 345 c 0
 879.200195312 192 820.700195312 0 550.700195312 0 c 2
 173.700195312 0 l 1
294.700195312 85 m 1
 554.299804688 85 l 2
 694.700195312 85 774.799804688 166 774.799804688 347 c 0
 774.799804688 503 692.900390625 576 557 576 c 2
 294.700195312 576 l 1
 294.700195312 85 l 1
1110.5 0 m 1
 1110.5 1055 l 1
 1232.5 1055 l 1
 1232.5 0 l 1
 1110.5 0 l 1
EndSplineSet
EndChar

StartChar: uni044C
Encoding: 1100 1100 546
Width: 984
VWidth: 0
Flags: HW
LayerCount: 2
UndoRedoHistory
Layer: 1
Undoes
EndUndoes
Redoes
EndRedoes
EndUndoRedoHistory
Fore
SplineSet
173.700195312 0 m 1
 173.700195312 1055 l 1
 295.700195312 1055 l 1
 295.700195312 668 l 1
 535.776367188 668 l 2
 826.65234375 668 890.65234375 487 890.65234375 345 c 0
 890.65234375 192 825.65234375 0 537.576171875 0 c 2
 173.700195312 0 l 1
294.700195312 85 m 1
 541.17578125 85 l 2
 685.65234375 85 774.65234375 166 774.65234375 347 c 0
 774.65234375 503 683.65234375 576 543.875976562 576 c 2
 294.700195312 576 l 1
 294.700195312 85 l 1
EndSplineSet
EndChar

StartChar: uni044D
Encoding: 1101 1101 547
Width: 1127
VWidth: 0
Flags: HW
LayerCount: 2
UndoRedoHistory
Layer: 1
Undoes
EndUndoes
Redoes
EndRedoes
EndUndoRedoHistory
Fore
SplineSet
473.67578125 -28 m 0
 344 -28 214 9 162 66 c 1
 193 144 l 1
 302 82 394 64 467.375976562 64 c 0
 686.975585938 64 830.076171875 243 844.475585938 474 c 1
 447.576171875 474 l 1
 447.576171875 575 l 1
 844.475585938 575 l 1
 829.17578125 813 713.975585938 997 462.875976562 997 c 0
 354 997 270 960 190 912 c 1
 153 988 l 1
 226 1054 367 1087 461.076171875 1087 c 0
 836.375976562 1087 947.475585938 771 947.475585938 511 c 0
 947.475585938 277 809.375976562 -28 473.67578125 -28 c 0
EndSplineSet
EndChar

StartChar: uni044E
Encoding: 1102 1102 548
Width: 1414
VWidth: 0
Flags: HW
LayerCount: 2
UndoRedoHistory
Layer: 1
Undoes
EndUndoes
Redoes
EndRedoes
EndUndoRedoHistory
Fore
SplineSet
838.400390625 -28 m 0
 559.400390625 -28 437.700195312 191 432.700195312 483 c 1
 242.799804688 483 l 1
 242.799804688 0 l 1
 154.799804688 0 l 1
 154.799804688 1055 l 1
 242.799804688 1055 l 1
 242.799804688 567 l 1
 432.700195312 567 l 1
 438.700195312 855 562.099609375 1087 842.900390625 1087 c 0
 1148.90039062 1087 1233.90039062 834 1233.90039062 528 c 0
 1233.90039062 236 1136.90039062 -28 838.400390625 -28 c 0
842.900390625 64 m 0
 1071.5 64 1130.90039062 292 1130.90039062 525 c 0
 1130.90039062 765 1080.5 995 838.400390625 995 c 0
 606.200195312 995 538.700195312 752 538.700195312 520 c 0
 538.700195312 293 608.900390625 64 842.900390625 64 c 0
EndSplineSet
EndChar

StartChar: uni044F
Encoding: 1103 1103 549
Width: 1065
VWidth: 0
Flags: HW
LayerCount: 2
UndoRedoHistory
Layer: 1
Undoes
EndUndoes
Redoes
EndRedoes
EndUndoRedoHistory
Fore
SplineSet
168.599609375 0 m 1
 356.262695312 439 l 1
 173.599609375 487 111.599609375 642 111.599609375 752 c 0
 111.599609375 893 205.599609375 1055 454.745117188 1055 c 2
 880.400390625 1055 l 1
 880.400390625 0 l 1
 758.400390625 0 l 1
 758.400390625 432 l 1
 468.423828125 432 l 1
 297.599609375 0 l 1
 168.599609375 0 l 1
473.89453125 521 m 2
 758.400390625 521 l 1
 758.400390625 969 l 1
 454.745117188 969 l 2
 262.33984375 969 228.599609375 851 228.599609375 745 c 0
 228.599609375 610 315.228515625 521 473.89453125 521 c 2
EndSplineSet
EndChar

StartChar: uni0452
Encoding: 1106 1106 552
Width: 1260
VWidth: 0
Flags: HW
LayerCount: 2
UndoRedoHistory
Layer: 1
Undoes
EndUndoes
Redoes
EndRedoes
EndUndoRedoHistory
Fore
SplineSet
738.900390625 -280 m 1
 729 -152 l 1
 761.400390625 -152 l 2
 920.700195312 -152 940.5 -117 940.5 95 c 2
 940.5 355 l 2
 940.5 599 910.799804688 724 736.200195312 724 c 0
 576.900390625 724 449.099609375 585 423.900390625 479 c 1
 423.900390625 0 l 1
 273.900390625 0 l 1
 273.900390625 1072 l 1
 180.900390625 1072 l 1
 180.900390625 1173 l 1
 273.900390625 1173 l 1
 273.900390625 1465 l 1
 423.900390625 1465 l 1
 423.900390625 1173 l 1
 799.200195312 1173 l 1
 799.200195312 1072 l 1
 423.900390625 1072 l 1
 423.900390625 671 l 1
 505.799804688 789 611.099609375 860 749.700195312 860 c 0
 978.5 860 1092.5 707 1092.5 427 c 2
 1092.5 147 l 2
 1092.5 -153 1071.5 -280 798.299804688 -280 c 2
 738.900390625 -280 l 1
EndSplineSet
EndChar

StartChar: uni0459
Encoding: 1113 1113 558
Width: 1663
VWidth: 0
Flags: HW
LayerCount: 2
UndoRedoHistory
Layer: 1
Undoes
EndUndoes
Redoes
EndRedoes
EndUndoRedoHistory
Fore
SplineSet
103.5 -25 m 1
 94.5 124 l 1
 140.5 124 l 2
 275.5 124 277.5 180 277.5 398 c 2
 277.5 1069 l 1
 1017.59960938 1069 l 1
 1017.59960938 679 l 1
 1203 679 l 2
 1442.90039062 679 1550.90039062 524 1550.90039062 349 c 0
 1550.90039062 174 1448.90039062 0 1208.40039062 0 c 2
 854.599609375 0 l 1
 854.599609375 931 l 1
 441.5 931 l 1
 441.5 408 l 2
 441.5 89 437.5 -25 140.5 -25 c 2
 103.5 -25 l 1
1017.59960938 128 m 1
 1230 128 l 2
 1345.20019531 128 1392.90039062 256 1392.90039062 352 c 0
 1392.90039062 448 1338.90039062 547 1223.70019531 547 c 2
 1017.59960938 547 l 1
 1017.59960938 128 l 1
EndSplineSet
EndChar

StartChar: uni045A
Encoding: 1114 1114 559
Width: 1556
VWidth: 0
Flags: HW
LayerCount: 2
UndoRedoHistory
Layer: 1
Undoes
EndUndoes
Redoes
EndRedoes
EndUndoRedoHistory
Fore
SplineSet
173.700195312 0 m 1
 295.700195312 0 l 1
 295.700195312 516 l 1
 776.299804688 516 l 1
 776.299804688 0 l 1
 1155.29980469 0 l 2
 1390.29980469 0 1476.29980469 149 1476.29980469 299 c 0
 1476.29980469 450 1399.29980469 601 1155.29980469 601 c 2
 897.299804688 601 l 1
 897.299804688 1057 l 1
 776.299804688 1057 l 1
 776.299804688 601 l 1
 295.700195312 601 l 1
 295.700195312 1057 l 1
 173.700195312 1057 l 1
 173.700195312 0 l 1
897.299804688 86 m 1
 897.299804688 516 l 1
 1154.29980469 516 l 2
 1326.29980469 516 1374.29980469 413 1374.29980469 300 c 0
 1374.29980469 189 1323.29980469 86 1154.29980469 86 c 2
 897.299804688 86 l 1
EndSplineSet
EndChar

StartChar: uni045B
Encoding: 1115 1115 560
Width: 1264
VWidth: 0
Flags: HW
LayerCount: 2
UndoRedoHistory
Layer: 1
Undoes
EndUndoes
Redoes
EndRedoes
EndUndoRedoHistory
Fore
SplineSet
271.099609375 0 m 1
 461.099609375 0 l 1
 461.099609375 571 l 1
 492.599609375 512 534 454 610.5 454 c 0
 751.799804688 454 777 403 777 174 c 2
 777 0 l 1
 968 0 l 1
 968 187 l 2
 968 447 868 572 637.5 572 c 0
 516.900390625 572 462 581 461.099609375 638 c 1
 461.099609375 992 l 1
 768.900390625 992 l 1
 768.900390625 1091 l 1
 421.099609375 1091 l 1
 421.099609375 1417 l 1
 271.099609375 1417 l 1
 271.099609375 1091 l 1
 98.099609375 1091 l 1
 98.099609375 991 l 1
 271.099609375 991 l 1
 271.099609375 0 l 1
EndSplineSet
EndChar

StartChar: uni045F
Encoding: 1119 1119 564
Width: 1059
VWidth: 0
Flags: HW
LayerCount: 2
UndoRedoHistory
Layer: 1
Undoes
EndUndoes
Redoes
EndRedoes
EndUndoRedoHistory
Fore
SplineSet
518.67578125 -234 m 1
 578.076171875 -234 l 1
 578.076171875 0 l 1
 878.051757812 0 l 1
 878.051757812 1055 l 1
 789.051757812 1055 l 1
 789.051757812 77 l 1
 242.799804688 77 l 1
 242.799804688 1055 l 1
 154.799804688 1055 l 1
 154.799804688 0 l 1
 516.875976562 0 l 1
 518.67578125 -234 l 1
EndSplineSet
EndChar

StartChar: uni2074
Encoding: 8308 8308 583
Width: 710
VWidth: 0
Flags: HW
LayerCount: 2
UndoRedoHistory
Layer: 1
Undoes
EndUndoes
Redoes
EndRedoes
EndUndoRedoHistory
Fore
SplineSet
439.900390625 676 m 1
 492.900390625 676 l 1
 491.900390625 896 l 1
 588.900390625 896 l 1
 583.900390625 967 l 1
 494.900390625 967 l 1
 494.900390625 1525 l 1
 418.900390625 1525 l 1
 126.900390625 970 l 1
 126.900390625 896 l 1
 439.900390625 896 l 1
 439.900390625 676 l 1
168.900390625 967 m 1
 441.900390625 1427 l 1
 439.900390625 967 l 1
 168.900390625 967 l 1
EndSplineSet
EndChar

StartChar: uni2206
Encoding: 8710 8710 585
Width: 1281
VWidth: 0
Flags: HW
LayerCount: 2
UndoRedoHistory
Layer: 1
Undoes
EndUndoes
Redoes
EndRedoes
EndUndoRedoHistory
Fore
SplineSet
95.400390625 0 m 1
 95.400390625 83 l 1
 553.776367188 1500 l 1
 721.17578125 1500 l 1
 1178.65234375 83 l 1
 1178.65234375 0 l 1
 95.400390625 0 l 1
291.400390625 169 m 1
 982.65234375 169 l 1
 663.576171875 1163 l 1
 632.975585938 1278 l 1
 604.17578125 1163 l 1
 291.400390625 169 l 1
EndSplineSet
EndChar

StartChar: v
Encoding: 118 118 596
Width: 1002
VWidth: 0
Flags: HW
LayerCount: 2
UndoRedoHistory
Layer: 1
Undoes
EndUndoes
Redoes
EndRedoes
EndUndoRedoHistory
Fore
SplineSet
441.276367188 0 m 1
 570.276367188 0 l 1
 944.65234375 1055 l 1
 823.65234375 1055 l 1
 607.776367188 438 l 1
 485.276367188 54 l 1
 525.276367188 54 l 1
 390.875976562 434 l 1
 173.200195312 1055 l 1
 52.2001953125 1055 l 1
 441.276367188 0 l 1
EndSplineSet
EndChar

StartChar: w
Encoding: 119 119 597
Width: 1463
VWidth: 0
Flags: W
VStem: 55.7998 111<1003.2 1055> 1294.9 107<999.395 1055>
LayerCount: 2
UndoRedoHistory
Layer: 1
Undoes
EndUndoes
Redoes
EndRedoes
EndUndoRedoHistory
Fore
SplineSet
347.799804688 0 m 1
 464.799804688 0 l 1
 745.599609375 1015 l 1
 721.299804688 1015 l 1
 1030.90039062 0 l 1
 1129.90039062 0 l 1
 1401.90039062 1055 l 1
 1294.90039062 1055 l 1
 1062.90039062 65 l 1
 1097.90039062 65 l 1
 794.200195312 1055 l 1
 669.099609375 1055 l 1
 387.799804688 65 l 1
 421.799804688 65 l 1
 166.799804688 1055 l 1
 55.7998046875 1055 l 1
 347.799804688 0 l 1
EndSplineSet
EndChar

StartChar: x
Encoding: 120 120 602
Width: 961
VWidth: 0
Flags: W
LayerCount: 2
UndoRedoHistory
Layer: 1
Undoes
EndUndoes
Redoes
EndRedoes
EndUndoRedoHistory
Fore
SplineSet
39.599609375 0 m 1
 174.599609375 0 l 1
 498.599609375 471 l 1
 537.299804688 500 l 1
 917.900390625 1055 l 1
 783 1055 l 1
 474.299804688 577 l 1
 440.099609375 559 l 1
 39.599609375 0 l 1
783.900390625 0 m 1
 916.900390625 0 l 1
 202.5 1055 l 1
 70.599609375 1055 l 1
 783.900390625 0 l 1
EndSplineSet
EndChar

StartChar: y
Encoding: 121 121 603
Width: 1024
VWidth: 0
Flags: W
LayerCount: 2
UndoRedoHistory
Layer: 1
Undoes
EndUndoes
Redoes
EndRedoes
EndUndoRedoHistory
Fore
SplineSet
434.076171875 -400 m 1
 968.952148438 1055 l 1
 848.952148438 1055 l 1
 517.776367188 118 l 1
 549.276367188 118 l 1
 195.900390625 1055 l 1
 72.900390625 1055 l 1
 504.276367188 -32 l 1
 504.276367188 80 l 1
 344.975585938 -368 l 1
 434.076171875 -400 l 1
EndSplineSet
EndChar

StartChar: yen
Encoding: 165 165 607
Width: 1159
VWidth: 0
Flags: HW
LayerCount: 2
UndoRedoHistory
Layer: 1
Undoes
EndUndoes
Redoes
EndRedoes
EndUndoRedoHistory
Fore
SplineSet
538.475585938 0 m 1
 660.475585938 0 l 1
 660.475585938 312 l 1
 953.3515625 312 l 1
 953.3515625 386 l 1
 660.475585938 386 l 1
 648.276367188 607 l 1
 939.15234375 607 l 1
 939.15234375 685 l 1
 685.17578125 685 l 1
 1093.15234375 1449 l 1
 979.15234375 1449 l 1
 593.375976562 688 l 1
 172.400390625 1449 l 1
 59.400390625 1449 l 1
 497.076171875 685 l 1
 237.400390625 685 l 1
 237.400390625 607 l 1
 538.475585938 607 l 1
 538.475585938 386 l 1
 235.400390625 386 l 1
 235.400390625 312 l 1
 538.475585938 312 l 1
 538.475585938 0 l 1
EndSplineSet
EndChar

StartChar: z
Encoding: 122 122 609
Width: 878
VWidth: 0
Flags: W
VStem: 108 663.852
LayerCount: 2
UndoRedoHistory
Layer: 1
Undoes
EndUndoes
Redoes
EndRedoes
EndUndoRedoHistory
Fore
SplineSet
108 0 m 1
 771.8515625 0 l 1
 771.8515625 83 l 1
 164 83 l 1
 188 29 l 1
 765.8515625 972 l 1
 765.8515625 1055 l 1
 129 1055 l 1
 129 972 l 1
 705.8515625 972 l 1
 683.8515625 1022 l 1
 108 82 l 1
 108 0 l 1
EndSplineSet
EndChar

StartChar: zero
Encoding: 48 48 613
Width: 1144
VWidth: 0
Flags: HW
LayerCount: 2
UndoRedoHistory
Layer: 1
Undoes
EndUndoes
Redoes
EndRedoes
EndUndoRedoHistory
Fore
SplineSet
571.700195312 67 m 0
 387.200195312 67 245.900390625 238 245.900390625 720 c 1
 243.900390625 1175 385.400390625 1362 571.700195312 1362 c 0
 756.200195312 1362 886.700195312 1216 886.700195312 722 c 0
 886.700195312 239 756.200195312 67 571.700195312 67 c 0
571.700195312 -33 m 0
 863.299804688 -33 1003.70019531 258 1003.70019531 717 c 0
 1003.70019531 1207 843.5 1464 571.700195312 1464 c 0
 299 1464 126.900390625 1205 126.900390625 717 c 0
 126.900390625 258 280.099609375 -33 571.700195312 -33 c 0
EndSplineSet
EndChar
